<svg width="109" height="110" viewBox="0 0 109 110" fill="none" xmlns="http://www.w3.org/2000/svg">
<mask id="mask0" mask-type="alpha" maskUnits="userSpaceOnUse" x="0" y="0" width="109" height="110">
<path fill-rule="evenodd" clip-rule="evenodd" d="M0.146667 54.6465C0.146667 84.7461 24.3232 109.147 54.1466 109.147V109.147C83.9703 109.147 108.147 84.7461 108.147 54.6465V54.6465C108.147 24.547 83.9703 0.146667 54.1466 0.146667V0.146667C24.3232 0.146667 0.146667 24.547 0.146667 54.6465" fill="white"/>
</mask>
<g mask="url(#mask0)">
<path fill-rule="evenodd" clip-rule="evenodd" d="M130.291 60.8848C130.291 102.213 97.0953 135.716 56.1464 135.716C15.1976 135.716 -17.998 102.213 -17.998 60.8848C-17.998 19.5568 15.1976 -13.946 56.1464 -13.946C97.0953 -13.946 130.291 19.5568 130.291 60.8848" fill="#E4E5F7"/>
</g>
<mask id="mask1" mask-type="alpha" maskUnits="userSpaceOnUse" x="0" y="0" width="109" height="110">
<path fill-rule="evenodd" clip-rule="evenodd" d="M0.146667 54.6465C0.146667 84.7461 24.3232 109.147 54.1466 109.147V109.147C83.9703 109.147 108.147 84.7461 108.147 54.6465V54.6465C108.147 24.547 83.9703 0.146667 54.1466 0.146667V0.146667C24.3232 0.146667 0.146667 24.547 0.146667 54.6465" fill="white"/>
</mask>
<g mask="url(#mask1)">
<path fill-rule="evenodd" clip-rule="evenodd" d="M76.3091 109.514C76.1019 109.52 75.8928 109.525 75.6856 109.533C75.1129 109.547 74.5404 109.564 73.9676 109.58C61.3091 109.934 48.6524 110.29 35.9939 110.644C35.9394 110.028 35.8849 109.411 35.8321 108.795C35.6576 109.408 35.4831 110.019 35.3086 110.632C31.2545 110.18 27.2005 109.731 23.1464 109.279C23.8918 106.013 24.6353 100.9 25.3789 97.6338C26.1642 93.9091 26.9496 90.1863 27.7351 86.4635C27.9422 85.838 28.8677 83.2803 31.4381 82.0288C31.9381 81.7868 33.7815 80.8894 35.6433 81.5224C36.465 81.8015 36.4757 82.1006 37.2138 82.4088C38.5009 82.9462 42.737 81.4602 42.737 81.4602C43.9784 80.9573 45.5783 80.2546 47.4053 79.306C50.7576 79.1317 54.11 78.9576 57.4625 78.7833C56.7624 81.4417 56.1715 83.3058 56.1715 83.3058C55.8843 84.2159 55.5789 85.1627 55.2589 86.1424C55.4225 86.1903 55.5918 86.238 55.7625 86.28C56.486 86.4635 57.1878 86.5681 57.8568 86.6158C58.4913 84.137 59.0694 81.4417 59.4766 78.6768C60.7873 78.609 62.0999 78.5409 63.4127 78.473C63.8852 78.4475 64.358 78.4236 64.8323 78.3998C68.0103 78.2328 71.1879 78.0675 74.3659 77.9026C74.6639 82.4822 74.964 87.0637 75.2638 91.6433C75.3567 93.0726 75.4494 94.5036 75.5438 95.9329C75.551 96.0468 75.5583 96.1622 75.5656 96.2762C75.813 100.072 76.0621 105.718 76.3091 109.514" fill="#262C7C"/>
<path fill-rule="evenodd" clip-rule="evenodd" d="M58.9494 72.2862C58.5149 74.598 57.9605 76.8915 57.4623 78.7832C56.7624 81.4416 56.1716 83.3059 56.1716 83.3059C55.8844 84.216 55.5789 85.1628 55.259 86.1425C50.0451 84.5848 47.749 80.0253 47.4054 79.3061C47.4035 79.3024 47.4035 79.3004 47.4017 79.2969C48.4816 76.7539 49.5615 74.2109 50.6413 71.6678C53.4119 71.8733 56.1807 72.0807 58.9494 72.2862" fill="#E4E5F7"/>
<path fill-rule="evenodd" clip-rule="evenodd" d="M48.7701 72.1645C48.2652 75.6552 50.7424 78.8426 53.99 79.222C57.3778 79.6178 60.6079 76.8417 60.6874 73.1586C56.7149 72.827 52.7425 72.4959 48.7701 72.1645" fill="#9195CB"/>
<path fill-rule="evenodd" clip-rule="evenodd" d="M81.4032 52.076C81.4032 65.0423 70.9882 75.5537 58.1409 75.5537C45.2937 75.5537 34.8787 65.0423 34.8787 52.076C34.8787 39.1099 45.2937 28.5985 58.1409 28.5985C70.9882 28.5985 81.4032 39.1099 81.4032 52.076" fill="#BEC1E0"/>
<path fill-rule="evenodd" clip-rule="evenodd" d="M65.3159 72.7614C65.156 74.6402 64.9942 76.5208 64.8324 78.3997C64.6324 80.728 64.4324 83.0564 64.2324 85.3847C63.6307 85.6728 62.1945 86.304 60.262 86.5462C59.5257 86.6397 58.7186 86.6746 57.8568 86.6159C58.4913 84.1371 59.0694 81.4418 59.4766 78.6767C59.7257 76.9759 59.9111 75.2493 60.0057 73.5265C60.0275 73.1246 60.0493 72.7412 60.0693 72.3705C61.5237 72.4788 62.978 72.5871 64.4324 72.6953L65.3159 72.7614Z" fill="#FFD6B0"/>
<path fill-rule="evenodd" clip-rule="evenodd" d="M87.7515 87.5535C87.4733 88.5791 86.9788 89.7314 86.3026 90.8635C85.7372 91.4653 85.2081 91.9276 84.8536 92.2359C84.8316 92.2542 84.81 92.2726 84.7882 92.2909C84.8316 92.4689 84.8736 92.6487 84.9173 92.8267C83.4465 94.5973 81.5286 96.0559 79.3452 96.4869C77.9761 96.7587 76.7346 96.5787 75.5657 96.2761C75.5111 96.2614 75.4584 96.2486 75.4057 96.2321C74.8276 96.0779 74.2658 95.8945 73.7168 95.7257C73.4023 95.6284 73.0914 95.5348 72.7824 95.4541C72.7769 95.4523 72.7733 95.4504 72.7696 95.4504C71.4043 95.0963 70.0863 94.9732 68.7083 95.7367C67.2703 96.5311 67.5739 97.2907 64.6924 100.992C61.9618 104.496 60.5984 106.25 58.8168 106.545C54.8245 107.211 50.8541 100.406 50.4396 99.6796C52.3557 94.6872 53.9483 90.135 55.259 86.1425C55.4226 86.1902 55.5917 86.2379 55.7626 86.2801C56.4861 86.4636 57.1879 86.5682 57.8569 86.6159C58.4913 84.1371 59.0695 81.4416 59.4767 78.6768C59.7257 76.9759 59.9112 75.2492 60.0057 73.5265C60.0275 73.1247 60.0493 72.7412 60.0693 72.3706C60.2875 68.2955 60.3693 66.0112 60.0057 62.9102C59.5367 58.8977 58.7295 56.7143 58.904 55.4538C59.0131 55.3565 59.1785 55.3015 59.3949 55.2905C63.6289 55.085 87.4677 71.1321 88.0842 84.3903V84.3921C88.1333 85.4673 88.0296 86.5242 87.7515 87.5535" fill="#E4E5F7"/>
<path fill-rule="evenodd" clip-rule="evenodd" d="M43.649 59.6535C45.9942 67.7576 52.2412 74.2029 49.5228 78.7781C48.8285 79.9467 47.8925 80.6224 46.2019 81.4422C41.1433 83.8954 35.9548 83.2765 33.7703 82.9891C28.5679 82.3046 24.4636 80.337 21.6792 78.6064C17.2518 52.7286 21.6071 30.8239 31.0808 21.2368C38.0077 14.2269 45.7093 12.0734 45.7093 12.0734C47.4916 11.5751 53.2855 10.4773 60.215 11.643V11.643C65.8289 13.3218 70.4314 17.238 73.889 22.0059C75.1465 23.74 78.3603 28.0444 80.6936 37.4782C85.0889 55.2483 82.5443 74.6953 79.2333 75.0289C78.8204 75.0704 78.1561 74.8388 77.2117 73.2666C76.4411 62.673 75.6704 52.0795 74.8998 41.4857C73.495 41.1601 71.4006 40.7349 68.8343 40.4463C64.1498 39.9195 61.4521 40.2412 58.5572 40.1566C55.5172 40.068 51.2133 39.4985 45.9503 37.293C41.7107 47.5607 42.2491 54.8162 43.649 59.6535" fill="#262C7C"/>
<path d="M59.4214 49.5247C58.1572 51.9572 58.2181 54.7375 59.6283 56.6894C60.6178 58.0592 61.9853 58.6238 62.6608 58.8458" stroke="#262C7C" stroke-width="1.4" stroke-linecap="round" stroke-linejoin="round"/>
<path fill-rule="evenodd" clip-rule="evenodd" d="M88.384 109.176C84.3591 109.288 80.3343 109.402 76.3091 109.514L75.4056 96.232L75.3803 95.9294L75.0331 91.5312L73.8496 76.563C76.0766 76.629 78.4889 76.7265 81.0978 76.8567C82.2431 81.6492 83.3901 86.4415 84.5354 91.234C84.621 91.5863 84.7047 91.9387 84.7883 92.291C84.8317 92.4688 84.8736 92.6486 84.9174 92.8268C86.0716 97.6595 87.228 104.344 88.384 109.176" fill="#E4E5F7"/>
<path fill-rule="evenodd" clip-rule="evenodd" d="M89.0622 85.203C88.8895 87.6435 87.5131 89.5735 86.3025 90.8635C85.7372 91.4653 85.2081 91.9275 84.8536 92.2358C84.8316 92.2543 84.81 92.2725 84.7882 92.291C82.4157 94.3366 78.858 95.9753 75.5438 95.9329C75.4893 95.9329 75.4348 95.9312 75.3802 95.9294C74.8148 95.9127 74.2567 95.8487 73.7168 95.7257C73.4005 95.6542 73.0878 95.5643 72.7823 95.454C72.7769 95.4522 72.7733 95.4505 72.7696 95.4505C72.6333 95.399 72.4969 95.3457 72.3642 95.2872C70.6826 94.5568 70.1408 93.5587 68.6828 93.6944C66.9758 93.8541 66.5156 95.3331 63.6871 97.808C61.4619 99.7549 59.6094 101.377 57.7714 100.993C57.3296 100.902 55.7044 100.446 54.4845 97.278C55.3172 95.054 56.6825 91.2009 57.8569 86.6158C58.4913 84.137 59.0694 81.4417 59.4767 78.6768C59.7257 76.9758 59.9112 75.2492 60.0057 73.5264C60.0275 73.1247 60.0493 72.7411 60.0693 72.3706C60.2875 68.2956 60.3693 66.0111 60.0057 62.9103C59.5367 58.8977 58.7295 56.7141 58.904 55.4536C58.9385 55.1803 59.0222 54.9529 59.164 54.7566C59.1876 54.8098 59.2094 54.863 59.2349 54.9179C59.2603 54.9786 59.2876 55.0392 59.3149 55.1032C59.3403 55.1637 59.3676 55.2261 59.3949 55.2905C59.5039 55.5454 59.6221 55.8206 59.7475 56.1254C59.7657 56.1694 59.7839 56.2133 59.8021 56.2573C59.8203 56.3013 59.8403 56.3472 59.8584 56.3931C59.9148 56.529 59.9712 56.6701 60.0311 56.8169C60.1111 57.0116 60.1929 57.2171 60.2766 57.4334C60.3347 57.5802 60.3929 57.7308 60.4547 57.8866C60.5729 58.1895 60.6947 58.5088 60.822 58.848C60.8692 58.9783 60.9183 59.1086 60.9692 59.2445C61.0019 59.3344 61.0365 59.4262 61.0692 59.5197C61.1892 59.8408 61.311 60.1801 61.4364 60.5344C63.3217 65.8314 64.2634 68.4807 64.4106 70.9028C64.4488 71.5338 64.4543 72.156 64.4288 72.767C64.427 72.8383 64.4233 72.9099 64.4197 72.9816C64.4179 73.0403 64.4143 73.0972 64.4106 73.1559C64.4052 73.2512 64.3979 73.3447 64.3906 73.4403C64.3743 73.677 64.3524 73.9137 64.327 74.1465C64.327 74.1577 64.3252 74.1669 64.3234 74.1759C64.2979 74.3962 64.2706 74.6164 64.2379 74.8346C64.2179 74.9795 64.1961 75.1245 64.1707 75.2678C64.1561 75.365 64.1397 75.4602 64.1216 75.5558C64.0834 75.7723 64.0416 75.987 63.9961 76.2015C63.9725 76.3171 63.947 76.4327 63.9216 76.5483C63.8034 77.0769 63.6671 77.5998 63.5162 78.1207C63.4835 78.2381 63.4471 78.3557 63.4126 78.473C63.378 78.5867 63.3435 78.7007 63.3071 78.8144C63.2035 79.1502 63.0926 79.484 62.9762 79.8197C62.9308 79.952 62.8835 80.0858 62.8363 80.2199C62.6545 80.7279 62.4636 81.2382 62.2636 81.7501C62.1563 82.0253 62.0473 82.2987 61.9364 82.5758C61.82 82.8636 61.7019 83.1535 61.5837 83.4434C61.4728 83.7095 61.3619 83.9757 61.251 84.2436C61.1346 84.5243 61.0165 84.8069 60.8965 85.0913C60.6274 85.7316 60.3638 86.3298 60.1075 86.8875C60.0075 87.1039 59.9093 87.315 59.813 87.5185C59.7657 87.6214 59.7185 87.724 59.6694 87.8249C59.573 88.0251 59.4785 88.2194 59.3876 88.4086C59.333 88.5223 59.2785 88.6341 59.224 88.7443C59.1422 88.9075 59.064 89.0654 58.9876 89.2196C58.9676 89.2597 58.9495 89.2983 58.9295 89.3368C58.8204 89.5515 58.7168 89.757 58.6186 89.9535C58.4986 90.1936 58.3841 90.4212 58.2768 90.6358C58.2114 90.7679 58.1477 90.8947 58.0877 91.0175C58.0768 91.0397 58.0659 91.0633 58.055 91.0855C58.0205 91.1569 57.9859 91.2266 57.955 91.2945C57.8569 91.5019 57.7678 91.6927 57.6914 91.8727C57.6714 91.9147 57.6551 91.9552 57.6387 91.9956C57.5751 92.1479 57.5224 92.289 57.4769 92.4193C57.466 92.4504 57.4569 92.4798 57.4478 92.5092C57.4369 92.5422 57.4278 92.5736 57.4205 92.6027C57.4078 92.6451 57.3969 92.6853 57.3878 92.7238C57.3769 92.7644 57.3696 92.8029 57.3624 92.8394C57.3551 92.8688 57.3515 92.8965 57.3478 92.922C57.3406 92.9624 57.3351 93.0029 57.3333 93.0414C57.3296 93.08 57.3278 93.1167 57.3278 93.1532C57.3278 93.3717 57.3878 93.5477 57.5169 93.6853C58.6804 94.9256 62.6617 90.2067 69.141 90.1386C69.3482 90.1369 69.5518 90.1386 69.75 90.1478C69.8263 90.1498 69.9027 90.1533 69.9772 90.1569C70.3917 90.179 70.7862 90.2213 71.1644 90.2801C71.2371 90.2909 71.3098 90.3019 71.3807 90.3147C71.4425 90.3259 71.5025 90.3368 71.5643 90.3478C71.6443 90.3624 71.7261 90.3791 71.8043 90.3957C71.8734 90.4103 71.9424 90.425 72.0097 90.4415C72.057 90.4507 72.1024 90.4615 72.1479 90.4744C72.7205 90.6103 73.2496 90.7826 73.7495 90.9755C73.8404 91.0101 73.9295 91.047 74.0186 91.0817C74.2676 91.1828 74.5076 91.2872 74.7403 91.3954C74.8167 91.4303 74.8912 91.4653 74.9639 91.4984C74.9875 91.5112 75.0112 91.5204 75.033 91.5312C75.3348 91.6762 75.6275 91.8229 75.9111 91.9661C75.9638 91.9938 76.0165 92.0193 76.0692 92.047C76.3965 92.2139 76.7146 92.3772 77.0273 92.5277C77.1146 92.5697 77.2018 92.6121 77.2891 92.6525C77.589 92.7917 77.8836 92.9185 78.1799 93.0268C78.229 93.0449 78.2781 93.0634 78.329 93.08C78.5762 93.166 78.8253 93.2396 79.0761 93.2928C79.1252 93.3036 79.1761 93.3148 79.227 93.324C79.3379 93.346 79.4506 93.3642 79.5634 93.3772C79.6561 93.388 79.7506 93.3972 79.8433 93.4027C79.8815 93.4066 79.9215 93.4084 79.9615 93.41C80.3905 93.4284 80.8359 93.388 81.3068 93.2761C81.4359 93.2449 81.5613 93.2102 81.6867 93.1717C81.7411 93.1532 81.7976 93.1348 81.8522 93.1146C81.9103 93.0946 81.9683 93.0726 82.0249 93.0506C82.0849 93.0268 82.143 93.0029 82.2012 92.977C82.2594 92.9532 82.3158 92.9277 82.3721 92.9C82.4739 92.8523 82.5757 92.8009 82.6757 92.7458C83.0775 92.5257 83.4538 92.2578 83.8083 91.9514C83.8501 91.9147 83.8919 91.8782 83.9337 91.8396C84.1428 91.6507 84.3428 91.4486 84.5355 91.234C84.5373 91.2321 84.5391 91.2305 84.5391 91.2287C84.5991 91.1624 84.6591 91.0945 84.7173 91.0248C85.1336 90.5368 85.5154 89.9881 85.8681 89.4012C85.9208 89.3129 85.9735 89.2251 86.0244 89.1352C86.0462 89.1001 86.0662 89.0654 86.0844 89.0304C86.1371 88.9386 86.188 88.8434 86.2389 88.7497C86.2898 88.6579 86.3389 88.5643 86.3862 88.4726C86.428 88.3955 86.4678 88.3168 86.508 88.2359C86.6752 87.9057 86.8334 87.5682 86.9843 87.2251C87.037 87.1077 87.0879 86.9901 87.1388 86.871C87.3188 86.4527 87.4879 86.025 87.6495 85.5958C87.7042 85.4525 87.7569 85.3094 87.8096 85.1665C87.9042 84.9078 87.9951 84.6507 88.0842 84.392V84.3902C88.2932 83.7849 88.4896 83.1811 88.675 82.5904C88.9441 83.2877 89.1386 84.1021 89.0622 85.203" fill="#C50558"/>
<path fill-rule="evenodd" clip-rule="evenodd" d="M92.3491 71.4017C92.46 74.3374 88.513 75.2163 87.746 78.5686C87.3479 80.3097 88.1514 81.2291 88.675 82.5903C87.2606 87.0892 85.2791 92.3276 81.3068 93.2762C77.3836 94.2137 75.2548 90.0746 69.141 90.1387C62.6618 90.2065 58.6804 94.9256 57.5169 93.6853C56.7061 92.8193 58.6277 90.5021 60.8965 85.0911C62.9072 80.2932 64.7179 75.9722 64.4106 70.9027C64.2634 68.4807 63.3217 65.8315 61.4364 60.5344C60.4275 57.6958 59.6767 55.9326 59.164 54.7565C59.2149 54.6831 59.2767 54.6152 59.3476 54.551C61.291 52.7841 67.5412 56.5839 71.1807 58.7967C78.1399 63.0277 81.7102 65.846 81.7102 65.846C82.4957 66.4663 83.9883 67.6736 86.3006 68.4826C88.3878 69.2147 90.2694 69.3156 91.5601 69.2791C91.871 69.7101 92.3128 70.457 92.3491 71.4017" fill="#EB0065"/>
<path fill-rule="evenodd" clip-rule="evenodd" d="M62.4754 56.3286C62.1121 56.8363 68.1269 61.0595 75.8583 69.1109C80.4209 73.8621 83.8068 78.0985 85.9773 80.9707C85.9338 80.0481 85.8904 79.1258 85.8468 78.2034C86.4343 77.3469 87.0217 76.4905 87.6095 75.6338C85.1247 72.815 81.3131 68.852 76.1196 64.7623C69.6451 59.6639 62.8488 55.8066 62.4754 56.3286" fill="#FD99C4"/>
<path fill-rule="evenodd" clip-rule="evenodd" d="M66.2599 65.7303C66.7797 66.3931 67.5099 67.4329 68.1422 68.8214C68.4953 69.5966 69.7919 72.6198 69.239 79.7207C69.0498 82.1527 68.6076 85.5234 67.5021 89.4702C67.8086 89.2038 68.7456 88.4598 70.1135 88.4161C72.3215 88.3455 73.6536 90.1628 73.7694 90.3269C73.3394 85.9276 72.6757 81.0711 71.6629 75.9516C71.0806 73.0092 70.3325 69.7245 67.665 66.9775C67.1142 66.4101 66.6073 65.9953 66.2599 65.7303" fill="#FD99C4"/>
<path d="M48.6339 51.0513C49.0382 50.703 49.8034 50.1377 50.9133 49.8333C52.3013 49.4526 53.4651 49.6893 53.9969 49.8333C53.5013 49.3434 52.5698 48.555 51.1814 48.0741C50.2195 47.7413 49.3649 47.669 48.7681 47.6685" stroke="#262C7C" stroke-width="1.4" stroke-linecap="round" stroke-linejoin="round"/>
<path d="M69.5496 46.8564C68.8112 47.1006 68.0505 47.3703 67.2705 47.6684C66.1288 48.1047 65.0556 48.5601 64.0527 49.0216C64.9504 49.1442 66.0568 49.3783 67.2705 49.8335C68.1605 50.1672 68.9217 50.5498 69.5496 50.916" stroke="#262C7C" stroke-width="1.4" stroke-linecap="round" stroke-linejoin="round"/>
<path fill-rule="evenodd" clip-rule="evenodd" d="M58.8367 64.4277C58.0495 64.8717 57.1442 65.1231 56.1788 65.1231C54.1155 65.1231 52.3193 63.969 51.3921 62.2663C52.5375 61.7489 54.0591 61.6663 55.5862 62.1434C57.0115 62.5891 58.1586 63.4369 58.8367 64.4277" fill="#E4E5F7"/>
<path fill-rule="evenodd" clip-rule="evenodd" d="M59.3894 67.2661C58.7803 69.2459 56.0916 70.1651 53.3828 69.3176C50.674 68.4699 48.9706 66.1764 49.5796 64.1947C49.8451 63.3305 50.5068 62.6681 51.3921 62.2663C52.3193 63.969 54.1155 65.1231 56.1788 65.1231C57.1442 65.1231 58.0495 64.8717 58.8367 64.4277C59.4475 65.3196 59.6784 66.3267 59.3894 67.2661" fill="#131856"/>
<path d="M47.4228 44.9398C48.1183 44.7944 49.6559 44.5721 51.453 45.1689C53.4175 45.8214 54.5772 47.0824 55.0291 47.6323" stroke="#262C7C" stroke-width="1.4" stroke-linecap="round" stroke-linejoin="round"/>
<path d="M62.7491 46.5438C63.3157 46.0436 64.319 45.2895 65.7574 44.8251C67.6546 44.2125 69.2852 44.4343 70.0716 44.5959" stroke="#262C7C" stroke-width="1.4" stroke-linecap="round" stroke-linejoin="round"/>
<path fill-rule="evenodd" clip-rule="evenodd" d="M30.4678 45.9653C29.8077 44.1817 28.1458 38.9854 29.8233 32.6324C31.5353 26.1491 35.6739 22.4419 37.1268 21.2506C35.4426 23.8619 33.2752 27.8614 31.8639 33.1201C30.4632 38.3395 30.3265 42.8643 30.4678 45.9653" fill="#8591FF"/>
<path fill-rule="evenodd" clip-rule="evenodd" d="M44.0689 29.4235C43.4661 27.7799 42.8716 25.7238 42.5208 23.3156C42.0052 19.7761 42.1992 16.7324 42.5208 14.5088C42.8725 14.722 43.2245 14.935 43.5763 15.148C43.5348 16.9744 43.5317 18.8699 43.5763 20.8299C43.645 23.8503 43.8202 26.7199 44.0689 29.4235" fill="#8591FF"/>
<path fill-rule="evenodd" clip-rule="evenodd" d="M75.6856 109.532C75.113 109.547 74.5403 109.564 73.9677 109.58C73.5314 107.898 73.1314 104.224 72.8005 102.267C72.4242 100.041 72.1915 97.9531 72.057 96.0356C72.4824 99.6228 73.4005 102.298 74.2131 104.144C74.7294 105.318 75.4093 108.477 75.6856 109.532" fill="#6468A1"/>
<path fill-rule="evenodd" clip-rule="evenodd" d="M38.7764 96.0763C38.2014 97.9612 37.6378 99.8986 37.0899 101.887C36.4425 104.237 35.8504 108.386 35.3087 110.632C35.4832 110.019 35.6577 109.407 35.8322 108.795C35.8862 109.411 35.94 110.028 35.994 110.644C37.2264 110.612 38.4588 110.58 39.6912 110.547C39.7687 108.647 39.7585 104.67 39.5907 102.357C39.4231 100.047 39.1266 97.9428 38.7764 96.0763" fill="#6468A1"/>
<path fill-rule="evenodd" clip-rule="evenodd" d="M60.0693 72.3706C60.0493 72.7412 60.0275 73.1247 60.0057 73.5265C59.9112 75.2492 59.7257 76.9759 59.4767 78.6768C59.0695 81.4416 58.4913 84.1371 57.8569 86.6159C57.1879 86.5682 56.4861 86.4636 55.7626 86.2801C55.5917 86.2379 55.4226 86.1902 55.259 86.1425C55.579 85.1628 55.8844 84.216 56.1716 83.3059C56.1716 83.3059 56.7625 81.4416 57.4624 78.7832C57.9605 76.8915 58.515 74.598 58.9495 72.2862C59.6621 68.5028 60.0602 64.6718 59.384 62.4774C59.3149 62.2517 58.9204 61.0369 58.7477 59.3527C58.5968 57.8702 58.3968 55.9143 58.904 55.4538C58.7295 56.7143 59.5367 58.8977 60.0057 62.9102C60.3693 66.0112 60.2875 68.2955 60.0693 72.3706" fill="#E4E5F7"/>
</g>
</svg>
