<svg width="132" height="133" viewBox="0 0 132 133" fill="none" xmlns="http://www.w3.org/2000/svg">
<path fill-rule="evenodd" clip-rule="evenodd" d="M66 132.66C102.451 132.66 132 103.11 132 66.6595C132 30.2087 102.451 0.659546 66 0.659546C29.5492 0.659546 0 30.2087 0 66.6595C0 103.11 29.5492 132.66 66 132.66Z" fill="#E4E5F7"/>
<mask id="mask0" mask-type="alpha" maskUnits="userSpaceOnUse" x="2" y="5" width="127" height="127">
<path fill-rule="evenodd" clip-rule="evenodd" d="M2.50763 68.895C2.50763 103.685 30.7105 131.888 65.5005 131.888V131.888C100.291 131.888 128.494 103.685 128.494 68.895V68.895C128.494 34.105 100.291 5.9021 65.5005 5.9021V5.9021C30.7105 5.9021 2.50763 34.105 2.50763 68.895" fill="white"/>
</mask>
<g mask="url(#mask0)">
<path fill-rule="evenodd" clip-rule="evenodd" d="M154.326 76.1055C154.326 123.874 115.602 162.598 67.8338 162.598C20.0656 162.598 -18.6584 123.874 -18.6584 76.1055C-18.6584 28.3371 20.0656 -10.3867 67.8338 -10.3867C115.602 -10.3867 154.326 28.3371 154.326 76.1055" fill="#E4E5F7"/>
</g>
<mask id="mask1" mask-type="alpha" maskUnits="userSpaceOnUse" x="2" y="5" width="127" height="127">
<path fill-rule="evenodd" clip-rule="evenodd" d="M2.50763 68.895C2.50763 103.685 30.7105 131.888 65.5005 131.888V131.888C100.291 131.888 128.494 103.685 128.494 68.895V68.895C128.494 34.105 100.291 5.9021 65.5005 5.9021V5.9021C30.7105 5.9021 2.50763 34.105 2.50763 68.895" fill="white"/>
</mask>
<g mask="url(#mask1)">
<path fill-rule="evenodd" clip-rule="evenodd" d="M91.3545 132.313C91.1127 132.319 90.8688 132.326 90.627 132.334C89.959 132.351 89.2912 132.37 88.623 132.389C73.8564 132.799 59.0919 133.21 44.3253 133.619C44.2617 132.907 44.198 132.194 44.1365 131.482C43.933 132.19 43.7294 132.896 43.5258 133.605C38.7966 133.083 34.0673 132.563 29.3381 132.042C30.2076 128.267 31.075 122.356 31.9424 118.581C32.8585 114.276 33.7747 109.973 34.6911 105.67C34.9326 104.947 36.0123 101.991 39.0108 100.545C39.594 100.265 41.7444 99.2276 43.9162 99.9592C44.8748 100.282 44.8873 100.627 45.7483 100.984C47.2498 101.605 52.1913 99.8874 52.1913 99.8874C53.6395 99.3061 55.5057 98.4938 57.6371 97.3974C61.5477 97.1959 65.4583 96.9947 69.3691 96.7932C68.5524 99.8659 67.8632 102.021 67.8632 102.021C67.5281 103.072 67.1718 104.167 66.7986 105.299C66.9895 105.355 67.1869 105.41 67.386 105.458C68.2301 105.67 69.0487 105.791 69.8291 105.846C70.5692 102.981 71.2436 99.8659 71.7187 96.6702C73.2477 96.5917 74.7789 96.5131 76.3102 96.4346C76.8614 96.4051 77.413 96.3776 77.9663 96.35C81.6736 96.157 85.3804 95.9659 89.0876 95.7753C89.4352 101.069 89.7853 106.364 90.135 111.657C90.2434 113.309 90.3516 114.963 90.4616 116.615C90.4701 116.747 90.4786 116.88 90.4871 117.012C90.7757 121.4 91.0662 127.925 91.3545 132.313" fill="#262C7C"/>
<path fill-rule="evenodd" clip-rule="evenodd" d="M71.1037 89.2836C70.5969 91.9557 69.9501 94.6066 69.369 96.7931C68.5525 99.8658 67.8633 102.021 67.8633 102.021C67.5282 103.073 67.1719 104.167 66.7987 105.299C60.7164 103.499 58.038 98.2288 57.6371 97.3975C57.635 97.3932 57.635 97.3909 57.6329 97.3869C58.8926 94.4476 60.1523 91.5082 61.412 88.5689C64.644 88.8064 67.8739 89.0461 71.1037 89.2836" fill="#E4E5F7"/>
<path fill-rule="evenodd" clip-rule="evenodd" d="M59.2291 89.1429C58.6402 93.1776 61.5299 96.8617 65.3184 97.3003C69.2703 97.7577 73.0384 94.5491 73.1311 90.292C68.4971 89.9087 63.8631 89.5259 59.2291 89.1429" fill="#9195CB"/>
<path fill-rule="evenodd" clip-rule="evenodd" d="M97.2968 65.924C97.2968 80.9109 85.1474 93.0603 70.1605 93.0603C55.1738 93.0603 43.0244 80.9109 43.0244 65.924C43.0244 50.9373 55.1738 38.7878 70.1605 38.7878C85.1474 38.7878 97.2968 50.9373 97.2968 65.924" fill="#BEC1E0"/>
<path fill-rule="evenodd" clip-rule="evenodd" d="M78.5305 89.8329C78.3439 92.0045 78.1551 94.1782 77.9664 96.3499C77.7331 99.0411 77.4998 101.732 77.2665 104.423C76.5646 104.756 74.8892 105.486 72.6349 105.766C71.776 105.874 70.8344 105.914 69.8292 105.846C70.5693 102.981 71.2437 99.866 71.7187 96.6701C72.0093 94.7042 72.2256 92.7086 72.3359 90.7172C72.3613 90.2528 72.3868 89.8096 72.4101 89.3812C74.1067 89.5063 75.8032 89.6314 77.4998 89.7565L78.5305 89.8329Z" fill="#FFD6B0"/>
<path fill-rule="evenodd" clip-rule="evenodd" d="M104.702 106.93C104.378 108.116 103.801 109.447 103.012 110.756C102.353 111.452 101.735 111.986 101.322 112.342C101.296 112.363 101.271 112.385 101.246 112.406C101.296 112.612 101.345 112.819 101.396 113.025C99.6805 115.072 97.4431 116.758 94.8961 117.256C93.299 117.57 91.8508 117.362 90.4872 117.012C90.4235 116.995 90.362 116.98 90.3005 116.961C89.6261 116.783 88.9708 116.571 88.3304 116.376C87.9635 116.263 87.6009 116.155 87.2403 116.062C87.234 116.06 87.2297 116.058 87.2255 116.058C85.6328 115.648 84.0953 115.506 82.4878 116.389C80.8103 117.307 81.1645 118.185 77.8031 122.462C74.6178 126.513 73.0272 128.54 70.9489 128.882C66.2918 129.652 61.6602 121.786 61.1766 120.946C63.4119 115.176 65.2696 109.914 66.7987 105.299C66.9895 105.354 67.1868 105.41 67.3861 105.458C68.2302 105.67 69.0488 105.791 69.8292 105.846C70.5693 102.981 71.2437 99.8658 71.7188 96.6701C72.0093 94.7042 72.2256 92.7084 72.3359 90.7172C72.3613 90.2528 72.3868 89.8095 72.4101 89.3812C72.6646 84.671 72.76 82.0307 72.3359 78.4465C71.7887 73.8087 70.8471 71.285 71.0507 69.8281C71.178 69.7157 71.371 69.6521 71.6233 69.6393C76.5625 69.4018 104.371 87.9497 105.09 103.274V103.276C105.148 104.519 105.027 105.74 104.702 106.93" fill="#E4E5F7"/>
<path fill-rule="evenodd" clip-rule="evenodd" d="M53.2552 74.6823C55.9909 84.0493 63.2783 91.499 60.1072 96.7872C59.2973 98.1379 58.2054 98.919 56.2333 99.8665C50.3322 102.702 44.2796 101.987 41.7314 101.655C35.6625 100.863 30.8747 98.589 27.6266 96.5887C22.4618 66.6783 27.5424 41.36 38.594 30.2788C46.6743 22.1766 55.6586 19.6875 55.6586 19.6875C57.7377 19.1115 64.4965 17.8427 72.58 19.19V19.19C79.1288 21.1304 84.4979 25.6569 88.5313 31.1678C89.9982 33.1721 93.7472 38.1473 96.4692 49.0512C101.596 69.5907 98.628 92.0682 94.7656 92.4538C94.284 92.5017 93.509 92.234 92.4073 90.4168C91.5084 78.1724 90.6094 65.928 89.7104 53.6833C88.0717 53.3069 85.6284 52.8155 82.6348 52.4819C77.1701 51.8731 74.0232 52.2448 70.6462 52.1471C67.0999 52.0446 62.0793 51.3864 55.9398 48.8373C50.994 60.705 51.6222 69.0912 53.2552 74.6823" fill="#262C7C"/>
<path d="M71.6541 62.975C70.1796 65.7867 70.2507 69.0002 71.8954 71.2563C73.0495 72.8396 74.6444 73.4921 75.4323 73.7487" stroke="#262C7C" stroke-width="1.4" stroke-linecap="round" stroke-linejoin="round"/>
<path fill-rule="evenodd" clip-rule="evenodd" d="M105.44 131.923C100.745 132.052 96.0499 132.184 91.3544 132.313L90.3004 116.961L90.271 116.611L89.8659 111.528L88.4853 94.2269C91.0832 94.3033 93.8972 94.4159 96.9406 94.5665C98.2767 100.106 99.6147 105.645 100.951 111.184C101.051 111.591 101.148 111.999 101.246 112.406C101.296 112.611 101.345 112.819 101.396 113.025C102.743 118.611 104.092 126.337 105.44 131.923" fill="#E4E5F7"/>
<path fill-rule="evenodd" clip-rule="evenodd" d="M106.231 104.213C106.03 107.034 104.424 109.265 103.012 110.756C102.353 111.452 101.735 111.986 101.322 112.342C101.296 112.364 101.271 112.385 101.246 112.406C98.4781 114.77 94.3278 116.664 90.4617 116.615C90.3981 116.615 90.3345 116.614 90.2709 116.611C89.6113 116.592 88.9603 116.518 88.3304 116.376C87.9614 116.293 87.5966 116.189 87.2403 116.062C87.234 116.06 87.2297 116.058 87.2255 116.058C87.0664 115.998 86.9074 115.937 86.7526 115.869C84.7909 115.025 84.1589 113.871 82.4581 114.028C80.4668 114.213 79.93 115.922 76.6304 118.783C74.0346 121.033 71.8736 122.908 69.7295 122.465C69.2142 122.359 67.3183 121.832 65.8953 118.17C66.8666 115.6 68.4592 111.146 69.8292 105.846C70.5693 102.981 71.2437 99.8659 71.7188 96.6702C72.0093 94.7041 72.2256 92.7085 72.3359 90.7171C72.3613 90.2529 72.3868 89.8095 72.4101 89.3813C72.6646 84.6712 72.76 82.0306 72.3359 78.4466C71.7888 73.8088 70.8472 71.2849 71.0507 69.828C71.091 69.512 71.1886 69.2493 71.354 69.0223C71.3816 69.0838 71.407 69.1453 71.4367 69.2088C71.4664 69.2789 71.4982 69.3489 71.53 69.4229C71.5597 69.4929 71.5915 69.565 71.6233 69.6395C71.7506 69.934 71.8884 70.2521 72.0348 70.6044C72.056 70.6553 72.0772 70.706 72.0984 70.7569C72.1196 70.8078 72.1429 70.8608 72.1641 70.9138C72.2299 71.071 72.2956 71.234 72.3656 71.4037C72.4589 71.6287 72.5543 71.8662 72.6519 72.1163C72.7198 72.2859 72.7876 72.46 72.8597 72.6401C72.9976 72.9902 73.1397 73.3592 73.2881 73.7513C73.3432 73.9019 73.4005 74.0525 73.4599 74.2096C73.4981 74.3135 73.5384 74.4196 73.5765 74.5277C73.7165 74.8989 73.8586 75.291 74.0049 75.7005C76.2041 81.823 77.3026 84.8851 77.4744 87.6847C77.5189 88.414 77.5253 89.1332 77.4956 89.8394C77.4935 89.9219 77.4893 90.0046 77.485 90.0875C77.4829 90.1554 77.4787 90.2211 77.4744 90.289C77.4681 90.399 77.4596 90.5072 77.4511 90.6177C77.432 90.8912 77.4066 91.1648 77.3769 91.4339C77.3769 91.4469 77.3747 91.4575 77.3726 91.4679C77.3429 91.7226 77.3111 91.9771 77.2729 92.2292C77.2496 92.3967 77.2242 92.5643 77.1945 92.7299C77.1775 92.8423 77.1584 92.9524 77.1372 93.0629C77.0927 93.3131 77.0439 93.5612 76.9909 93.8091C76.9633 93.9428 76.9336 94.0764 76.9039 94.21C76.7661 94.8209 76.607 95.4253 76.431 96.0274C76.3928 96.1631 76.3504 96.2991 76.3101 96.4346C76.2698 96.5661 76.2295 96.6978 76.1871 96.8293C76.0663 97.2174 75.9369 97.6031 75.8012 97.9912C75.7481 98.1441 75.693 98.2987 75.6379 98.4537C75.4258 99.041 75.2031 99.6307 74.9698 100.222C74.8447 100.541 74.7175 100.857 74.5881 101.177C74.4524 101.509 74.3145 101.845 74.1767 102.18C74.0473 102.487 73.918 102.795 73.7886 103.104C73.6529 103.429 73.515 103.756 73.3751 104.084C73.0612 104.824 72.7537 105.516 72.4547 106.16C72.338 106.41 72.2235 106.655 72.1111 106.89C72.056 107.009 72.0008 107.127 71.9436 107.244C71.8312 107.475 71.7209 107.7 71.6149 107.919C71.5512 108.05 71.4876 108.179 71.424 108.307C71.3286 108.495 71.2374 108.678 71.1483 108.856C71.125 108.902 71.1038 108.947 71.0804 108.991C70.9532 109.24 70.8323 109.477 70.7178 109.704C70.5778 109.982 70.4442 110.245 70.3191 110.493C70.2427 110.646 70.1685 110.792 70.0985 110.934C70.0858 110.96 70.0731 110.987 70.0604 111.013C70.0201 111.095 69.9798 111.176 69.9437 111.254C69.8292 111.494 69.7253 111.714 69.6362 111.922C69.6129 111.971 69.5938 112.018 69.5747 112.065C69.5005 112.241 69.439 112.404 69.386 112.554C69.3733 112.59 69.3626 112.624 69.352 112.658C69.3393 112.696 69.3287 112.733 69.3202 112.766C69.3054 112.815 69.2927 112.862 69.2821 112.906C69.2693 112.953 69.2609 112.998 69.2524 113.04C69.2439 113.074 69.2396 113.106 69.2354 113.135C69.2269 113.182 69.2206 113.229 69.2184 113.273C69.2142 113.318 69.2121 113.36 69.2121 113.403C69.2121 113.655 69.2821 113.858 69.4326 114.018C70.7899 115.451 75.4343 109.997 82.9925 109.918C83.2343 109.916 83.4718 109.918 83.703 109.929C83.792 109.931 83.8811 109.935 83.9681 109.939C84.4516 109.965 84.9118 110.014 85.3529 110.082C85.4377 110.094 85.5226 110.107 85.6053 110.122C85.6774 110.135 85.7474 110.147 85.8195 110.16C85.9128 110.177 86.0082 110.196 86.0994 110.215C86.18 110.232 86.2606 110.249 86.339 110.268C86.3942 110.279 86.4472 110.291 86.5002 110.306C87.1682 110.463 87.7854 110.663 88.3686 110.885C88.4746 110.926 88.5785 110.968 88.6824 111.008C88.973 111.125 89.2529 111.246 89.5244 111.371C89.6134 111.411 89.7004 111.452 89.7852 111.49C89.8128 111.505 89.8404 111.515 89.8658 111.528C90.2178 111.695 90.5593 111.865 90.8901 112.03C90.9516 112.062 91.0131 112.092 91.0746 112.124C91.4563 112.317 91.8275 112.506 92.1922 112.68C92.294 112.728 92.3958 112.777 92.4976 112.824C92.8475 112.985 93.1911 113.131 93.5368 113.256C93.594 113.277 93.6513 113.299 93.7107 113.318C93.9991 113.417 94.2896 113.502 94.5823 113.564C94.6395 113.576 94.6989 113.589 94.7583 113.6C94.8877 113.625 95.0192 113.646 95.1506 113.661C95.2588 113.674 95.3691 113.685 95.4772 113.691C95.5218 113.695 95.5684 113.698 95.6151 113.699C96.1156 113.721 96.6351 113.674 97.1844 113.545C97.335 113.509 97.4813 113.468 97.6276 113.424C97.6911 113.403 97.757 113.381 97.8206 113.358C97.8885 113.335 97.9561 113.309 98.0221 113.284C98.0921 113.256 98.16 113.229 98.2278 113.199C98.2957 113.171 98.3614 113.142 98.4272 113.11C98.5459 113.055 98.6647 112.995 98.7813 112.932C99.25 112.677 99.689 112.368 100.103 112.013C100.151 111.971 100.2 111.929 100.249 111.884C100.493 111.666 100.726 111.432 100.951 111.184C100.953 111.182 100.955 111.18 100.955 111.178C101.025 111.102 101.095 111.023 101.163 110.942C101.649 110.378 102.094 109.744 102.505 109.066C102.567 108.964 102.628 108.862 102.688 108.758C102.713 108.718 102.736 108.678 102.758 108.637C102.819 108.531 102.879 108.421 102.938 108.313C102.997 108.207 103.055 108.099 103.11 107.993C103.158 107.903 103.205 107.812 103.252 107.719C103.447 107.337 103.631 106.947 103.807 106.551C103.869 106.415 103.928 106.279 103.988 106.141C104.198 105.658 104.395 105.163 104.583 104.667C104.647 104.502 104.709 104.336 104.77 104.171C104.881 103.872 104.987 103.575 105.09 103.276V103.274C105.334 102.574 105.563 101.876 105.78 101.194C106.094 102 106.32 102.941 106.231 104.213" fill="#C50558"/>
<path fill-rule="evenodd" clip-rule="evenodd" d="M110.066 88.2614C110.195 91.6546 105.591 92.6704 104.696 96.5452C104.232 98.5575 105.169 99.6202 105.78 101.194C104.13 106.394 101.818 112.448 97.1844 113.545C92.6079 114.628 90.1245 109.844 82.9926 109.918C75.4343 109.997 70.7899 115.451 69.4326 114.018C68.4868 113.017 70.7284 110.338 73.3751 104.084C75.7206 98.5384 77.8328 93.5441 77.4744 87.6846C77.3026 84.8852 76.2041 81.8231 74.0049 75.7006C72.8279 72.4196 71.9521 70.3816 71.354 69.0222C71.4134 68.9374 71.4855 68.8589 71.5682 68.7847C73.8353 66.7424 81.1263 71.1344 85.372 73.692C93.4901 78.5824 97.655 81.8398 97.655 81.8398C98.5714 82.5569 100.313 83.9523 103.01 84.8873C105.445 85.7335 107.64 85.8501 109.145 85.8079C109.508 86.3061 110.023 87.1694 110.066 88.2614" fill="#EB0065"/>
<path fill-rule="evenodd" clip-rule="evenodd" d="M75.2169 70.8393C74.7931 71.4261 81.8096 76.3074 90.8286 85.6136C96.151 91.1052 100.101 96.0017 102.633 99.3215C102.582 98.2552 102.531 97.1891 102.48 96.123C103.166 95.1331 103.851 94.1431 104.537 93.153C101.638 89.8949 97.1918 85.3143 91.1333 80.5872C83.5806 74.6944 75.6525 70.236 75.2169 70.8393" fill="#FD99C4"/>
<path fill-rule="evenodd" clip-rule="evenodd" d="M79.6317 81.7062C80.238 82.4722 81.0899 83.674 81.8275 85.279C82.2393 86.175 83.7518 89.6693 83.1069 97.8767C82.8861 100.688 82.3704 104.584 81.0807 109.146C81.4383 108.838 82.5313 107.978 84.127 107.927C86.7028 107.846 88.2566 109.946 88.3917 110.136C87.8902 105.051 87.1159 99.4375 85.9344 93.5203C85.2552 90.1193 84.3825 86.3228 81.2708 83.1476C80.6282 82.4919 80.0369 82.0124 79.6317 81.7062" fill="#FD99C4"/>
<path d="M59.0703 64.7396C59.5419 64.3371 60.4345 63.6837 61.7292 63.3318C63.3484 62.8918 64.7061 63.1654 65.3264 63.3318C64.7483 62.7656 63.6616 61.8543 62.042 61.2985C60.9199 60.9138 59.923 60.8302 59.2268 60.8296" stroke="#262C7C" stroke-width="1.4" stroke-linecap="round" stroke-linejoin="round"/>
<path d="M83.4693 59.8909C82.6078 60.1732 81.7205 60.4849 80.8105 60.8296C79.4787 61.3339 78.2268 61.8602 77.0568 62.3936C78.104 62.5353 79.3947 62.8059 80.8105 63.332C81.8488 63.7178 82.7368 64.1599 83.4693 64.5832" stroke="#262C7C" stroke-width="1.4" stroke-linecap="round" stroke-linejoin="round"/>
<path fill-rule="evenodd" clip-rule="evenodd" d="M70.9722 80.2006C70.0539 80.7138 68.9978 81.0043 67.8717 81.0043C65.4647 81.0043 63.3694 79.6704 62.2878 77.7023C63.6239 77.1043 65.3989 77.0089 67.1804 77.5603C68.843 78.0754 70.1812 79.0554 70.9722 80.2006" fill="#E4E5F7"/>
<path fill-rule="evenodd" clip-rule="evenodd" d="M71.6169 83.4813C70.9065 85.7696 67.7699 86.832 64.6101 85.8525C61.4502 84.8727 59.4631 82.2218 60.1735 79.9312C60.4831 78.9324 61.2551 78.1668 62.2879 77.7023C63.3694 79.6704 65.4647 81.0043 67.8717 81.0043C68.9978 81.0043 70.054 80.7138 70.9722 80.2005C71.6848 81.2314 71.9541 82.3955 71.6169 83.4813" fill="#131856"/>
<path d="M57.6574 57.6756C58.4688 57.5077 60.2625 57.2507 62.3589 57.9405C64.6505 58.6947 66.0033 60.1522 66.5305 60.7878" stroke="#262C7C" stroke-width="1.4" stroke-linecap="round" stroke-linejoin="round"/>
<path d="M75.5361 59.5296C76.1972 58.9515 77.3676 58.0799 79.0455 57.5431C81.2587 56.835 83.1608 57.0914 84.0782 57.2782" stroke="#262C7C" stroke-width="1.4" stroke-linecap="round" stroke-linejoin="round"/>
<path fill-rule="evenodd" clip-rule="evenodd" d="M37.8788 58.8609C37.1087 56.7994 35.1702 50.7933 37.127 43.4503C39.124 35.9567 43.9519 31.6718 45.6468 30.2948C43.6821 33.313 41.1538 37.9358 39.5075 44.014C37.8735 50.0468 37.714 55.2767 37.8788 58.8609" fill="#8591FF"/>
<path fill-rule="evenodd" clip-rule="evenodd" d="M53.7447 39.7414C53.0416 37.8416 52.3482 35.4652 51.939 32.6817C51.3377 28.5906 51.5639 25.0725 51.939 22.5024C52.3493 22.7489 52.7598 22.9951 53.1701 23.2413C53.1217 25.3523 53.1181 27.5432 53.1701 29.8085C53.2502 33.2997 53.4546 36.6165 53.7447 39.7414" fill="#8591FF"/>
<path fill-rule="evenodd" clip-rule="evenodd" d="M90.6263 132.334C89.9584 132.351 89.2905 132.37 88.6226 132.389C88.1137 130.445 87.6473 126.199 87.2614 123.936C86.8225 121.364 86.5511 118.95 86.3942 116.734C86.8903 120.88 87.9611 123.972 88.9089 126.106C89.511 127.463 90.304 131.115 90.6263 132.334" fill="#6468A1"/>
<path fill-rule="evenodd" clip-rule="evenodd" d="M47.5704 116.781C46.8997 118.96 46.2424 121.199 45.6034 123.498C44.8483 126.213 44.1577 131.009 43.5259 133.605C43.7294 132.897 43.933 132.189 44.1365 131.482C44.1995 132.194 44.2623 132.907 44.3252 133.619C45.7626 133.582 47.2 133.545 48.6373 133.507C48.7277 131.311 48.7158 126.714 48.5201 124.04C48.3246 121.37 47.9788 118.939 47.5704 116.781" fill="#6468A1"/>
<path fill-rule="evenodd" clip-rule="evenodd" d="M72.4101 89.3812C72.3868 89.8096 72.3613 90.2528 72.3359 90.7173C72.2256 92.7084 72.0093 94.7042 71.7188 96.6701C71.2437 99.8658 70.5693 102.981 69.8292 105.846C69.0488 105.791 68.2302 105.67 67.3861 105.458C67.1868 105.41 66.9895 105.354 66.7987 105.299C67.1719 104.167 67.5282 103.073 67.8633 102.021C67.8633 102.021 68.5525 99.8658 69.369 96.7931C69.9501 94.6067 70.5969 91.9558 71.1037 89.2836C71.9351 84.9107 72.3995 80.4826 71.6106 77.9463C71.53 77.6854 71.0698 76.2813 70.8683 74.3347C70.6923 72.6211 70.459 70.3604 71.0507 69.8281C70.8471 71.2851 71.7887 73.8087 72.3359 78.4465C72.76 82.0308 72.6646 84.6711 72.4101 89.3812" fill="#E4E5F7"/>
</g>
</svg>
