<svg width="119" height="121" viewBox="0 0 119 121" fill="none" xmlns="http://www.w3.org/2000/svg">
<path fill-rule="evenodd" clip-rule="evenodd" d="M60.4894 120.638C91.6876 120.638 116.979 95.3471 116.979 64.1489C116.979 32.9507 91.6876 7.65955 60.4894 7.65955C29.2911 7.65955 4 32.9507 4 64.1489C4 95.3471 29.2911 120.638 60.4894 120.638Z" fill="#E4E5F7"/>
<mask id="mask0" mask-type="alpha" maskUnits="userSpaceOnUse" x="0" y="0" width="119" height="120">
<path fill-rule="evenodd" clip-rule="evenodd" d="M0.0632553 60.1002C0.0632553 93.1774 26.6543 119.992 59.4561 119.992C92.2576 119.992 118.848 93.1774 118.848 60.1002C118.848 27.023 92.2576 0.208252 59.4561 0.208252C26.6543 0.208252 0.0632553 27.023 0.0632553 60.1002Z" fill="white"/>
</mask>
<g mask="url(#mask0)">
<path fill-rule="evenodd" clip-rule="evenodd" d="M137.9 65.7617C137.9 110.033 102.31 145.922 58.4077 145.922C14.5051 145.922 -21.0849 110.033 -21.0849 65.7617C-21.0849 21.4902 14.5051 -14.3989 58.4077 -14.3989C102.31 -14.3989 137.9 21.4902 137.9 65.7617Z" fill="#E4E5F7"/>
</g>
<mask id="mask1" mask-type="alpha" maskUnits="userSpaceOnUse" x="0" y="0" width="119" height="120">
<path fill-rule="evenodd" clip-rule="evenodd" d="M0.0632553 60.1002C0.0632553 93.1774 26.6543 119.992 59.4561 119.992C92.2576 119.992 118.848 93.1774 118.848 60.1002C118.848 27.023 92.2576 0.208252 59.4561 0.208252C26.6543 0.208252 0.0632553 27.023 0.0632553 60.1002Z" fill="white"/>
</mask>
<g mask="url(#mask1)">
<path fill-rule="evenodd" clip-rule="evenodd" d="M42.3939 73.2552C40.4683 70.1104 31.0499 61.7034 32.0993 49.4914C32.3947 46.0548 33.2997 35.5248 41.3717 27.6529C43.1175 25.9504 47.5392 21.7542 54.5778 20.5702C63.3625 19.0924 73.4035 25.5869 73.4035 25.5869C73.4035 25.5869 75.7211 27.7883 76.2133 28.2433C78.944 30.7656 81.7922 31.5339 83.2381 32.3748C88.9856 35.7179 88.0114 49.1926 87.7335 53.0329C87.0591 62.3637 80.2304 68.4677 77.4957 73.1011C78.7455 69.9727 84.1944 65.0821 83.5188 57.4598C83.143 53.219 82.28 43.4812 75.3705 38.8673C70.363 35.5234 64.7122 36.562 60.1974 37.3918C49.2719 39.3998 41.7761 46.2409 38.0002 50.3768C36.9401 53.3428 39.9429 57.7356 40.427 64.1067C40.712 67.8581 41.5655 70.9662 42.3939 73.2552Z" fill="#262C7C"/>
<path fill-rule="evenodd" clip-rule="evenodd" d="M43.491 35.782C43.3191 35.4956 46.5033 32.4988 51.0383 30.1865C55.1013 28.1148 58.2265 27.624 58.1419 27.0779C58.065 26.5816 55.3933 26.3992 52.8143 26.9223C49.2007 27.6552 47.0599 29.5108 46.8949 29.2536C46.7257 28.9906 48.7336 26.678 51.7783 25.2126C54.8757 23.7217 57.6959 23.7572 60.0655 23.8137C62.3493 23.8682 65.9393 24.2468 70.1288 25.9897C67.9363 26.1948 64.7189 26.6357 60.9537 27.6994C50.4759 30.6598 43.7354 36.1888 43.491 35.782Z" fill="#5C6CFF"/>
<path fill-rule="evenodd" clip-rule="evenodd" d="M68.7731 84.2573C67.1146 85.3839 64.9666 86.6355 62.3393 87.7131C59.2777 88.9685 56.4918 89.6011 54.3025 89.9349L54.8472 79.4594H68.3835L68.7731 84.2573Z" fill="#9195CB"/>
<path fill-rule="evenodd" clip-rule="evenodd" d="M69.6005 94.4549H54.0679L54.3024 89.9348C56.4918 89.601 59.2776 88.9684 62.3392 87.7134C64.9668 86.6354 67.1148 85.3839 68.773 84.2573L69.6005 94.4549Z" fill="#E4E5F7"/>
<path fill-rule="evenodd" clip-rule="evenodd" d="M37.4183 63.1529C34.5322 62.3496 32.4119 59.6828 32.4119 56.5156C32.4119 53.1015 34.8771 50.2678 38.1077 49.7252" fill="#9195CB"/>
<path fill-rule="evenodd" clip-rule="evenodd" d="M84.7608 59.5508C87.2743 58.5358 89.05 56.0531 89.05 53.1571C89.05 49.3535 85.9919 46.2693 82.22 46.2693C82.1544 46.2693 82.0923 46.2693 82.0267 46.2763" fill="#9195CB"/>
<path fill-rule="evenodd" clip-rule="evenodd" d="M84.8332 57.6414C84.8332 71.0185 74.0793 81.8628 60.8137 81.8628C47.5481 81.8628 36.7942 71.0185 36.7942 57.6414C36.7942 44.2643 47.5481 33.42 60.8137 33.42C74.0793 33.42 84.8332 44.2643 84.8332 57.6414Z" fill="#BEC1E0"/>
<path d="M58.0661 48.7881C55.6563 55.0523 55.3322 60.3949 57.2331 62.0589C58.4207 63.0987 59.7321 63.235 59.7321 63.235C61.1962 63.3873 62.3298 62.6755 62.7304 62.395" stroke="#262C7C" stroke-width="1.4" stroke-linecap="round"/>
<path fill-rule="evenodd" clip-rule="evenodd" d="M106.872 122.426C78.4765 122.381 50.2365 122.426 21.8512 122.426C23.1683 111.429 27.902 105.692 30.2881 103.282C33.1707 100.372 36.2806 98.6234 41.9695 95.4285C45.8312 93.2589 49.3515 91.569 52.2993 90.2758C54.4543 92.8345 57.6711 94.4548 61.2636 94.4548C65.084 94.4548 68.4802 92.6225 70.6352 89.7786C73.6174 90.314 78.3445 91.3919 83.83 93.6274C90.6396 96.4054 95.263 98.2899 99.4075 102.793C104.538 108.359 106.276 117.823 106.872 122.426Z" fill="#262C7C"/>
<path d="M52.3546 97.3919C53.9811 98.249 57.7388 99.9471 62.7388 99.6824C68.2954 99.3882 72.145 96.8405 73.6097 95.7556" stroke="#1B1464" stroke-width="8" stroke-linecap="round"/>
<path fill-rule="evenodd" clip-rule="evenodd" d="M70.4264 74.6709C69.7575 75.4045 68.999 76.0581 68.168 76.6075C66.113 75.0708 63.5686 74.1597 60.8137 74.1597C58.3759 74.1597 56.1074 74.8724 54.1939 76.0998C53.6388 75.6652 53.1215 75.1887 52.6492 74.6709C51.9216 73.8745 51.9216 72.6402 52.6457 71.8442C53.1009 71.347 53.594 70.8879 54.1249 70.4709C55.8868 71.4477 57.9106 72.0041 60.0656 72.0041C62.8549 72.0041 65.4304 71.0688 67.4991 69.494C68.5955 70.1196 69.5816 70.9159 70.4299 71.8442C71.154 72.6402 71.154 73.8745 70.4264 74.6709Z" fill="#262C7C"/>
<path fill-rule="evenodd" clip-rule="evenodd" d="M68.1681 76.6074C66.2681 77.873 63.9892 78.6067 61.5379 78.6067C58.7726 78.6067 56.2282 77.6714 54.194 76.0998C56.1075 74.8724 58.376 74.1597 60.8138 74.1597C63.5687 74.1597 66.113 75.0707 68.1681 76.6074Z" fill="white"/>
<path fill-rule="evenodd" clip-rule="evenodd" d="M60.0656 72.0041C57.9106 72.0041 55.8867 71.4478 54.1248 70.4706C56.1695 68.8646 58.7416 67.9049 61.5378 67.9049C63.7064 67.9049 65.7406 68.4822 67.4991 69.4937C65.4304 71.0689 62.8549 72.0041 60.0656 72.0041Z" fill="white"/>
<path d="M42.622 47.234C43.0064 46.6439 44.6412 44.2798 47.8663 43.3879C51.0776 42.5002 53.6702 43.6792 54.3024 43.9888" stroke="#262C7C" stroke-width="1.4" stroke-linecap="round"/>
<path d="M64.9173 44.8141C65.4294 44.3326 67.5734 42.4266 70.9161 42.331C74.2446 42.2358 76.486 44.0011 77.0275 44.4532" stroke="#262C7C" stroke-width="1.4" stroke-linecap="round"/>
<path fill-rule="evenodd" clip-rule="evenodd" d="M54.9347 46.9047C53.1682 49.6274 49.9234 51.1947 46.5331 50.6392C45.4572 50.463 44.4641 50.0893 43.5812 49.5592C45.3483 46.8336 48.593 45.2666 51.9834 45.8217C53.059 45.998 54.052 46.3717 54.9347 46.9047Z" fill="#E4E5F7"/>
<path fill-rule="evenodd" clip-rule="evenodd" d="M76.851 46.6994C74.7035 49.1836 71.2318 50.3012 67.9067 49.269C66.8516 48.9413 65.9068 48.4269 65.094 47.7713C67.2424 45.2845 70.7142 44.1669 74.0392 45.1992C75.0943 45.5268 76.0391 46.0412 76.851 46.6994Z" fill="#E4E5F7"/>
<path fill-rule="evenodd" clip-rule="evenodd" d="M51.3082 48.7881C51.3082 49.668 50.6008 50.3813 49.7283 50.3813C48.8557 50.3813 48.1483 49.668 48.1483 48.7881C48.1483 47.9082 48.8557 47.1949 49.7283 47.1949C50.6008 47.1949 51.3082 47.9082 51.3082 48.7881Z" fill="#262C7C"/>
<path fill-rule="evenodd" clip-rule="evenodd" d="M70.9725 47.8625C70.9725 48.7424 70.2651 49.4557 69.3926 49.4557C68.52 49.4557 67.8126 48.7424 67.8126 47.8625C67.8126 46.9826 68.52 46.2693 69.3926 46.2693C70.2651 46.2693 70.9725 46.9826 70.9725 47.8625Z" fill="#262C7C"/>
<path fill-rule="evenodd" clip-rule="evenodd" d="M44.1877 73.7933C44.2876 74.3374 44.374 75.1803 44.1597 76.1482C43.859 77.5063 43.2842 77.6738 43.1337 78.8464C42.9965 79.9159 43.4234 80.1775 43.5035 81.8164C43.5511 82.7936 43.4347 83.4525 43.3871 83.8824C43.0413 86.9948 44.7717 89.3581 45.5293 94.4027C45.5293 94.4027 45.6714 95.3482 45.8251 97.5359C46.4135 105.899 43.2952 121.187 43.0373 122.433C47.18 123.653 51.3228 124.872 55.4656 126.092C55.4866 122.496 55.5288 117.821 55.6201 111.828C55.6201 111.828 55.7033 106.382 56.5943 99.9294C56.7887 98.5212 56.9473 97.6049 57.3433 96.4658C58.2155 93.9548 59.2167 93.3079 61.7183 89.4286C63.654 86.4265 64.3579 84.7926 64.0269 83.2789C63.9356 82.8609 63.7288 81.9152 63.0108 81.6568C62.4227 81.4448 61.8113 81.8094 61.6229 81.9315C61.9675 81.5741 63.0879 80.3237 62.9513 78.6892C62.9195 78.3102 62.8626 77.6304 62.3756 77.2614C61.7405 76.7799 60.5736 76.9806 59.5257 77.8515C59.6996 77.6365 60.9271 76.0725 60.4133 74.4143C60.3197 74.1117 60.0892 73.3681 59.3868 73.0401C58.879 72.803 58.2609 72.8464 57.6878 73.1319C57.3583 73.2959 57.098 73.5743 56.9357 73.9069C56.1654 75.4859 55.3951 77.0645 54.6248 78.6434C54.251 79.1726 54.0942 79.2472 54.0205 79.2158C53.7126 79.0844 54.2218 76.8385 54.8662 75.0755C55.0843 74.4793 55.2998 73.987 55.5008 73.1319C55.7076 72.2523 55.7564 71.5952 55.7815 71.333C56.0805 68.2256 58.2673 66.5059 57.4782 64.9372C57.2026 64.3893 56.6013 63.9335 56.0296 63.9388C55.3578 63.9443 54.5395 64.5877 53.1604 67.9748C51.5241 71.9945 51.6027 73.7263 50.3396 76.9209C49.8893 78.0594 49.1152 79.7718 47.7984 81.746C47.4183 81.1998 46.9547 80.352 46.9059 79.2819C46.8713 78.5281 47.0766 78.4069 47.1124 77.5238C47.1361 76.9326 47.217 74.9429 45.9999 74.1152C45.7916 73.9736 45.2139 73.6407 44.1877 73.7933Z" fill="#9195CB"/>
<path fill-rule="evenodd" clip-rule="evenodd" d="M52.5156 72.3103C52.7385 72.3965 53.0505 72.4906 53.4323 72.5267C53.7821 72.5596 54.0819 72.5337 54.3058 72.4976" fill="#DD9666"/>
<path fill-rule="evenodd" clip-rule="evenodd" d="M52.2587 73.2803C52.3881 73.3918 52.649 73.5867 53.0331 73.6866C53.4092 73.7842 53.7246 73.744 53.8909 73.7108" fill="#DD9666"/>
<path fill-rule="evenodd" clip-rule="evenodd" d="M54.2565 68.063C54.3989 68.171 54.6551 68.3365 55.0147 68.4239C55.3381 68.5025 55.6128 68.4856 55.7827 68.4617" fill="#DD9666"/>
<path fill-rule="evenodd" clip-rule="evenodd" d="M45.9213 84.4719C46.0036 83.8897 46.1662 83.3133 46.4268 82.7771C46.6855 82.2452 47.0304 81.73 47.5159 81.3508L47.6855 81.5867C47.2167 81.8931 46.8487 82.3481 46.5538 82.8461C46.2587 83.3447 46.051 83.8984 45.9213 84.4719Z" fill="#DD9666"/>
<path d="M57 62L46 73" stroke="#EB0065" stroke-width="2" stroke-linecap="round" stroke-linejoin="round"/>
<path d="M47 62L57 72" stroke="#EB0065" stroke-width="2" stroke-linecap="round" stroke-linejoin="round"/>
</g>
</svg>
