<svg width="108" height="109" viewBox="0 0 108 109" fill="none" xmlns="http://www.w3.org/2000/svg">
<mask id="mask0" mask-type="alpha" maskUnits="userSpaceOnUse" x="0" y="0" width="108" height="109">
<path fill-rule="evenodd" clip-rule="evenodd" d="M0 54.4998C0 84.5996 24.1768 109 53.9997 109V109C83.8232 109 108 84.5996 108 54.4998V54.4998C108 24.4004 83.8232 0 53.9997 0V0C24.1768 0 0 24.4004 0 54.4998" fill="white"/>
</mask>
<g mask="url(#mask0)">
<path fill-rule="evenodd" clip-rule="evenodd" d="M124 52.972C124 91.2292 93.3315 122.243 55.5 122.243C17.6685 122.243 -13 91.2292 -13 52.972C-13 14.7147 17.6685 -16.2991 55.5 -16.2991C93.3315 -16.2991 124 14.7147 124 52.972" fill="#E4E5F7"/>
<path fill-rule="evenodd" clip-rule="evenodd" d="M33.9008 66.215C32.2489 63.5505 24.1694 56.4278 25.0698 46.0812C25.323 43.1697 26.0994 34.2482 33.0241 27.5788C34.5217 26.1363 38.3147 22.5811 44.353 21.5778C51.8888 20.3259 60.5028 25.8285 60.5028 25.8285C60.5028 25.8285 62.491 27.6937 62.9131 28.079C65.2556 30.2158 67.699 30.8668 68.9389 31.5794C73.8696 34.4117 73.034 45.8282 72.7959 49.0817C72.2171 56.9872 66.3592 62.159 64.0131 66.0845C65.0856 63.4339 69.7597 59.2904 69.1803 52.8322C68.8579 49.2396 68.1173 40.9892 62.1899 37.08C57.8943 34.2471 53.0468 35.1269 49.1736 35.8298C39.8013 37.5312 33.3708 43.3273 30.1314 46.8315C29.2222 49.3445 31.7984 53.0661 32.2134 58.4639C32.458 61.6426 33.1904 64.2758 33.9008 66.215" fill="#262C7C"/>
<path fill-rule="evenodd" clip-rule="evenodd" d="M35.0057 34.6175C34.8572 34.3745 37.6061 31.8325 41.5208 29.871C45.028 28.1138 47.7254 27.6974 47.6524 27.234C47.5861 26.8132 45.2798 26.6586 43.0538 27.1022C39.9344 27.7239 38.0865 29.2979 37.9439 29.08C37.7981 28.8567 39.5314 26.8952 42.1595 25.652C44.833 24.3871 47.2676 24.4175 49.3132 24.4653C51.2844 24.5116 54.3833 24.8327 58 26.3112C56.1071 26.4852 53.33 26.8589 50.0796 27.7614C41.035 30.2726 35.2165 34.9626 35.0057 34.6175" fill="#8591FF"/>
<path fill-rule="evenodd" clip-rule="evenodd" d="M56 76.5263C54.6247 77.5122 52.8435 78.6076 50.6648 79.5509C48.1258 80.6494 45.8156 81.2032 44 81.4953L44.4518 72.3271H55.6769L56 76.5263Z" fill="#9195CB"/>
<path fill-rule="evenodd" clip-rule="evenodd" d="M57 85.5701H44L44.1959 81.5064C46.0283 81.2063 48.3603 80.6374 50.9225 79.509C53.1216 78.54 54.9194 77.4146 56.3074 76.4019L57 85.5701Z" fill="#E4E5F7"/>
<path fill-rule="evenodd" clip-rule="evenodd" d="M29.3947 58.0654C26.8614 57.3952 25 55.1697 25 52.5264C25 49.6772 27.164 47.3124 30 46.8598" fill="#9195CB"/>
<path fill-rule="evenodd" clip-rule="evenodd" d="M70.3359 55.0093C72.4833 54.1528 74 52.0583 74 49.6148C74 46.4056 71.3875 43.8037 68.165 43.8037C68.1087 43.8037 68.056 43.8037 68 43.8096" fill="#9195CB"/>
<path fill-rule="evenodd" clip-rule="evenodd" d="M70 53.4813C70 65.0148 60.8219 74.3645 49.5 74.3645C38.1781 74.3645 29 65.0148 29 53.4813C29 41.9478 38.1781 32.5981 49.5 32.5981C60.8219 32.5981 70 41.9478 70 53.4813" fill="#BEC1E0"/>
<path d="M36 41.7491C36.7818 41.7973 38.499 41.8034 40.3637 40.9376C42.5496 39.9223 43.6258 38.3178 44 37.6916" stroke="#262C7C" stroke-width="1.4" stroke-linecap="round"/>
<path d="M54 36.6729C54.5927 37.5401 55.6501 38.8606 57.3104 39.9684C59.192 41.2241 60.9714 41.6219 62 41.7664" stroke="#262C7C" stroke-width="1.4" stroke-linecap="round"/>
<path d="M54 45.8411C54.2954 46.0654 55.0715 46.5949 56.2974 46.7889C57.5943 46.9939 58.6241 46.7015 59 46.5781" stroke="#262C7C" stroke-width="1.4" stroke-linecap="round"/>
<path d="M39 47.7282C39.2906 47.8293 40.1681 48.0823 41.1334 47.5573C42.5168 46.8049 42.942 45.0733 43 44.8224" stroke="#262C7C" stroke-width="1.4" stroke-linecap="round"/>
<path d="M47.3047 45.9044C45.1422 51.4652 44.8513 56.2071 46.5571 57.6842C47.6231 58.6072 48.7998 58.7282 48.7998 58.7282C50.1139 58.8631 51.1312 58.2314 51.4908 57.9826" stroke="#262C7C" stroke-width="1.4" stroke-linecap="round"/>
<mask id="mask1" mask-type="alpha" maskUnits="userSpaceOnUse" x="0" y="0" width="108" height="109">
<path fill-rule="evenodd" clip-rule="evenodd" d="M0.290741 54.5423C0.290741 84.6132 24.3786 108.99 54.0918 108.99V108.99C83.8056 108.99 107.893 84.6132 107.893 54.5423V54.5423C107.893 24.4717 83.8056 0.0947266 54.0918 0.0947266V0.0947266C24.3786 0.0947266 0.290741 24.4717 0.290741 54.5423" fill="white"/>
</mask>
<g mask="url(#mask1)">
<path fill-rule="evenodd" clip-rule="evenodd" d="M88.9746 108.992H16.4054C17.5295 99.5722 21.57 94.6583 23.6064 92.5944C26.0665 90.1017 28.7209 88.6037 33.5765 85.8668C36.8724 84.0085 39.877 82.5611 42.3931 81.4532C44.2323 83.6451 46.9779 85.0329 50.0443 85.0329C53.3049 85.0329 56.2038 83.4635 58.0431 81.0273C60.5883 81.486 64.6228 82.4092 69.3048 84.3241C75.1168 86.7037 79.0631 88.3178 82.6003 92.1745C86.9794 96.9425 88.4655 105.049 88.9746 108.992" fill="#262C7C"/>
</g>
<path d="M42.2686 87.2433C43.6197 87.9068 46.7415 89.2208 50.8953 89.0158C55.5114 88.7879 58.7094 86.8168 59.9262 85.9771" stroke="#1B1464" stroke-width="8" stroke-linecap="round"/>
<path d="M41 66.2149C42.0751 65.5842 45.1513 63.9633 49.3545 64.2012C52.5683 64.383 54.9001 65.5647 56 66.2149" stroke="#262C7C" stroke-width="1.4" stroke-linecap="round"/>
<path fill-rule="evenodd" clip-rule="evenodd" d="M98 58.848C98 61.2323 95.9813 63.1589 93.4998 63.1589C91.0181 63.1589 89 61.2323 89 58.848C89 57.3998 89.7524 56.1175 90.8953 55.3413V34.6355H96.1044V55.3413C97.2476 56.1175 98 57.3998 98 58.848" fill="#FFD8E9"/>
<path fill-rule="evenodd" clip-rule="evenodd" d="M98 58.7239C98 61.1765 95.9816 63.1589 93.5002 63.1589C91.0184 63.1589 89 61.1765 89 58.7239C89 57.2335 89.7524 55.9143 90.8953 55.116V32.5981H96.1047V55.116C97.2476 55.9143 98 57.2335 98 58.7239Z" stroke="#EB0065" stroke-width="1.4" stroke-linecap="round" stroke-linejoin="round"/>
<path d="M91 53.9906H93" stroke="#EB0065" stroke-width="1.4" stroke-linecap="round" stroke-linejoin="round"/>
<path d="M91 45.8411H93" stroke="#EB0065" stroke-width="1.4" stroke-linecap="round" stroke-linejoin="round"/>
<path d="M91.5551 48.4563H93.9232" stroke="#EB0065" stroke-width="1.4" stroke-linecap="round" stroke-linejoin="round"/>
<path d="M91.5551 51.3951H93.9232" stroke="#EB0065" stroke-width="1.4" stroke-linecap="round" stroke-linejoin="round"/>
<path d="M16.3296 15.9335C12.5129 18.489 11.5454 20.7642 11.4086 22.4183C11.3112 23.5962 11.6676 24.069 13.1556 28.3933C15.1021 34.0497 15.0965 34.9959 14.9517 35.7691C14.7364 36.9185 13.97 38.9895 10.6212 41.1094" stroke="#6468A1" stroke-width="1.4" stroke-linecap="round"/>
<path d="M23.8747 11.9474C20.1944 14.5029 19.2611 16.7781 19.1295 18.4321C19.0355 19.61 19.3792 20.0831 20.8141 24.4072C22.6911 30.0635 22.6857 31.0097 22.5461 31.7832C22.3384 32.9326 21.5994 35.0034 18.3702 37.1236" stroke="#6468A1" stroke-width="1.4" stroke-linecap="round"/>
<path d="M80.4264 9.60358C84.1067 12.1331 85.0397 14.3851 85.1716 16.0223C85.2656 17.1882 84.9219 17.6562 83.487 21.9362C81.61 27.5353 81.6151 28.4718 81.755 29.2372C81.9624 30.3749 82.7017 32.4248 85.9309 34.5232" stroke="#6468A1" stroke-width="1.4" stroke-linecap="round"/>
<path d="M73.7496 16.7757C77.5662 19.3052 78.5338 21.5572 78.6705 23.1944C78.768 24.3603 78.4115 24.8283 76.9236 29.1086C74.977 34.7074 74.9823 35.644 75.1274 36.4093C75.3424 37.547 76.1092 39.597 79.4577 41.6953" stroke="#6468A1" stroke-width="1.4" stroke-linecap="round"/>
</g>
</svg>
