<svg width="132" height="132" viewBox="0 0 132 132" fill="none" xmlns="http://www.w3.org/2000/svg">
<path fill-rule="evenodd" clip-rule="evenodd" d="M62.37 131.67C96.816 131.67 124.74 103.746 124.74 69.3C124.74 34.854 96.816 6.92999 62.37 6.92999C27.924 6.92999 0 34.854 0 69.3C0 103.746 27.924 131.67 62.37 131.67Z" fill="#E4E5F7"/>
<path fill-rule="evenodd" clip-rule="evenodd" d="M105.153 80.9311L108.084 80.9417C108.553 80.9437 108.936 81.3267 108.934 81.7929L108.915 86.9187C108.913 87.3849 108.528 87.7648 108.058 87.7633L105.127 87.7522C104.657 87.7507 104.274 87.3677 104.276 86.9015L104.295 81.7757C104.297 81.3095 104.683 80.9296 105.153 80.9311Z" fill="#7171AA"/>
<path fill-rule="evenodd" clip-rule="evenodd" d="M108.202 80.9424L105.034 80.9308C104.63 80.9293 104.297 81.2562 104.296 81.6574L104.293 82.4692C105.429 82.3577 106.571 82.3834 107.712 82.6448C108.341 82.8032 108.256 84.3249 107.665 84.557C106.619 84.9107 105.443 84.6413 104.284 84.6801L104.276 87.0193C104.274 87.4204 104.603 87.7504 105.008 87.7519L108.176 87.7635C108.581 87.765 108.913 87.4381 108.915 87.0369L108.935 81.675C108.936 81.2734 108.607 80.9439 108.202 80.9424Z" fill="#383075"/>
<mask id="mask0" mask-type="alpha" maskUnits="userSpaceOnUse" x="0" y="-1" width="132" height="132">
<path fill-rule="evenodd" clip-rule="evenodd" d="M53.121 1.14637C14.6296 8.34941 -10.9561 52.2473 4.98364 90.924C14.5249 114.076 37.1833 129.282 61.0003 130.379C88.2133 131.632 117.066 115.054 127.505 87.9986C143.593 46.3031 109.826 2.96327 69.4267 0.143815C68.0373 0.04694 66.6413 -0.000488281 65.2448 -0.000488281C61.1813 -0.000488281 57.1067 0.400634 53.121 1.14637Z" fill="white"/>
</mask>
<g mask="url(#mask0)">
<path fill-rule="evenodd" clip-rule="evenodd" d="M107.578 85.1272L105.627 85.1201C105.51 85.1196 105.413 85.4476 105.412 85.8487L105.397 89.6576C105.395 90.0587 105.49 90.3877 105.607 90.3882L107.557 90.3953C107.674 90.3958 107.771 90.0678 107.773 89.6667L107.788 85.8578C107.789 85.4562 107.694 85.1277 107.578 85.1272Z" fill="#7171AA"/>
</g>
<mask id="mask1" mask-type="alpha" maskUnits="userSpaceOnUse" x="0" y="-1" width="132" height="132">
<path fill-rule="evenodd" clip-rule="evenodd" d="M53.121 1.14637C14.6296 8.34941 -10.9561 52.2473 4.98364 90.924C14.5249 114.076 37.1833 129.282 61.0003 130.379C88.2133 131.632 117.066 115.054 127.505 87.9986C143.593 46.3031 109.826 2.96327 69.4267 0.143815C68.0373 0.04694 66.6413 -0.000488281 65.2448 -0.000488281C61.1813 -0.000488281 57.1067 0.400634 53.121 1.14637Z" fill="white"/>
</mask>
<g mask="url(#mask1)">
<path fill-rule="evenodd" clip-rule="evenodd" d="M106.987 85.125L106.217 85.1224C106.172 85.1219 106.132 85.4504 106.131 85.8515L106.116 89.6604C106.115 90.0615 106.151 90.39 106.197 90.3905L106.967 90.393C107.013 90.393 107.052 90.0651 107.054 89.6639L107.068 85.8551C107.07 85.4534 107.033 85.125 106.987 85.125Z" fill="#383075"/>
</g>
<path fill-rule="evenodd" clip-rule="evenodd" d="M109.76 85.1355L103.445 85.1118C103.066 85.1103 102.755 85.4378 102.753 85.8389L102.738 89.6478C102.737 90.0489 103.046 90.3784 103.424 90.3799L109.74 90.4036C110.119 90.4051 110.43 90.0777 110.431 89.6765L110.446 85.8676C110.448 85.4665 110.138 85.1365 109.76 85.1355Z" fill="#383075"/>
<mask id="mask2" mask-type="alpha" maskUnits="userSpaceOnUse" x="0" y="-1" width="132" height="132">
<path fill-rule="evenodd" clip-rule="evenodd" d="M53.121 1.14637C14.6296 8.34941 -10.9561 52.2473 4.98364 90.924C14.5249 114.076 37.1833 129.282 61.0003 130.379C88.2133 131.632 117.066 115.054 127.505 87.9986C143.593 46.3031 109.826 2.96327 69.4267 0.143815C68.0373 0.04694 66.6413 -0.000488281 65.2448 -0.000488281C61.1813 -0.000488281 57.1067 0.400634 53.121 1.14637Z" fill="white"/>
</mask>
<g mask="url(#mask2)">
<path fill-rule="evenodd" clip-rule="evenodd" d="M109.434 85.1343L103.771 85.1131C103.431 85.1116 103.153 85.439 103.151 85.8402L103.136 89.6491C103.134 90.0507 103.411 90.3797 103.75 90.3812L109.414 90.4024C109.753 90.4034 110.032 90.0764 110.034 89.6753L110.049 85.8664C110.05 85.4648 109.774 85.1353 109.434 85.1343Z" fill="#7171AA"/>
<path fill-rule="evenodd" clip-rule="evenodd" d="M116.529 93.1099L108.399 93.4439L108.384 93.0872L96.3937 93.5792C96.1939 94.1554 96.0754 94.7977 96.0378 95.5217C95.8334 99.4875 95.809 103.456 96.1385 107.417C96.2005 108.165 96.2895 108.955 96.746 109.553C97.3276 110.317 98.2304 110.439 99.1247 110.565C100.151 110.71 101.189 110.76 102.224 110.792C103.56 110.833 104.913 110.871 106.269 110.888V110.891C106.348 110.891 106.426 110.89 106.504 110.89C106.583 110.891 106.661 110.892 106.74 110.893V110.889C108.096 110.883 109.449 110.855 110.785 110.824C111.821 110.8 112.859 110.757 113.886 110.621C114.782 110.501 115.685 110.386 116.273 109.627C116.733 109.031 116.829 108.242 116.897 107.494C117.256 103.537 117.262 99.5677 117.088 95.6004C117.046 94.6392 116.858 93.8203 116.529 93.1099Z" fill="#262C7C"/>
<path fill-rule="evenodd" clip-rule="evenodd" d="M109.002 85.1325L104.203 85.1144C103.915 85.1134 103.678 85.4408 103.677 85.8425L103.663 89.6513C103.661 90.0525 103.895 90.3814 104.183 90.3825L108.982 90.4006C109.269 90.4016 109.506 90.0742 109.507 89.673L109.522 85.8642C109.523 85.463 109.289 85.1336 109.002 85.1325Z" fill="#383075"/>
<path fill-rule="evenodd" clip-rule="evenodd" d="M96.2336 108.241C96.3144 108.716 96.4557 109.173 96.746 109.554C97.3276 110.317 98.2305 110.439 99.1247 110.565C100.151 110.71 101.189 110.76 102.224 110.792C103.56 110.833 104.913 110.871 106.269 110.888V110.891C106.348 110.891 106.426 110.89 106.504 110.89C106.583 110.891 106.661 110.892 106.74 110.893V110.89C108.096 110.883 109.449 110.855 110.785 110.824C111.821 110.799 112.859 110.757 113.887 110.62C114.782 110.501 115.685 110.386 116.273 109.627C116.565 109.249 116.71 108.792 116.794 108.319L96.2336 108.241Z" fill="#FAFAFF"/>
<path fill-rule="evenodd" clip-rule="evenodd" d="M108.556 85.1308L104.648 85.1162C104.414 85.1152 104.221 85.4432 104.219 85.8443L104.205 89.6532C104.203 90.0543 104.394 90.3838 104.628 90.3843L108.536 90.3989C108.771 90.3999 108.964 90.072 108.966 89.6708L108.98 85.8619C108.981 85.4608 108.791 85.1319 108.556 85.1308Z" fill="#7171AA"/>
<path fill-rule="evenodd" clip-rule="evenodd" d="M96.7047 109.496C96.7184 109.515 96.7317 109.535 96.7459 109.553C97.328 110.317 98.2304 110.439 99.1246 110.565C100.151 110.71 101.189 110.76 102.224 110.792C103.56 110.833 104.913 110.871 106.269 110.888V110.891C106.348 110.891 106.426 110.89 106.504 110.89C106.583 110.891 106.661 110.892 106.74 110.893V110.889C108.096 110.883 109.449 110.855 110.785 110.824C111.821 110.8 112.858 110.757 113.886 110.621C114.782 110.501 115.685 110.386 116.273 109.627C116.287 109.608 116.3 109.589 116.314 109.57L96.7047 109.496Z" fill="#EB0065"/>
<mask id="mask3" mask-type="alpha" maskUnits="userSpaceOnUse" x="0" y="-1" width="132" height="132">
<path fill-rule="evenodd" clip-rule="evenodd" d="M53.121 1.14637C14.6296 8.34941 -10.9561 52.2473 4.98364 90.924C14.5249 114.076 37.1833 129.282 61.0003 130.379C88.2133 131.632 117.066 115.054 127.505 87.9986C143.593 46.3031 109.826 2.96327 69.4267 0.143815C68.0373 0.04694 66.6413 -0.000488281 65.2448 -0.000488281C61.1813 -0.000488281 57.1067 0.400634 53.121 1.14637Z" fill="white"/>
</mask>
<g mask="url(#mask3)">
<path fill-rule="evenodd" clip-rule="evenodd" d="M108.111 85.1294L105.093 85.1183C104.912 85.1173 104.763 85.4447 104.762 85.8464L104.748 89.6553C104.745 90.0564 104.892 90.3853 105.073 90.3859L108.091 90.3975C108.272 90.398 108.421 90.07 108.423 89.6689L108.437 85.86C108.439 85.4589 108.292 85.1299 108.111 85.1294Z" fill="#383075"/>
</g>
<path fill-rule="evenodd" clip-rule="evenodd" d="M116.866 94.0596C116.678 93.3356 116.375 92.7094 115.956 92.1585L97.1954 92.0883C96.7724 92.6363 96.4643 93.2599 96.2706 93.9824L116.866 94.0596Z" fill="#FAFAFF"/>
<path fill-rule="evenodd" clip-rule="evenodd" d="M113.322 90.0493C112.395 89.5745 111.423 89.2288 110.428 89.0013L102.747 88.9725C101.751 89.1925 100.777 89.5311 99.8452 89.9988C98.3674 90.7415 97.3191 91.6391 96.6989 92.8672L116.447 92.9409C115.836 91.7087 114.795 90.8031 113.322 90.0493Z" fill="#EB0065"/>
<path fill-rule="evenodd" clip-rule="evenodd" d="M112.573 80.0969C112.57 80.0969 112.566 80.0964 112.561 80.0964C112.532 80.0943 112.501 80.0974 112.472 80.0974C112.366 80.0984 112.259 80.0984 112.152 80.0979C111.788 80.0974 111.425 80.0954 111.061 80.0928C110.051 80.0858 109.04 80.0772 108.029 80.0686C107.224 80.0621 106.419 80.054 105.613 80.0515C104.432 80.0479 103.237 80.1786 102.105 80.5237C100.883 80.8956 99.586 81.5722 99.0314 82.7806C98.9694 82.9153 98.918 83.0536 98.8764 83.1959C98.8687 83.2221 98.8764 83.2433 98.8911 83.2584C98.9023 83.272 98.9191 83.2816 98.9424 83.2821C99.3532 83.2836 99.765 83.2852 100.176 83.2867C100.458 83.2877 100.741 83.2887 101.022 83.2897C101.149 83.2902 101.313 83.319 101.437 83.2917C101.491 83.2796 101.517 83.2281 101.536 83.2059C101.599 83.1293 101.671 83.0606 101.746 82.996C102.062 82.7246 102.45 82.5344 102.84 82.3906C103.997 81.9642 105.238 81.9264 106.458 81.9309C107.566 81.935 108.673 81.939 109.781 81.9435C110.156 81.9451 110.533 81.9461 110.909 81.9476C110.999 81.9476 111.032 81.9219 111.103 81.8633C111.369 81.6448 111.659 81.4481 111.968 81.2957C112.165 81.1993 112.375 81.1196 112.594 81.0919C112.631 81.0873 112.663 81.0646 112.663 81.0242C112.664 80.7372 112.665 80.4496 112.666 80.162C112.666 80.1171 112.614 80.0822 112.573 80.0969Z" fill="#7171AA"/>
<path fill-rule="evenodd" clip-rule="evenodd" d="M111.414 80.9387C111.337 80.9866 111.264 81.0366 111.192 81.088C111.123 81.1395 111.055 81.193 110.989 81.2475C110.918 81.306 110.884 81.3317 110.795 81.3317L109.666 81.3272C108.559 81.3231 107.451 81.3191 106.344 81.3151C105.124 81.31 103.882 81.3484 102.725 81.7742C102.335 81.918 101.948 82.1087 101.632 82.3797C101.556 82.4443 101.485 82.5134 101.422 82.5896C101.403 82.6123 101.377 82.6632 101.323 82.6754C101.198 82.7031 101.034 82.6743 100.908 82.6738C100.626 82.6728 100.344 82.6718 100.062 82.6708C99.9403 82.6703 99.8178 82.6698 99.6963 82.6693C99.6556 82.6693 99.615 82.6688 99.5743 82.6688C99.4502 82.6572 99.2865 82.6567 99.1772 82.5477C99.1213 82.7919 98.7924 83.0351 98.9556 83.2531C98.9825 83.3076 99.1467 83.2808 99.2504 83.2828C99.3023 83.2833 99.3531 83.2833 99.405 83.2838L100.177 83.2869C100.458 83.2879 100.741 83.2889 101.022 83.2899C101.149 83.2904 101.313 83.3192 101.437 83.2914C101.491 83.2793 101.517 83.2283 101.536 83.2056C101.599 83.1295 101.671 83.0603 101.746 82.9957C102.062 82.7248 102.45 82.5341 102.84 82.3903C103.997 81.9639 105.239 81.9266 106.458 81.9311C107.566 81.9352 108.673 81.9392 109.78 81.9432C110.156 81.9448 110.533 81.9463 110.909 81.9478C110.999 81.9478 111.032 81.9221 111.103 81.8635C111.369 81.645 111.658 81.4483 111.968 81.2959C112.165 81.1995 112.375 81.1193 112.594 81.0921C112.631 81.087 112.662 81.0648 112.662 81.0239C112.663 80.8246 112.664 80.6248 112.665 80.4255C112.26 80.6233 111.806 80.6728 111.414 80.9387Z" fill="#383075"/>
<path fill-rule="evenodd" clip-rule="evenodd" d="M108.808 100.076L107.995 100.073L107.998 99.2655C108 98.7423 107.57 98.3124 107.042 98.3104L106.81 98.3099C106.283 98.3079 105.85 98.7342 105.848 99.2574L105.845 100.065L105.032 100.062C104.505 100.06 104.072 100.486 104.07 101.01L104.069 101.24C104.067 101.764 104.497 102.193 105.024 102.195L105.837 102.198L105.834 103.005C105.832 103.529 106.261 103.958 106.789 103.96L107.021 103.961C107.548 103.963 107.981 103.537 107.983 103.013L107.986 102.206L108.8 102.209C109.327 102.211 109.76 101.785 109.762 101.262L109.763 101.031C109.765 100.507 109.335 100.078 108.808 100.076Z" fill="#EB0065"/>
<path fill-rule="evenodd" clip-rule="evenodd" d="M98.4533 91.7443C98.4426 91.6 98.6032 91.4587 98.6988 91.3679C99.0979 90.989 99.5707 90.6968 100.066 90.4607C100.533 90.2392 101.116 89.8502 101.66 89.9551C102.304 90.0802 101.853 90.6383 101.554 90.8552C101.091 91.1898 100.565 91.4562 100.015 91.6302C99.648 91.7463 99.2631 91.827 98.8823 91.8855C98.7751 91.9017 98.6139 91.9299 98.5204 91.8583C98.4772 91.8255 98.4568 91.7861 98.4533 91.7443Z" fill="#E4E5F7"/>
<path fill-rule="evenodd" clip-rule="evenodd" d="M102.525 80.9279C102.523 80.9698 102.5 81.0111 102.469 81.0404C102.427 81.0803 102.372 81.103 102.319 81.1257C101.717 81.3795 101.141 81.6872 100.584 82.0258C100.53 82.0581 100.475 82.0919 100.413 82.101C100.34 82.1116 100.291 82.0853 100.267 82.0424C100.241 81.9996 100.239 81.939 100.26 81.88C100.312 81.7286 100.546 81.5636 100.669 81.4683C100.943 81.2538 101.259 81.0949 101.587 80.9819C101.729 80.9334 102.45 80.6665 102.52 80.8845C102.525 80.8986 102.526 80.9132 102.525 80.9279Z" fill="white"/>
<path fill-rule="evenodd" clip-rule="evenodd" d="M65.0378 97.6775C64.078 96.0902 59.6668 89.5289 58.707 87.597C58.315 86.8084 57.7812 85.8255 57.3298 84.8209C56.402 84.6605 55.4645 84.4889 54.521 84.3033C54.0736 84.3588 53.3893 84.4657 52.4732 84.5878L51.0925 82.6221L49.4337 83.3552L50.2811 84.8462C50.5272 85.2856 50.7829 85.7271 51.0457 86.1681C51.1443 86.3321 51.2435 86.495 51.3431 86.659C54.9226 92.5371 59.7481 98.3854 60.679 99.503C60.8264 99.6806 60.9815 99.8522 61.1431 100.016C61.498 100.379 61.8833 100.703 62.2799 100.953C63.0912 101.462 63.9514 101.662 64.7308 101.276C66.0647 100.614 65.9976 99.2649 65.0378 97.6775Z" fill="#E6E7E8"/>
<path fill-rule="evenodd" clip-rule="evenodd" d="M79.0331 89.4226C78.6234 89.1526 77.8832 88.5764 76.933 87.8065C76.5477 87.4972 76.1283 87.1541 75.6839 86.7888C75.1705 86.8034 74.5848 86.7908 73.9153 86.7429C73.4034 86.7081 72.834 86.6672 72.2178 86.6198L67.7558 83.3553H60.6232L64.2617 85.8352C64.7868 86.1858 65.3034 86.5305 65.8067 86.87C70.0521 89.7288 73.5294 92.1739 74.9143 93.2325C77.234 95.0055 79.7128 95.7457 80.8857 94.0534C82.0595 92.3596 81.1927 90.8515 79.0331 89.4226Z" fill="#E6E7E8"/>
<path fill-rule="evenodd" clip-rule="evenodd" d="M86.7908 81.6044C85.0232 80.0518 80.8103 77.2722 76.9329 74.918C75.9639 74.3307 75.0168 73.7686 74.1342 73.2605C73.1007 73.4442 72.0051 73.6379 70.8562 73.8397L68.2838 72.4295L62.2067 73.597L63.9097 75.0214C64.2717 75.3277 64.652 75.6274 65.0444 75.9135C66.5081 76.9942 68.1359 77.9357 69.5965 78.628C72.2751 79.8979 80.6328 83.9854 83.6318 86.0096C86.6312 88.0334 87.2306 87.3195 88.1904 86.5651C89.1502 85.8108 89.9097 84.3426 86.7908 81.6044Z" fill="#E6E7E8"/>
<path fill-rule="evenodd" clip-rule="evenodd" d="M87.477 68.5204C87.1089 68.2792 86.6549 68.0078 86.1333 67.7156C86.236 68.0284 86.3042 68.3948 86.3235 68.8282C86.3672 69.6117 86.2828 70.1819 85.899 70.6224C84.0871 69.9225 75.5123 67.2903 73.6567 66.7423C71.7315 66.1737 64.725 62.8209 62.4927 62.8209C60.2615 62.8209 61.7088 65.3654 62.3123 66.5183C62.9157 67.6712 64.0611 67.9099 65.2075 67.7156C66.3534 67.5219 68.0422 67.2212 69.3391 67.54C70.6364 67.8584 79.9255 70.7536 82.3729 71.8797C85.3194 73.351 87.7469 73.5609 88.843 72.6446C88.9853 72.524 89.1068 72.3843 89.2029 72.2258C90.1622 70.638 89.2573 69.8968 87.477 68.5204Z" fill="#E6E7E8"/>
<path fill-rule="evenodd" clip-rule="evenodd" d="M51.402 53.5858C52.0629 53.3158 52.7761 53.0126 53.5265 52.6887C54.041 51.5726 54.6876 50.8773 55.0201 50.4696C59.2793 49.8344 60.2793 48.9615 61.0789 48.2879C63.6381 47.077 63.9772 46.1834 65.8379 44.2197C67.698 42.2559 67.7967 39.5364 66.7972 38.5444C66.4708 38.2205 66.1012 38.0601 65.727 38.0177C64.9513 37.9238 64.1567 38.3335 63.6986 38.8426C63.0179 39.5954 60.5462 41.1636 58.5996 42.3276C56.653 43.4926 52.5214 44.5497 51.255 44.7752C49.9897 45.0007 49.1631 44.8024 48.1758 45.1198C47.9836 45.1814 47.5988 45.3721 47.0802 45.6516C46.52 46.8646 45.7239 48.185 44.6044 49.6043C43.8429 50.4363 43.0076 51.2789 41.8068 51.9919C41.6945 52.0585 41.6248 52.1775 41.6228 52.3062C41.6116 53.0474 41.5959 53.4268 41.5831 53.617C41.575 53.7285 41.6472 53.8269 41.7555 53.8557C43.1042 54.2159 47.2978 55.1206 51.0964 53.7048C51.1991 53.6665 51.3013 53.6271 51.402 53.5858Z" fill="#E6E7E8"/>
<path fill-rule="evenodd" clip-rule="evenodd" d="M22.4512 60.3652C23.411 60.2598 25.9702 58.7779 27.9295 55.0073C28.6387 53.6435 29.202 52.5385 29.6916 51.647C23.1014 52.1798 14.9567 51.7393 10.8546 50.8407C4.69713 49.491 -14.2344 45.0197 -14.2344 45.0197V56.8247C-14.2344 56.8247 8.96242 61.4768 22.4512 60.3652Z" fill="#6468A1"/>
<path fill-rule="evenodd" clip-rule="evenodd" d="M83.04 64.9119C82.9023 64.9275 82.7711 64.9467 82.645 64.9689C80.0762 65.369 76.8724 65.7499 73.7072 66.0945C71.7444 66.307 69.7978 66.5037 68.0256 66.6834C66.4359 65.9613 64.4924 65.0592 64.0989 64.929C63.4975 64.7307 63.1985 65.1878 63.4782 65.5849C63.5966 65.7514 64.2107 66.3009 65.1111 66.977C62.6973 67.2232 60.9769 67.4119 60.6119 67.5214C59.5194 67.8534 59.4121 67.3625 59.3994 66.926C59.3867 66.4896 59.3389 65.9023 60.0202 65.7227C60.9286 65.3594 63.1406 64.7751 65.6423 63.9401C67.1024 63.4542 68.6606 62.8815 70.1161 62.218C71.3316 61.6479 72.4785 61.1257 73.5583 60.6433C76.8033 62.0036 80.2633 63.548 83.04 64.9119Z" fill="#6468A1"/>
<path fill-rule="evenodd" clip-rule="evenodd" d="M65.8376 43.0223C63.9774 44.986 63.6383 45.8796 61.0791 47.091C60.279 47.7641 59.2795 48.637 55.0203 49.2722C54.6873 49.6799 54.0412 50.3752 53.5262 51.4913C52.7763 51.8152 52.0625 52.1184 51.4017 52.3884C51.301 52.4297 51.1988 52.4691 51.0966 52.5075C47.2975 53.9232 43.1039 53.0186 41.7557 52.6583C41.6469 52.6296 41.5747 52.5312 41.5828 52.4197C41.5955 52.2294 41.6118 51.85 41.6225 51.1088C41.6245 50.9802 41.6947 50.8611 41.8065 50.7945C43.0078 50.0815 43.8426 49.2389 44.6041 48.4069C45.7241 46.9876 46.5202 45.6672 47.0804 44.4542C47.5985 44.1747 47.9838 43.984 48.176 43.9224C49.1628 43.6046 49.9894 43.8034 51.2547 43.5778C52.5216 43.3523 56.6532 42.2952 58.5998 41.1302C60.5464 39.9662 63.0176 38.398 63.6988 37.6453C64.1564 37.1356 64.9515 36.7265 65.7267 36.8203C66.1014 36.8627 66.4705 37.0231 66.7974 37.3471C67.7969 38.339 67.6977 41.0586 65.8376 43.0223Z" fill="#6468A1"/>
<path fill-rule="evenodd" clip-rule="evenodd" d="M58.2397 75.8432C58.4401 76.9941 58.6993 77.49 60.4192 77.768C62.1385 78.0456 65.8171 79.256 67.8969 79.6334C68.115 79.6727 68.3738 79.7136 68.6595 79.7555C66.0901 77.6288 63.7994 75.773 62.7984 75.1287C62.2829 74.7967 61.9133 74.4819 61.654 74.1867C60.8345 74.3164 60.0028 74.4455 59.1599 74.5732C58.7593 74.7316 58.04 74.6923 58.2397 75.8432Z" fill="#E3AE81"/>
<path fill-rule="evenodd" clip-rule="evenodd" d="M56.6605 59.6113C57.1201 59.5715 57.42 59.3929 58.5995 58.9761C58.9843 58.8404 61.0656 58.0588 63.8144 57.0386C62.5877 56.7152 61.3391 56.4503 60.1337 56.199C58.3493 56.967 56.5787 57.8131 56.6605 59.6113Z" fill="#E3AE81"/>
<path fill-rule="evenodd" clip-rule="evenodd" d="M64.7305 100.079C63.9517 100.465 63.091 100.265 62.2801 99.7549C61.8831 99.5057 61.4983 99.1823 61.1429 98.8185C60.9812 98.655 60.8262 98.4834 60.6787 98.3058C59.7479 97.1883 54.9224 91.3399 51.3429 85.4614C51.2438 85.2979 51.1441 85.1344 51.0455 84.9709C50.7827 84.53 50.5274 84.0885 50.2809 83.649C52.3535 83.4376 53.7689 83.1994 54.5213 83.1056C55.4643 83.2918 56.4018 83.4628 57.3296 83.6233C57.781 84.6278 58.3153 85.6107 58.7067 86.3998C59.6666 88.3318 64.0783 94.8925 65.0376 96.4804C65.9974 98.0677 66.0645 99.4169 64.7305 100.079Z" fill="#6468A1"/>
<path fill-rule="evenodd" clip-rule="evenodd" d="M88.1904 85.3679C87.2306 86.1222 86.6312 86.8361 83.6318 84.8124C80.6328 82.7881 72.2751 78.7007 69.5964 77.4307C68.1359 76.7384 66.5081 75.7969 65.0444 74.7162C64.652 74.4301 64.2717 74.1304 63.9097 73.8241C67.7038 73.203 71.1729 72.589 74.1342 72.0632C75.0168 72.5713 75.9639 73.1334 76.9329 73.7207C80.8103 76.075 85.0237 78.8546 86.7908 80.4071C89.9097 83.1453 89.1502 84.6136 88.1904 85.3679Z" fill="#6468A1"/>
<path fill-rule="evenodd" clip-rule="evenodd" d="M89.2027 71.0284C89.1071 71.1868 88.9851 71.3266 88.8427 71.4477C87.7472 72.3635 85.3192 72.1536 82.3726 70.6823C83.7213 70.4648 84.6349 70.2312 85.2393 69.9204C86.191 69.43 86.3862 68.7458 86.3237 67.6312C86.3044 67.1978 86.2358 66.831 86.1336 66.5182C86.6547 66.8103 87.1092 67.0818 87.4767 67.323C89.257 68.6994 90.1625 69.4411 89.2027 71.0284Z" fill="#6468A1"/>
<path fill-rule="evenodd" clip-rule="evenodd" d="M80.8854 92.8558C79.7125 94.5481 77.2337 93.8084 74.9145 92.0354C73.5291 90.9764 70.0518 88.5318 65.8069 85.6725C65.3036 85.3329 64.7865 84.9883 64.2619 84.6376C68.2176 85.1215 71.6212 85.3884 73.915 85.5458C74.5845 85.5933 75.1707 85.6059 75.6841 85.5917C76.1285 85.9565 76.5479 86.2996 76.9332 86.6094C77.8834 87.3794 78.6236 87.9556 79.0328 88.225C81.1924 89.6539 82.0597 91.162 80.8854 92.8558Z" fill="#6468A1"/>
<path fill-rule="evenodd" clip-rule="evenodd" d="M65.8376 43.0223C63.9775 44.986 63.6384 45.8796 61.0792 47.0911C60.279 47.7641 59.2795 48.637 55.0203 49.2723C54.6874 49.6799 54.0412 50.3752 53.5262 51.4913C52.7764 51.8152 52.0626 52.1185 51.4017 52.3884C51.301 52.4298 51.1989 52.4691 51.0967 52.5075C51.5329 51.2087 52.2914 50.0356 53.0382 48.8817C53.3951 48.3323 53.7769 47.7576 54.363 47.4579C54.7245 47.2702 55.1337 47.2051 55.5333 47.1324C57.637 46.7464 59.7386 46.0608 61.4086 44.7338C62.2144 44.094 62.9028 43.319 63.5835 42.5506C64.6953 41.2982 65.863 39.9188 65.9845 38.2533C66.0211 37.7648 65.953 37.2502 65.7268 36.8203C66.1015 36.8627 66.4706 37.0231 66.7974 37.3471C67.7969 38.339 67.6978 41.0586 65.8376 43.0223Z" fill="#9195CB"/>
<path fill-rule="evenodd" clip-rule="evenodd" d="M63.4784 65.585C63.5963 65.7515 64.2105 66.3009 65.1113 66.977C62.6975 67.2233 60.9767 67.412 60.6116 67.5215C59.5196 67.8535 59.4124 67.3625 59.3997 66.9261C59.3864 66.4896 59.3387 65.9023 60.0199 65.7227C60.9284 65.3594 63.1408 64.7752 65.6426 63.9401C66.7122 64.2832 67.765 64.6899 68.8448 65.0118C70.4361 65.4881 72.0735 65.7787 73.707 66.0946C71.7446 66.307 69.798 66.5038 68.0253 66.6834C66.4356 65.9614 64.4921 65.0592 64.0991 64.9291C63.4972 64.7308 63.1983 65.1879 63.4784 65.585Z" fill="#F7E9E0"/>
<path fill-rule="evenodd" clip-rule="evenodd" d="M88.8427 71.4475C87.7472 72.3633 85.3192 72.1539 82.3726 70.6821C83.7213 70.4646 84.6349 70.2315 85.2393 69.9202C86.4401 70.4283 87.6419 70.9379 88.8427 71.4475Z" fill="#F7E9E0"/>
<path fill-rule="evenodd" clip-rule="evenodd" d="M76.933 73.7207L65.0441 74.7162C64.6521 74.4301 64.2719 74.1304 63.9099 73.8241C67.7039 73.203 71.1731 72.589 74.1339 72.0632C75.0165 72.5713 75.9641 73.1334 76.933 73.7207Z" fill="#F7E9E0"/>
<path fill-rule="evenodd" clip-rule="evenodd" d="M76.9331 86.6093L65.8067 85.6729C65.3034 85.3328 64.7864 84.9887 64.2617 84.6375C68.2174 85.1219 71.6215 85.3888 73.9148 85.5457C74.5849 85.5931 75.1705 85.6063 75.684 85.5916C76.1283 85.9569 76.5477 86.2995 76.9331 86.6093Z" fill="#F7E9E0"/>
<path fill-rule="evenodd" clip-rule="evenodd" d="M64.7305 100.079C63.9517 100.465 63.091 100.265 62.2801 99.7549C61.8831 99.5057 61.4983 99.1823 61.1429 98.8185C61.3462 98.8548 61.5491 98.8977 61.7509 98.933C62.426 99.0501 63.2206 99.0405 63.6736 98.5294C64.0783 98.0722 64.0523 97.3785 63.8861 96.7927C63.3869 95.0293 61.9238 93.7305 60.8409 92.2466C59.694 90.6729 58.937 88.8222 57.6031 87.4029C55.9524 85.6486 53.4466 84.7646 51.0455 84.9709C50.7827 84.53 50.5274 84.0885 50.2809 83.649C52.3535 83.4376 53.7689 83.1994 54.5213 83.1056C55.4643 83.2918 56.4018 83.4628 57.3296 83.6233C57.781 84.6278 58.3153 85.6107 58.7067 86.3998C59.6666 88.3318 64.0783 94.8925 65.0376 96.4804C65.9974 98.0677 66.0645 99.4169 64.7305 100.079Z" fill="#6468A1"/>
<path fill-rule="evenodd" clip-rule="evenodd" d="M29.6921 51.6469C29.2026 52.5394 28.6383 53.6439 27.9296 55.0077C25.9703 58.7777 23.4111 60.2591 22.4513 60.3651C8.96299 61.4766 -14.2343 56.8251 -14.2343 56.8251V55.2948C-9.44539 56.1985 9.60914 59.584 21.3318 58.6188C22.2911 58.5128 24.8508 57.0315 26.8101 53.2614C27.0867 52.7311 27.3409 52.2392 27.5762 51.7836C28.2941 51.7488 29.0012 51.7024 29.6921 51.6469Z" fill="#9195CB"/>
<path fill-rule="evenodd" clip-rule="evenodd" d="M18.337 61.9035C18.8718 61.9035 19.3929 61.8601 19.8952 61.7794C19.5485 62.8067 19.3538 63.945 19.3538 65.1448C19.3538 66.4642 19.5886 67.71 20.0035 68.8149C17.427 69.0637 15.4225 70.9764 15.4225 73.3004C15.4225 75.7929 17.729 77.8142 20.5739 77.8142C22.0934 77.8142 23.4584 77.238 24.4015 76.3217C23.9409 77.9313 23.6923 79.6432 23.6923 81.4192C23.6923 90.8216 30.6428 98.444 39.2166 98.444C44.3599 98.444 48.917 95.6987 51.7421 91.4735C53.1106 92.4029 54.6876 92.9342 56.3678 92.9342C61.6092 92.9342 65.8582 87.7792 65.8582 81.4192C65.8582 80.511 65.7687 79.6286 65.605 78.7809C69.6766 77.8566 72.6374 75.0588 72.6374 71.7499C72.6374 69.8962 71.7061 68.2039 70.1728 66.9102C70.187 66.7377 70.1967 66.5641 70.1967 66.388C70.1967 66.054 70.1697 65.7255 70.1179 65.4051C71.2287 64.8461 72.1865 64.0711 72.9241 63.1437C73.7782 63.4142 74.7106 63.5645 75.6882 63.5645C79.769 63.5645 83.077 60.9706 83.077 57.7717C83.077 54.5718 79.769 51.9784 75.6882 51.9784C74.2271 51.9784 72.8672 52.3119 71.7208 52.8851C70.1911 51.6292 68.1576 50.8638 65.9258 50.8638C65.0499 50.8638 64.2049 50.9824 63.4078 51.2019C61.9416 49.1287 59.6977 47.8012 57.1807 47.8012C55.5213 47.8012 53.9789 48.3784 52.7009 49.3658C52.5783 45.515 50.2611 42.4443 47.4193 42.4443C47.0639 42.4443 46.7167 42.4933 46.3812 42.5846C45.2658 39.1102 42.3884 36.6359 39.0133 36.6359C35.7454 36.6359 32.9437 38.9553 31.7562 42.2561C30.8121 42.0543 29.8121 41.9443 28.7766 41.9443C23.011 41.9443 18.337 45.2986 18.337 49.4365C18.337 49.9259 18.4046 50.4037 18.5297 50.8669C18.4656 50.8659 18.4016 50.8638 18.337 50.8638C14.2563 50.8638 10.9482 53.3352 10.9482 56.3837C10.9482 59.4322 14.2563 61.9035 18.337 61.9035Z" fill="#BEC1E0"/>
<path fill-rule="evenodd" clip-rule="evenodd" d="M72.4723 73.0129C71.9894 73.0129 71.5191 73.0497 71.0651 73.1179C71.3783 72.249 71.5537 71.2868 71.5537 70.2727C71.5537 69.1571 71.3417 68.1036 70.9675 67.1696C73.2939 66.9592 75.1042 65.3416 75.1042 63.3774C75.1042 61.2699 73.0214 59.5609 70.452 59.5609C69.0809 59.5609 67.8481 60.0483 66.9966 60.8228C67.4124 59.462 67.6366 58.0145 67.6366 56.5129C67.6366 48.5636 61.3617 42.1194 53.6206 42.1194C48.9766 42.1194 44.8623 44.4404 42.3123 48.0122C41.0759 47.2271 39.6524 46.777 38.1354 46.777C33.4029 46.777 29.5672 51.1359 29.5672 56.5129C29.5672 57.2808 29.6476 58.0271 29.7955 58.7436C26.1189 59.5251 23.4458 61.891 23.4458 64.6877C23.4458 66.2554 24.2872 67.6858 25.6715 68.7797C25.6583 68.9255 25.6497 69.0723 25.6497 69.2212C25.6497 69.5037 25.6741 69.7812 25.7208 70.0522C24.7178 70.5249 23.8531 71.1799 23.1871 71.9639C22.4159 71.7354 21.5745 71.6087 20.692 71.6087C17.0072 71.6087 14.0205 73.8015 14.0205 76.5065C14.0205 79.2114 17.0072 81.4042 20.692 81.4042C22.0107 81.4042 23.2384 81.1221 24.2735 80.6372C25.6547 81.6993 27.491 82.3467 29.5052 82.3467C30.2968 82.3467 31.0598 82.2463 31.7787 82.0611C33.103 83.8139 35.1289 84.9361 37.4013 84.9361C38.9 84.9361 40.292 84.4482 41.4465 83.6126C41.5563 86.8685 43.6493 89.465 46.2151 89.465C46.5354 89.465 46.849 89.4236 47.152 89.3464C48.1591 92.2834 50.7569 94.3758 53.8042 94.3758C56.7548 94.3758 59.2845 92.4146 60.3561 89.6239C61.2092 89.7944 62.1111 89.8873 63.0465 89.8873C68.2518 89.8873 72.4723 87.0517 72.4723 83.5536C72.4723 83.1393 72.4113 82.7352 72.2985 82.3437C72.3559 82.3447 72.4139 82.3467 72.4723 82.3467C76.1565 82.3467 79.1438 80.2573 79.1438 77.68C79.1438 75.1023 76.1565 73.0129 72.4723 73.0129Z" fill="#EAEAF9"/>
<path fill-rule="evenodd" clip-rule="evenodd" d="M57.0194 36.6358C57.0194 38.2463 55.7037 39.5516 54.0815 39.5516C52.4587 39.5516 51.1431 38.2463 51.1431 36.6358C51.1431 35.0253 52.4587 33.72 54.0815 33.72C55.7037 33.72 57.0194 35.0253 57.0194 36.6358Z" fill="#6468A1"/>
<path fill-rule="evenodd" clip-rule="evenodd" d="M54.6384 35.5122C54.8626 35.9396 54.5474 36.5425 53.9343 36.8604C53.3217 37.1777 52.6425 37.0889 52.4183 36.6616C52.1936 36.2347 52.5088 35.6308 53.1219 35.3134C53.735 34.9965 54.4142 35.0853 54.6384 35.5122Z" fill="#9393CC"/>
<path fill-rule="evenodd" clip-rule="evenodd" d="M72.0995 93.809C72.0995 95.2445 70.9272 96.4075 69.4813 96.4075C68.035 96.4075 66.8627 95.2445 66.8627 93.809C66.8627 92.3741 68.035 91.2106 69.4813 91.2106C70.9272 91.2106 72.0995 92.3741 72.0995 93.809Z" fill="#6468A1"/>
<path fill-rule="evenodd" clip-rule="evenodd" d="M69.9776 92.8076C70.1779 93.188 69.8968 93.7259 69.3508 94.0089C68.8038 94.2915 68.1988 94.2128 67.999 93.8318C67.7992 93.4514 68.0799 92.9135 68.6264 92.6305C69.1724 92.3479 69.7773 92.4272 69.9776 92.8076Z" fill="#9393CC"/>
<path fill-rule="evenodd" clip-rule="evenodd" d="M38.0322 89.4701C38.0322 90.9056 36.8593 92.0691 35.414 92.0691C33.9677 92.0691 32.7949 90.9056 32.7949 89.4701C32.7949 88.0351 33.9677 86.8716 35.414 86.8716C36.8593 86.8716 38.0322 88.0351 38.0322 89.4701Z" fill="#6468A1"/>
<path fill-rule="evenodd" clip-rule="evenodd" d="M35.9098 88.4688C36.1101 88.8493 35.8295 89.3871 35.283 89.6702C34.7365 89.9527 34.1315 89.8735 33.9312 89.4931C33.7314 89.1121 34.0126 88.5743 34.5586 88.2917C35.1051 88.0087 35.7095 88.0884 35.9098 88.4688Z" fill="#9393CC"/>
<path fill-rule="evenodd" clip-rule="evenodd" d="M32.0796 46.6803C32.0796 47.7944 31.1701 48.6971 30.0481 48.6971C28.9256 48.6971 28.0161 47.7944 28.0161 46.6803C28.0161 45.5663 28.9256 44.6636 30.0481 44.6636C31.1701 44.6636 32.0796 45.5663 32.0796 46.6803Z" fill="#6468A1"/>
<path fill-rule="evenodd" clip-rule="evenodd" d="M30.4328 45.9033C30.5883 46.1985 30.3703 46.6158 29.9463 46.8352C29.5223 47.0547 29.0525 46.9937 28.8975 46.698C28.7424 46.4028 28.9605 45.9856 29.384 45.7661C29.808 45.5461 30.2777 45.6082 30.4328 45.9033Z" fill="#9393CC"/>
<path fill-rule="evenodd" clip-rule="evenodd" d="M72.5066 41.2473C72.5066 42.3528 71.6037 43.2489 70.4894 43.2489C69.3755 43.2489 68.4721 42.3528 68.4721 41.2473C68.4721 40.1418 69.3755 39.2452 70.4894 39.2452C71.6037 39.2452 72.5066 40.1418 72.5066 41.2473Z" fill="#6468A1"/>
<path fill-rule="evenodd" clip-rule="evenodd" d="M70.8718 40.4759C71.0258 40.7691 70.8098 41.1833 70.3888 41.4013C69.9679 41.6192 69.5017 41.5582 69.3477 41.2645C69.1936 40.9714 69.4097 40.5576 69.8306 40.3392C70.2516 40.1217 70.7177 40.1828 70.8718 40.4759Z" fill="#9393CC"/>
<path fill-rule="evenodd" clip-rule="evenodd" d="M77.6073 61.8161C77.6073 62.4397 77.0979 62.9448 76.47 62.9448C75.8417 62.9448 75.3323 62.4397 75.3323 61.8161C75.3323 61.1929 75.8417 60.6874 76.47 60.6874C77.0979 60.6874 77.6073 61.1929 77.6073 61.8161Z" fill="#6468A1"/>
<path fill-rule="evenodd" clip-rule="evenodd" d="M76.6853 61.3813C76.7723 61.5468 76.6507 61.7804 76.4133 61.903C76.1759 62.0256 75.9126 61.9913 75.8262 61.8263C75.7392 61.6608 75.8612 61.4272 76.0987 61.3046C76.3361 61.1815 76.5984 61.2158 76.6853 61.3813Z" fill="#9393CC"/>
<path fill-rule="evenodd" clip-rule="evenodd" d="M55.2187 44.6637C55.2187 45.2873 54.7093 45.7924 54.0815 45.7924C53.4531 45.7924 52.9437 45.2873 52.9437 44.6637C52.9437 44.0405 53.4531 43.535 54.0815 43.535C54.7093 43.535 55.2187 44.0405 55.2187 44.6637Z" fill="#6468A1"/>
<path fill-rule="evenodd" clip-rule="evenodd" d="M54.2969 44.2288C54.3838 44.3943 54.2623 44.6279 54.0249 44.7505C53.7875 44.8731 53.5241 44.8388 53.4377 44.6738C53.3508 44.5083 53.4728 44.2747 53.7102 44.1521C53.9476 44.029 54.2099 44.0633 54.2969 44.2288Z" fill="#9393CC"/>
<path fill-rule="evenodd" clip-rule="evenodd" d="M37.6996 41.4917C37.6996 42.083 37.2166 42.5624 36.6208 42.5624C36.025 42.5624 35.542 42.083 35.542 41.4917C35.542 40.9003 36.025 40.421 36.6208 40.421C37.2166 40.421 37.6996 40.9003 37.6996 41.4917Z" fill="#6468A1"/>
<path fill-rule="evenodd" clip-rule="evenodd" d="M36.8253 41.079C36.9077 41.236 36.7923 41.4575 36.5665 41.574C36.3418 41.6906 36.0927 41.6578 36.0099 41.5008C35.9275 41.3444 36.0434 41.1229 36.2681 41.0064C36.4938 40.8898 36.7429 40.9221 36.8253 41.079Z" fill="#9393CC"/>
<path fill-rule="evenodd" clip-rule="evenodd" d="M25.4007 49.2591C25.4007 49.8504 24.9177 50.3298 24.3219 50.3298C23.7261 50.3298 23.2431 49.8504 23.2431 49.2591C23.2431 48.6677 23.7261 48.1884 24.3219 48.1884C24.9177 48.1884 25.4007 48.6677 25.4007 49.2591Z" fill="#6468A1"/>
<path fill-rule="evenodd" clip-rule="evenodd" d="M24.5264 48.8464C24.6088 49.0033 24.4934 49.2248 24.2676 49.3414C24.0429 49.4579 23.7938 49.4251 23.711 49.2682C23.6286 49.1113 23.7445 48.8898 23.9692 48.7733C24.1949 48.6572 24.4441 48.6895 24.5264 48.8464Z" fill="#9393CC"/>
<path fill-rule="evenodd" clip-rule="evenodd" d="M41.495 95.6063C41.495 96.7118 40.5921 97.6079 39.4778 97.6079C38.3639 97.6079 37.4605 96.7118 37.4605 95.6063C37.4605 94.5008 38.3639 93.6042 39.4778 93.6042C40.5921 93.6042 41.495 94.5008 41.495 95.6063Z" fill="#6468A1"/>
<path fill-rule="evenodd" clip-rule="evenodd" d="M39.8602 94.8349C40.0147 95.1281 39.7982 95.5423 39.3772 95.7603C38.9563 95.9782 38.4906 95.9172 38.3361 95.6235C38.182 95.3304 38.3986 94.9167 38.819 94.6982C39.24 94.4807 39.7061 94.5418 39.8602 94.8349Z" fill="#9393CC"/>
<path fill-rule="evenodd" clip-rule="evenodd" d="M25.9706 87.2484C25.9706 88.3539 25.0677 89.2505 23.9534 89.2505C22.84 89.2505 21.9366 88.3539 21.9366 87.2484C21.9366 86.1429 22.84 85.2468 23.9534 85.2468C25.0677 85.2468 25.9706 86.1429 25.9706 87.2484Z" fill="#6468A1"/>
<path fill-rule="evenodd" clip-rule="evenodd" d="M24.3358 86.477C24.4903 86.7702 24.2737 87.1844 23.8528 87.4024C23.4324 87.6203 22.9662 87.5593 22.8122 87.2661C22.6576 86.973 22.8742 86.5588 23.2951 86.3408C23.7155 86.1228 24.1817 86.1839 24.3358 86.477Z" fill="#9393CC"/>
<path fill-rule="evenodd" clip-rule="evenodd" d="M87.1696 55.6C86.9714 55.9113 86.6597 56.208 86.191 56.483C84.6989 57.3559 79.393 59.0749 70.1161 63.4151C66.1701 65.2138 61.4599 66.344 60.0202 66.9203C59.339 67.0999 59.3868 67.6872 59.3995 68.1236C59.4091 68.4602 59.4742 68.8285 60.0039 68.8285C60.0055 68.83 60.0055 68.83 60.007 68.8285C60.1656 68.8285 60.3629 68.7952 60.612 68.719C61.706 68.389 74.9945 67.3567 82.6451 66.1664C84.004 65.9283 86.191 65.9601 86.3237 68.8285C86.3588 69.4748 86.3095 69.9748 86.0761 70.378C85.6074 71.1858 84.3995 71.5985 81.6593 71.9875C77.5588 72.5683 69.1339 74.259 59.1916 75.7656C59.1804 75.7671 59.1707 75.7692 59.1595 75.7707C58.9135 75.8686 58.5469 75.8913 58.3471 76.1607C58.339 76.1718 58.3324 76.1829 58.3248 76.194C58.216 76.3655 58.1677 76.6259 58.2399 77.0406C58.3756 77.8277 58.5408 78.3086 59.1834 78.6229C59.1885 78.6265 59.1951 78.6295 59.2012 78.6325C59.4951 78.7723 59.8875 78.8787 60.4203 78.9645C62.1381 79.2435 65.8167 80.4535 67.896 80.8314C69.9753 81.2073 75.5542 81.6836 77.0549 82.4187C78.5536 83.1518 79.0539 83.1715 79.0122 84.6604C78.9934 85.4334 78.7072 86.0414 77.8719 86.4082C77.0976 86.7463 75.8552 86.878 73.9152 86.7432C69.8761 86.4668 62.3984 85.8507 54.5211 84.3032C52.602 84.5414 46.3636 85.7316 35.8072 84.9778C28.7692 84.2235 26.7174 83.1518 21.8644 83.0998C17.0129 83.0459 -14.2346 83.3905 -14.2346 83.3905V58.0224C-14.2346 58.0224 8.96275 62.6739 22.451 61.5624C23.4109 61.4564 25.97 59.975 27.9298 56.205C29.8886 52.435 30.7417 50.6362 31.9684 49.8945C33.1951 49.1533 41.7781 43.4655 43.112 41.64C43.1842 41.5683 43.259 41.4654 43.3388 41.3352C43.9097 40.4084 44.6621 38.1606 45.2711 37.1156C45.4963 36.7286 45.78 36.5011 46.0759 36.4092C46.1862 36.3744 46.2996 36.3583 46.4114 36.3633C46.9188 36.3729 47.4063 36.7523 47.6432 37.381C48.0703 38.5178 49.8023 43.0164 44.6041 49.6044C43.8426 50.4364 43.0078 51.279 41.807 51.992C41.6947 52.0586 41.6245 52.1776 41.6225 52.3063C41.6118 53.0475 41.5956 53.4269 41.5828 53.6171C41.5778 53.6827 41.6001 53.7443 41.6433 53.7887C41.6723 53.8205 41.7104 53.8447 41.7557 53.8553C43.141 54.2251 47.5253 55.1696 51.4022 53.5858C55.4809 51.9188 61.5987 49.0216 65.5971 47.2355C69.5965 45.4499 74.9147 43.5972 77.1007 43.7036C77.3681 43.7162 77.6096 43.7369 77.8287 43.7642C79.4026 43.9544 79.7931 44.5114 79.7931 45.5563C79.7702 45.7486 79.7595 45.9771 79.7163 46.2259C79.7021 46.3167 79.6822 46.4085 79.6573 46.5024C79.6523 46.518 79.6492 46.5327 79.6441 46.5483C79.483 47.1154 79.1007 47.7436 78.0864 48.2547C76.4068 49.1014 71.4755 51.2836 61.3186 56.8796C59.5591 57.6859 57.3731 58.364 56.8022 59.8862C56.7025 60.1481 56.6517 60.4352 56.6593 60.7516C56.6593 60.7672 56.6608 60.7818 56.6608 60.7975V60.8086C56.6852 60.8071 56.7091 60.8035 56.7315 60.8005C57.154 60.75 57.4803 60.5689 58.5998 60.1733C59.7803 59.7561 76.9136 53.268 80.3528 52.435C83.7915 51.6014 86.2307 50.7679 87.3105 53.4663C87.5021 54.1747 87.6063 54.9209 87.1696 55.6Z" fill="#9195CB"/>
<path fill-rule="evenodd" clip-rule="evenodd" d="M87.1696 54.4027C86.9714 54.714 86.6597 55.0107 86.191 55.2857C84.6989 56.1586 79.393 57.8776 70.1161 62.2178C66.1701 64.0165 61.4599 65.1467 60.0202 65.7229C59.339 65.9025 59.3868 66.4898 59.3995 66.9263C59.4091 67.2628 59.4742 67.6312 60.0039 67.6312C60.0055 67.6327 60.0055 67.6327 60.007 67.6312C60.1656 67.6312 60.3629 67.5979 60.612 67.5217C61.706 67.1917 74.9945 66.1594 82.6451 64.9691C84.004 64.731 86.191 64.7628 86.3237 67.6312C86.3588 68.2775 86.3095 68.7775 86.0761 69.1806C85.6074 69.9884 84.3995 70.4012 81.6593 70.7902C77.5588 71.3709 69.1339 73.0617 59.1916 74.5683C59.1804 74.5698 59.1707 74.5718 59.1595 74.5733C58.9135 74.6712 58.5469 74.6939 58.3471 74.9634C58.339 74.9745 58.3324 74.9856 58.3248 74.9967C58.216 75.1682 58.1677 75.4286 58.2399 75.8433C58.3756 76.6304 58.5408 77.1113 59.1834 77.4256C59.1885 77.4291 59.1951 77.4322 59.2012 77.4352C59.4951 77.5749 59.8875 77.6814 60.4203 77.7672C62.1381 78.0462 65.8167 79.2561 67.896 79.634C69.9753 80.0099 75.5542 80.4862 77.0549 81.2214C78.5536 81.9545 79.0539 81.9742 79.0122 83.4631C78.9934 84.2361 78.7072 84.8441 77.8719 85.2109C77.0976 85.5489 75.8552 85.6806 73.9152 85.5459C69.8761 85.2694 62.3984 84.6534 54.5211 83.1059C52.602 83.3435 46.3636 84.5343 35.8072 83.7805C28.7692 83.0262 26.7174 81.9545 21.8644 81.9025C17.0129 81.8485 -14.2346 82.1931 -14.2346 82.1931V56.8251C-14.2346 56.8251 8.96275 61.4766 22.451 60.365C23.4109 60.2591 25.97 58.7777 27.9298 55.0077C29.8886 51.2376 30.7417 49.4389 31.9684 48.6972C33.1951 47.956 41.7781 42.2681 43.112 40.4427C43.1842 40.371 43.259 40.2681 43.3388 40.1379C43.9097 39.211 44.6621 36.9632 45.2711 35.9183C45.4963 35.5313 45.78 35.3037 46.0759 35.2119C46.1862 35.1771 46.2996 35.161 46.4114 35.166C46.9188 35.1756 47.4063 35.555 47.6432 36.1837C48.0703 37.3205 49.8023 41.8191 44.6041 48.4071C43.8426 49.2391 43.0078 50.0817 41.807 50.7946C41.6947 50.8612 41.6245 50.9803 41.6225 51.109C41.6118 51.8502 41.5956 52.2296 41.5828 52.4198C41.5778 52.4854 41.6001 52.5469 41.6433 52.5914C41.6723 52.6231 41.7104 52.6474 41.7557 52.658C43.141 53.0278 47.5253 53.9723 51.4022 52.3885C55.4809 50.7215 61.5987 47.8243 65.5971 46.0382C69.5965 44.2526 74.9147 42.3998 77.1007 42.5063C77.3681 42.5189 77.6096 42.5396 77.8287 42.5668C79.4026 42.7571 79.7931 43.3141 79.7931 44.359C79.7702 44.5513 79.7595 44.7798 79.7163 45.0286C79.7021 45.1194 79.6822 45.2112 79.6573 45.3051C79.6523 45.3207 79.6492 45.3353 79.6441 45.351C79.483 45.9181 79.1007 46.5463 78.0864 47.0574C76.4068 47.904 71.4755 50.0862 61.3186 55.6823C59.5591 56.4885 57.3731 57.1667 56.8022 58.6889C56.7025 58.9508 56.6517 59.2379 56.6593 59.5542C56.6593 59.5699 56.6608 59.5845 56.6608 59.6001V59.6112C56.6852 59.6097 56.7091 59.6062 56.7315 59.6032C57.154 59.5527 57.4803 59.3716 58.5998 58.976C59.7803 58.5587 76.9136 52.0706 80.3528 51.2376C83.7915 50.4041 86.2307 49.5706 87.3105 52.2689C87.5021 52.9773 87.6063 53.7236 87.1696 54.4027Z" fill="#9195CB"/>
<path fill-rule="evenodd" clip-rule="evenodd" d="M46.5813 37.7979C46.5686 38.1027 46.3841 38.3696 46.2071 38.6173C45.868 39.0947 45.5239 39.576 45.1034 39.9852C44.8981 40.184 44.6698 40.3682 44.3993 40.465C44.1309 40.5604 43.8127 40.5538 43.5758 40.3919C43.4782 40.3253 43.4014 40.238 43.3389 40.1381C43.9098 39.2107 44.6622 36.9629 45.2712 35.9185C45.4964 35.531 45.7801 35.3039 46.076 35.2121C46.0806 35.2439 46.0836 35.2772 46.0867 35.3105C46.1446 35.9568 46.2727 36.5946 46.4649 37.2137C46.5239 37.4044 46.591 37.5997 46.5813 37.7979Z" fill="#262C7C"/>
<path fill-rule="evenodd" clip-rule="evenodd" d="M79.7932 44.3589C79.7622 44.6208 79.7515 44.9512 79.6569 45.3049C79.1852 45.6112 78.6605 45.8433 78.1374 46.0577C77.7409 46.2197 77.3377 46.3751 76.9158 46.4528C76.4933 46.529 76.0469 46.5244 75.6474 46.3721C75.0231 46.1339 74.5625 45.5209 74.5071 44.8604C74.4694 44.421 74.6138 43.9588 74.9351 43.6555C75.1512 43.4542 75.4298 43.3336 75.7048 43.2272C76.3972 42.9588 77.111 42.7524 77.8288 42.5667C79.4022 42.7574 79.7932 43.3145 79.7932 44.3589Z" fill="#262C7C"/>
<path fill-rule="evenodd" clip-rule="evenodd" d="M84.3517 50.9001C83.6618 51.277 82.2425 51.7629 81.6222 52.4774C81.0025 53.1918 81.2521 53.7478 81.3726 54.0152C81.4926 54.2837 81.6095 55.0274 82.7956 55.0471C83.9816 55.0672 85.9409 54.482 86.5108 54.0652C86.8204 53.8568 87.0807 52.9441 86.6104 52.0904C86.1412 51.2372 84.8179 50.6983 84.3517 50.9001Z" fill="#262C7C"/>
<path fill-rule="evenodd" clip-rule="evenodd" d="M85.1714 69.2575C85.421 68.5608 85.6909 66.765 84.4617 65.6535C83.5313 65.8124 81.5171 66.2307 80.2431 66.8443C79.9127 67.0027 79.9229 67.6975 79.9529 68.0446C79.9828 68.3917 80.1425 69.2157 81.6524 69.3045C83.1617 69.3943 84.9812 69.5477 85.1714 69.2575Z" fill="#262C7C"/>
<path fill-rule="evenodd" clip-rule="evenodd" d="M77.4335 85.1297C77.8605 84.9052 78.5931 83.7538 77.887 82.2724C77.0741 82.2593 75.3812 82.2593 74.7015 82.3915C74.0213 82.5236 73.6085 82.9414 73.6613 83.6983C73.7152 84.4551 74.1946 84.5081 77.4335 85.1297Z" fill="#262C7C"/>
<path fill-rule="evenodd" clip-rule="evenodd" d="M44.6044 48.4069C43.8428 49.2389 43.0075 50.0815 41.8068 50.7945C41.6944 50.8611 41.6248 50.9801 41.6227 51.1088C41.6115 51.85 41.5958 52.2294 41.5831 52.4201C41.578 52.4852 41.6004 52.5473 41.6436 52.5912C41.1606 52.5569 40.6888 52.347 40.241 52.1436C40.092 52.0755 39.9385 52.0024 39.8363 51.8757C39.6507 51.6421 39.697 51.3086 39.7529 51.0165C39.852 50.4942 39.9674 49.9433 40.3304 49.5563C40.8083 49.0452 41.5846 48.9513 42.1809 48.58C42.6751 48.2717 43.0258 47.7878 43.3614 47.3145C43.8794 46.589 44.3964 45.8639 44.9124 45.1384C45.2983 44.5985 45.6857 44.0541 45.9729 43.4572C46.1605 43.0682 46.3044 42.6585 46.4437 42.2508C46.8514 41.0651 47.2403 39.8567 47.3155 38.6059C47.3877 37.398 47.1391 36.131 46.4116 35.1658C46.919 35.1754 47.4065 35.5548 47.6434 36.1835C48.07 37.3203 49.8025 41.8189 44.6044 48.4069Z" fill="#9195CB"/>
<path fill-rule="evenodd" clip-rule="evenodd" d="M87.1697 54.4027C86.9714 54.714 86.6598 55.0107 86.1911 55.2857C84.699 56.1586 79.393 57.8776 70.1161 62.2178C66.1701 64.0165 61.46 65.1467 60.0202 65.7229C59.339 65.9025 59.3868 66.4899 59.3995 66.9263C59.4092 67.2628 59.4742 67.6312 60.004 67.6312C59.0553 68.0358 58.0416 68.3123 57.0193 68.2346C57.1606 67.3567 57.7422 66.5978 58.4514 66.0529C59.158 65.5085 59.9897 65.1518 60.8118 64.7991C62.0273 64.2784 63.3389 64.1083 64.5677 63.6149C68.5488 62.0099 72.4272 60.1622 76.357 58.4381C79.0316 57.2635 81.7377 56.1424 84.5449 55.3296C85.1494 55.1555 85.7594 54.993 86.3461 54.768C86.6262 54.66 86.9013 54.5394 87.1697 54.4027Z" fill="#9195CB"/>
<path fill-rule="evenodd" clip-rule="evenodd" d="M77.8718 85.2107C77.0981 85.5487 75.8551 85.6804 73.9151 85.5457C69.8761 85.2697 62.3983 84.6537 54.521 83.1057C52.6019 83.3438 46.3636 84.5346 35.8071 83.7803C28.7691 83.0265 26.7173 81.9548 21.8643 81.9023C17.0129 81.8483 -14.2346 82.1929 -14.2346 82.1929V80.261C-14.2346 80.261 14.3469 80.6323 25.1174 80.6848C36.6866 83.7535 53.0813 82.4311 54.641 82.2661C61.7573 84.2646 71.2309 84.7727 77.8718 85.2107Z" fill="#9195CB"/>
<path fill-rule="evenodd" clip-rule="evenodd" d="M84.3418 69.7392C83.5457 69.9819 82.7185 70.1075 81.895 70.2332C77.861 70.8442 73.8265 71.4552 69.7915 72.0667C66.2278 72.6061 62.664 73.1475 59.1023 73.6904C58.4831 73.7842 57.8624 73.8796 57.2595 74.0461C56.6321 74.2192 56.0297 74.4699 55.4644 74.7908C55.3805 74.8377 55.2936 74.9013 55.2219 74.9735C55.1731 74.982 55.1304 75.0007 55.0999 75.0431C55.0841 75.0638 55.0755 75.089 55.0689 75.1147C55.0592 75.1233 55.0485 75.1309 55.0389 75.14C54.7913 75.3812 54.6474 75.7243 54.6489 76.0684C54.6489 76.1445 54.6566 76.2243 54.6825 76.2974C54.7577 76.5018 54.9692 76.6254 55.1721 76.7081C55.378 76.7909 55.5925 76.8494 55.807 76.9079C56.4445 77.0815 57.0856 77.2541 57.7373 77.358C57.8161 77.3958 57.9021 77.4231 57.987 77.4433C58.3835 77.5371 58.8049 77.5321 59.2015 77.4352C59.1949 77.4322 59.1893 77.4291 59.1832 77.4261C59.1837 77.4256 59.1837 77.4261 59.1837 77.4256C58.9427 77.3081 58.7688 77.1668 58.6382 76.9947C58.6367 76.9927 58.6361 76.9912 58.6346 76.9887C58.6148 76.9619 58.595 76.9352 58.5772 76.9069C58.5736 76.9019 58.5716 76.8963 58.568 76.8913C58.5523 76.8661 58.537 76.8403 58.5228 76.8136C58.5177 76.8045 58.5131 76.7949 58.5091 76.7863C58.4969 76.7626 58.4847 76.7389 58.4735 76.7147C58.4674 76.7006 58.4618 76.6859 58.4557 76.6718C58.4465 76.6511 58.4379 76.6309 58.4297 76.6097C58.4221 76.5891 58.4145 76.5679 58.4069 76.5462C58.4018 76.5305 58.3957 76.5154 58.3906 76.4987C58.3815 76.471 58.3728 76.4417 58.3642 76.413C58.3616 76.4024 58.3586 76.3923 58.3555 76.3817C58.3438 76.3418 58.3337 76.301 58.3235 76.2591C58.3235 76.2591 58.323 76.2586 58.323 76.2581C58.2925 76.1304 58.2655 75.9922 58.2396 75.8433C58.1679 75.4286 58.2157 75.1682 58.3245 74.9967C58.3413 74.9699 58.3616 74.9477 58.3825 74.925C58.3942 74.9119 58.4053 74.8978 58.4181 74.8857C58.4338 74.8705 58.4506 74.8579 58.4674 74.8448C58.4831 74.8327 58.4984 74.8201 58.5141 74.8095C58.5304 74.7994 58.5467 74.7908 58.5629 74.7817C58.5823 74.7711 58.6011 74.76 58.6204 74.751C58.6346 74.7444 58.6489 74.7389 58.6626 74.7333C58.6865 74.7232 58.7099 74.7131 58.7338 74.705C58.7404 74.7025 58.746 74.701 58.7521 74.699C58.8944 74.6506 59.0408 74.6203 59.1598 74.5734C59.1705 74.5718 59.1806 74.5698 59.1913 74.5683C69.1342 73.0612 77.558 71.3704 81.6596 70.7902C84.3992 70.4012 85.6071 69.9885 86.0759 69.1807C85.4872 69.3235 84.9229 69.5631 84.3418 69.7392Z" fill="#9195CB"/>
<path fill-rule="evenodd" clip-rule="evenodd" d="M78.8221 45.9051C78.5262 46.1225 78.2395 46.3561 77.9278 46.5479C77.5552 46.7769 77.149 46.945 76.7443 47.1135C74.5176 48.0449 72.3026 49.0025 70.0983 49.9849C69.5142 50.2453 68.929 50.5086 68.382 50.8356C67.9118 51.1166 67.472 51.4441 67.0068 51.7327C66.1416 52.266 65.1991 52.6631 64.2616 53.0551C63.3547 53.4361 62.5677 54.0027 61.6546 54.368C59.977 55.0396 58.4569 56.0441 56.9537 57.0426C56.1123 57.6002 55.273 58.1572 54.4326 58.7142C54.3035 58.8 54.1657 58.9312 54.1352 59.0664C54.1205 59.0977 54.1078 59.13 54.0986 59.1638C54.059 59.3096 54.0859 59.4797 54.1977 59.5811C54.2857 59.6623 54.4123 59.689 54.5323 59.7097C54.7626 59.7491 54.9944 59.7799 55.2262 59.797C55.6985 59.8349 56.1906 59.8238 56.6176 59.6224C56.6324 59.6159 56.6466 59.6083 56.6608 59.6002C56.6608 59.5841 56.6593 59.57 56.6593 59.5543C56.6573 59.4802 56.6593 59.4085 56.6639 59.3379C56.6654 59.3157 56.6685 59.295 56.6705 59.2733C56.6751 59.2233 56.6802 59.1739 56.6878 59.1255C56.6908 59.1048 56.6949 59.0846 56.6985 59.0639C56.7081 59.0134 56.7183 58.964 56.7315 58.9151C56.7351 58.8999 56.7391 58.8848 56.7432 58.8696C56.76 58.8116 56.7783 58.7541 56.7991 58.6986C57.3649 57.1703 59.5566 56.4897 61.3186 55.6824C71.4755 50.0863 76.4068 47.9036 78.0864 47.0575C79.1007 46.5464 79.483 45.9177 79.6441 45.3511C79.3625 45.5226 79.089 45.7083 78.8221 45.9051Z" fill="#9195CB"/>
</g>
</svg>
