<svg width="133" height="133" viewBox="0 0 133 133" fill="none" xmlns="http://www.w3.org/2000/svg">
<path fill-rule="evenodd" clip-rule="evenodd" d="M66.4576 131.485C102.796 131.485 132.255 102.202 132.255 66.0808C132.255 29.9594 102.796 0.677124 66.4576 0.677124C30.1187 0.677124 0.660278 29.9594 0.660278 66.0808C0.660278 102.202 30.1187 131.485 66.4576 131.485Z" fill="#E4E5F7"/>
<mask id="mask0" mask-type="alpha" maskUnits="userSpaceOnUse" x="0" y="0" width="132" height="133">
<path fill-rule="evenodd" clip-rule="evenodd" d="M0.254852 66.5482C0.254852 102.999 29.7189 132.548 66.0645 132.548V132.548C102.41 132.548 131.874 102.999 131.874 66.5482V66.5482C131.874 30.0975 102.41 0.54834 66.0645 0.54834V0.54834C29.7189 0.54834 0.254852 30.0975 0.254852 66.5482V66.5482Z" fill="white"/>
</mask>
<g mask="url(#mask0)">
<path fill-rule="evenodd" clip-rule="evenodd" d="M-5.78104 300.893H140.98V27.6511H-5.78104V300.893Z" fill="#E4E5F7"/>
<path fill-rule="evenodd" clip-rule="evenodd" d="M131.934 38.3177H-0.779602L15.37 -15.4838L19.3336 -28.687L25.2289 -48.3213H110.432L116.014 -25.827L118.522 -15.732L131.934 38.3177Z" fill="#262C7C"/>
<path d="M7.84116 8.90338C11.0898 8.90338 11.0898 10.2924 14.3385 10.2924C17.5871 10.2924 17.5871 8.90338 20.836 8.90338C24.0848 8.90338 24.0848 10.2924 27.3341 10.2924C30.5828 10.2924 30.5828 8.90338 33.8317 8.90338C37.0805 8.90338 37.0805 10.2924 40.3294 10.2924C43.5783 10.2924 43.5783 8.90338 46.8271 8.90338C50.076 8.90338 50.076 10.2924 53.3249 10.2924C56.5739 10.2924 56.5739 8.90338 59.8228 8.90338C63.0719 8.90338 63.0719 10.2924 66.3212 10.2924C69.5696 10.2924 69.5696 8.90338 72.8178 8.90338C76.0667 8.90338 76.0667 10.2924 79.3156 10.2924C82.5644 10.2924 82.5644 8.90338 85.8133 8.90338C89.0626 8.90338 89.0626 10.2924 92.3119 10.2924C95.561 10.2924 95.561 8.90338 98.8105 8.90338C102.06 8.90338 102.06 10.2924 105.309 10.2924C108.559 10.2924 108.559 8.90338 111.808 8.90338C115.058 8.90338 115.058 10.2924 118.308 10.2924C121.558 10.2924 121.558 8.90338 124.807 8.90338" stroke="#6468A1" stroke-width="1.4"/>
<path fill-rule="evenodd" clip-rule="evenodd" d="M113.109 118.803H89.3973V75.5638C89.3973 71.7261 92.4991 68.6152 96.3257 68.6152H113.109V118.803Z" fill="#9195CB"/>
<path d="M3.2189 24.3019C6.70127 24.3019 6.70127 25.6912 10.1836 25.6912C13.666 25.6912 13.666 24.3019 17.1486 24.3019C20.6314 24.3019 20.6314 25.6912 24.1144 25.6912C27.597 25.6912 27.597 24.3019 31.0794 24.3019C34.5622 24.3019 34.5622 25.6912 38.0448 25.6912C41.5274 25.6912 41.5274 24.3019 45.01 24.3019C48.4926 24.3019 48.4926 25.6912 51.9751 25.6912C55.458 25.6912 55.458 24.3019 58.9408 24.3019C62.4236 24.3019 62.4236 25.6912 65.9066 25.6912C69.3894 25.6912 69.3894 24.3019 72.8724 24.3019C76.3548 24.3019 76.3548 25.6912 79.8374 25.6912C83.3198 25.6912 83.3198 24.3019 86.8023 24.3019C90.2854 24.3019 90.2854 25.6912 93.7684 25.6912C97.2512 25.6912 97.2512 24.3019 100.734 24.3019C104.217 24.3019 104.217 25.6912 107.701 25.6912C111.184 25.6912 111.184 24.3019 114.667 24.3019C118.15 24.3019 118.15 25.6912 121.634 25.6912C125.117 25.6912 125.117 24.3019 128.601 24.3019" stroke="#6468A1" stroke-width="1.4"/>
<path fill-rule="evenodd" clip-rule="evenodd" d="M0.0779114 134.219H131.697V33.4899H0.0779114V134.219Z" fill="#E4E5F7"/>
<mask id="mask1" mask-type="alpha" maskUnits="userSpaceOnUse" x="0" y="33" width="132" height="102">
<path fill-rule="evenodd" clip-rule="evenodd" d="M0.0779114 134.219H131.697V33.4899H0.0779114V134.219Z" fill="white"/>
</mask>
<g mask="url(#mask1)">
<path fill-rule="evenodd" clip-rule="evenodd" d="M110.248 34.1068C105.192 39.8776 111.67 52.4863 115.949 60.8197C120.224 69.1431 125.22 75.1176 128.71 78.8069C126.057 82.6208 122.458 88.4143 119.343 95.9893C115.58 105.143 111.773 114.408 115.678 118.407C119.607 122.431 129.292 119.017 131.697 118.115V33.6536C130.484 33.2178 115.575 28.026 110.248 34.1068" fill="#EB0065"/>
<path fill-rule="evenodd" clip-rule="evenodd" d="M118.886 114.536C118.865 112.116 119.135 109.709 119.574 107.339C120.018 104.97 120.645 102.638 121.437 100.372C122.228 98.1066 123.188 95.9085 124.304 93.8095C125.429 91.7165 126.701 89.7132 128.203 87.9067C127.33 90.1372 126.418 92.2996 125.559 94.4798C124.699 96.6576 123.878 98.8414 123.106 101.045C122.334 103.248 121.61 105.472 120.925 107.72C120.231 109.967 119.594 112.24 118.886 114.536" fill="white"/>
<path fill-rule="evenodd" clip-rule="evenodd" d="M122.38 111.063C122.367 109.59 122.534 108.124 122.813 106.683C123.084 105.239 123.481 103.821 123.974 102.441C124.47 101.063 125.066 99.7226 125.769 98.4481C126.468 97.1721 127.264 95.9532 128.203 94.8536C127.657 96.2112 127.088 97.5276 126.548 98.8527C126.015 100.182 125.498 101.508 125.017 102.851C124.533 104.192 124.086 105.546 123.651 106.913C123.221 108.282 122.823 109.665 122.38 111.063" fill="white"/>
<path fill-rule="evenodd" clip-rule="evenodd" d="M124.709 64.7506C123.188 62.9346 121.901 60.9265 120.769 58.8285C119.641 56.7271 118.679 54.5265 117.886 52.2615C117.092 49.9971 116.472 47.6661 116.035 45.3012C115.608 42.9348 115.351 40.5334 115.395 38.1211C116.104 40.4162 116.739 42.6866 117.427 44.9338C118.112 47.1803 118.832 49.4033 119.602 51.6076C120.371 53.8125 121.191 55.9975 122.056 58.1752C122.913 60.3581 123.832 62.5204 124.709 64.7506" fill="white"/>
<path fill-rule="evenodd" clip-rule="evenodd" d="M127.038 58.9616C126.088 57.8563 125.282 56.6342 124.579 55.3553C123.868 54.0791 123.271 52.7375 122.774 51.3597C122.279 49.9809 121.887 48.5632 121.62 47.1218C121.349 45.6829 121.19 44.2206 121.217 42.7523C121.66 44.1492 122.058 45.531 122.484 46.8998C122.918 48.2658 123.363 49.6201 123.846 50.9616C124.326 52.3041 124.843 53.632 125.377 54.9606C125.917 56.2876 126.49 57.604 127.038 58.9616" fill="white"/>
<path fill-rule="evenodd" clip-rule="evenodd" d="M20.3627 34.1068C25.4187 39.8776 18.9401 52.4865 14.6608 60.8197C10.3868 69.1431 5.39016 75.1179 1.89969 78.8072C4.55301 82.6211 8.15281 88.4146 11.267 95.9892C15.03 105.143 18.837 114.408 14.9324 118.406C11.0031 122.43 1.31804 119.017 -1.08688 118.115V33.6535C0.126266 33.2178 15.035 28.026 20.3627 34.1068" fill="#EB0065"/>
<path fill-rule="evenodd" clip-rule="evenodd" d="M11.7246 114.536C11.0159 112.24 10.3795 109.967 9.6855 107.72C8.99997 105.472 8.27663 103.248 7.50446 101.045C6.73229 98.8411 5.91186 96.6576 5.05108 94.4798C4.19283 92.2996 3.28039 90.1372 2.40747 87.9067C3.90919 89.7132 5.18146 91.7165 6.30641 93.8095C7.42233 95.9085 8.38247 98.1063 9.17298 100.372C9.9649 102.638 10.5923 104.97 11.0368 107.339C11.4757 109.709 11.7449 112.116 11.7246 114.536" fill="white"/>
<path fill-rule="evenodd" clip-rule="evenodd" d="M8.23065 112.221C7.78783 110.823 7.38915 109.44 6.95968 108.071C6.52441 106.704 6.07723 105.349 5.59318 104.008C5.11173 102.666 4.59487 101.339 4.06261 100.01C3.52222 98.6853 2.95338 97.369 2.40747 96.0114C3.34596 97.1107 4.14217 98.3296 4.84139 99.6056C5.54468 100.88 6.14053 102.221 6.63591 103.599C7.12955 104.979 7.5262 106.397 7.79741 107.841C8.07588 109.282 8.24343 110.747 8.23065 112.221" fill="white"/>
<path fill-rule="evenodd" clip-rule="evenodd" d="M7.06653 64.7506C7.94344 62.5204 8.8617 60.3581 9.71924 58.1752C10.584 55.9975 11.404 53.8122 12.1739 51.6076C12.9435 49.403 13.6632 47.18 14.3484 44.9338C15.0362 42.6866 15.6714 40.4162 16.3798 38.1211C16.424 40.5334 16.1676 42.9348 15.7405 45.3012C15.3034 47.6661 14.6829 49.9971 13.889 52.2615C13.0959 54.5265 12.1337 56.7271 11.0064 58.8285C9.87421 60.9265 8.58703 62.9346 7.06653 64.7506" fill="white"/>
<path fill-rule="evenodd" clip-rule="evenodd" d="M4.737 60.1194C5.28525 58.7618 5.85849 57.4454 6.39812 56.1186C6.93239 54.7898 7.44941 53.4622 7.92894 52.1194C8.41175 50.7779 8.85678 49.4236 9.29169 48.0575C9.71738 46.6891 10.1154 45.3073 10.5578 43.9101C10.5854 45.3784 10.4263 46.8406 10.1553 48.2799C9.88843 49.7209 9.49606 51.1387 9.00106 52.5175C8.50427 53.8953 7.90723 55.2372 7.19625 56.5131C6.49272 57.792 5.68744 59.0141 4.737 60.1194" fill="white"/>
<path fill-rule="evenodd" clip-rule="evenodd" d="M48.5358 96.0114C46.8924 93.3272 38.8539 86.1517 39.7496 75.729C40.0014 72.7952 40.7741 63.8078 47.6636 57.0889C49.1533 55.6356 52.9275 52.0544 58.9348 51.0435C66.4322 49.7826 75.0022 55.3254 75.0022 55.3254C75.0022 55.3254 76.9801 57.2047 77.4001 57.5929C79.7312 59.7455 82.1618 60.4016 83.3953 61.1193C88.3012 63.9726 87.4699 75.4736 87.2325 78.7514C86.6568 86.7153 80.8288 91.9252 78.4948 95.88C79.5616 93.2099 84.2123 89.0351 83.6356 82.5298C83.3146 78.9104 82.5779 70.599 76.6807 66.6607C72.4068 63.8064 67.584 64.6927 63.7311 65.4012C54.4061 67.1152 48.0087 72.9542 44.7857 76.484C43.8808 79.016 46.4436 82.7649 46.8568 88.203C47.1005 91.4048 47.8285 94.058 48.5358 96.0114" fill="#262C7C"/>
<path fill-rule="evenodd" clip-rule="evenodd" d="M49.0041 64.7321C48.854 64.4833 51.6377 61.8832 55.6028 59.8772C59.155 58.0796 61.887 57.6535 61.8132 57.1796C61.7462 56.7491 59.4105 56.5909 57.1554 57.0446C53.9961 57.6806 52.1246 59.2905 51.9798 59.0679C51.8327 58.8393 53.588 56.8328 56.2497 55.5613C58.9576 54.2677 61.4238 54.2982 63.4952 54.3475C65.4918 54.3948 68.6304 54.7234 72.2938 56.2352C70.3765 56.4136 67.5637 56.7959 64.2715 57.719C55.1111 60.2876 49.2178 65.0853 49.0041 64.7321" fill="#8591FF"/>
<path fill-rule="evenodd" clip-rule="evenodd" d="M71.129 106.043C69.6609 107.038 67.759 108.145 65.4324 109.099C62.7215 110.208 60.2553 110.768 58.3165 111.063L58.7986 101.8H70.7841L71.129 106.043Z" fill="#9195CB"/>
<path fill-rule="evenodd" clip-rule="evenodd" d="M72.2938 114.536H57.1517L57.3801 110.431C59.5147 110.128 62.2306 109.553 65.2154 108.413C67.7765 107.434 69.8705 106.296 71.4869 105.274L72.2938 114.536Z" fill="#E4E5F7"/>
<path fill-rule="evenodd" clip-rule="evenodd" d="M43.7751 87.9067C41.4145 87.2145 39.6802 84.9149 39.6802 82.184C39.6802 79.2397 41.6968 76.7962 44.3393 76.3287" fill="#9195CB"/>
<path fill-rule="evenodd" clip-rule="evenodd" d="M83.8792 84.4333C85.9633 83.5483 87.4358 81.3845 87.4358 78.8593C87.4358 75.5437 84.8998 72.8552 81.7721 72.8552C81.718 72.8552 81.6661 72.8552 81.612 72.8612" fill="#9195CB"/>
<path fill-rule="evenodd" clip-rule="evenodd" d="M83.9415 83.2755C83.9415 94.7854 74.8155 104.116 63.558 104.116C52.3005 104.116 43.1745 94.7854 43.1745 83.2755C43.1745 71.7651 52.3005 62.435 63.558 62.435C74.8155 62.435 83.9415 71.7651 83.9415 83.2755" fill="#BEC1E0"/>
<path d="M50.1631 71.6779C50.9598 71.7325 52.7099 71.7398 54.6103 70.7557C56.8385 69.6017 57.9352 67.778 58.3165 67.0662" stroke="#262C7C" stroke-width="1.4" stroke-linecap="round"/>
<path d="M68.7995 67.0662C69.4034 67.8548 70.4814 69.0554 72.1733 70.0627C74.0908 71.2044 75.9043 71.5658 76.9529 71.6974" stroke="#262C7C" stroke-width="1.4" stroke-linecap="round"/>
<path d="M67.6347 75.1708C67.9784 75.4261 68.8828 76.0276 70.3107 76.248C71.8211 76.481 73.0213 76.1489 73.4586 76.0086" stroke="#262C7C" stroke-width="1.4" stroke-linecap="round"/>
<path d="M52.4927 76.2148C52.8312 76.2914 53.8532 76.4831 54.9776 76.0852C56.589 75.5147 57.0846 74.2026 57.1518 74.0131" stroke="#262C7C" stroke-width="1.4" stroke-linecap="round"/>
<path d="M61.2665 75.1708C59.1801 80.6855 58.8998 85.3881 60.5455 86.853C61.5736 87.7681 62.7084 87.888 62.7084 87.888C63.9768 88.0225 64.9581 87.3957 65.3052 87.1488" stroke="#262C7C" stroke-width="1.4" stroke-linecap="round"/>
<path fill-rule="evenodd" clip-rule="evenodd" d="M103.743 138.85H30.362C31.499 129.49 35.5842 124.608 37.6436 122.557C40.1315 120.08 42.8153 118.591 47.7251 115.872C51.0581 114.025 54.0961 112.587 56.6404 111.486C58.5005 113.664 61.2766 115.043 64.3773 115.043C67.6743 115.043 70.6054 113.484 72.465 111.063C75.039 111.519 79.1188 112.436 83.8532 114.339C89.73 116.704 93.7204 118.307 97.2973 122.14C101.725 126.877 103.228 134.933 103.743 138.85" fill="#262C7C"/>
<path d="M55.987 117.131C57.4132 117.884 60.7079 119.376 65.0917 119.143C69.9636 118.885 73.3388 116.647 74.6234 115.694" stroke="#1B1464" stroke-width="4.593" stroke-linecap="round"/>
<path d="M54.8222 96.0114C55.9073 95.2945 59.0128 93.4525 63.2556 93.7226C66.5003 93.9296 68.8538 95.272 69.9643 96.0114" stroke="#262C7C" stroke-width="1.4" stroke-linecap="round"/>
</g>
</g>
</svg>
