<svg width="108" height="109" viewBox="0 0 108 109" fill="none" xmlns="http://www.w3.org/2000/svg">
<mask id="mask0" mask-type="alpha" maskUnits="userSpaceOnUse" x="0" y="0" width="108" height="109">
<path fill-rule="evenodd" clip-rule="evenodd" d="M0.0106506 54.4853C0.0106506 84.2936 24.1751 108.458 53.9837 108.458C83.7923 108.458 107.957 84.2936 107.957 54.4853C107.957 24.6767 83.7923 0.511902 53.9837 0.511902C24.1751 0.511902 0.0106506 24.6767 0.0106506 54.4853Z" fill="white"/>
</mask>
<g mask="url(#mask0)">
<path fill-rule="evenodd" clip-rule="evenodd" d="M123.058 58.4221C123.058 96.5706 92.1323 127.496 53.9838 127.496C15.8352 127.496 -15.0904 96.5706 -15.0904 58.4221C-15.0904 20.2735 15.8352 -10.6521 53.9838 -10.6521C92.1323 -10.6521 123.058 20.2735 123.058 58.4221Z" fill="#E4E5F7"/>
<path fill-rule="evenodd" clip-rule="evenodd" d="M35.7736 59.2889C33.8615 56.1919 24.5084 47.9131 25.5508 35.8873C25.8441 32.5029 26.7427 22.1334 34.7586 14.3814C36.4923 12.7048 40.8833 8.57244 47.8728 7.40634C56.5962 5.95115 66.5675 12.3471 66.5675 12.3471C66.5675 12.3471 68.8689 14.5148 69.3577 14.9625C72.0695 17.4465 74.8977 18.2034 76.3333 19.0313C82.041 22.3234 81.0735 35.5932 80.798 39.3746C80.1278 48.5632 73.3469 54.5742 70.6309 59.1369C71.8725 56.0563 77.2834 51.2401 76.6124 43.734C76.2389 39.5578 75.382 29.9686 68.5206 25.4249C63.5479 22.1316 57.9366 23.1545 53.453 23.9718C42.6036 25.9492 35.1602 32.686 31.4101 36.759C30.3576 39.68 33.3396 44.0056 33.8204 50.2797C34.1035 53.9742 34.951 57.0349 35.7736 59.2889Z" fill="#262C7C"/>
</g>
<mask id="mask1" mask-type="alpha" maskUnits="userSpaceOnUse" x="0" y="0" width="108" height="109">
<path fill-rule="evenodd" clip-rule="evenodd" d="M0.0106506 54.4853C0.0106506 84.2936 24.1751 108.458 53.9837 108.458C83.7923 108.458 107.957 84.2936 107.957 54.4853C107.957 24.6767 83.7923 0.511902 53.9837 0.511902C24.1751 0.511902 0.0106506 24.6767 0.0106506 54.4853Z" fill="white"/>
</mask>
<g mask="url(#mask1)">
<path fill-rule="evenodd" clip-rule="evenodd" d="M36.8631 22.3864C36.6923 22.1045 39.8542 19.1533 44.358 16.8761C48.3927 14.8362 51.4957 14.3527 51.412 13.8148C51.3354 13.3263 48.6824 13.1467 46.1215 13.6618C42.5329 14.3835 40.4072 16.2109 40.243 15.9576C40.0753 15.6987 42.0693 13.4213 45.0927 11.9782C48.1685 10.51 50.9691 10.5446 53.3223 10.6005C55.59 10.6544 59.1552 11.0269 63.3154 12.7434C61.1382 12.9452 57.9432 13.3795 54.204 14.4273C43.7993 17.3424 37.1054 22.7871 36.8631 22.3864Z" fill="#8591FF"/>
<path fill-rule="evenodd" clip-rule="evenodd" d="M61.9693 70.1233C60.3223 71.2326 58.1893 72.4653 55.5801 73.5267C52.5398 74.7629 49.7732 75.3857 47.5993 75.7145L48.1402 65.3983H61.5822L61.9693 70.1233Z" fill="#9195CB"/>
<path fill-rule="evenodd" clip-rule="evenodd" d="M62.791 80.1657H47.3663L47.5991 75.7146C49.7733 75.3859 52.5396 74.7627 55.5802 73.5268C58.1891 72.4654 60.3221 71.2328 61.9694 70.1235L62.791 80.1657Z" fill="#E4E5F7"/>
<path fill-rule="evenodd" clip-rule="evenodd" d="M30.8326 49.3405C27.9666 48.5496 25.861 45.9235 25.861 42.8043C25.861 39.4421 28.3092 36.6515 31.5173 36.1174" fill="#9195CB"/>
<path fill-rule="evenodd" clip-rule="evenodd" d="M77.8456 45.7933C80.3418 44.7935 82.1053 42.3488 82.1053 39.4967C82.1053 35.7511 79.068 32.7141 75.3226 32.7141C75.2572 32.7141 75.1957 32.7141 75.1306 32.7209" fill="#9195CB"/>
<path fill-rule="evenodd" clip-rule="evenodd" d="M77.9176 43.9129C77.9176 57.0863 67.2383 67.7652 54.0653 67.7652C40.8919 67.7652 30.2126 57.0863 30.2126 43.9129C30.2126 30.7396 40.8919 20.0606 54.0653 20.0606C67.2383 20.0606 77.9176 30.7396 77.9176 43.9129Z" fill="#BEC1E0"/>
<path fill-rule="evenodd" clip-rule="evenodd" d="M57.8127 54.6954C56.8093 55.565 55.4982 56.0923 54.0634 56.0923C52.6322 56.0923 51.3211 55.565 50.3177 54.6954C51.2596 53.7092 52.5914 53.0964 54.0634 53.0964C55.539 53.0964 56.8708 53.7092 57.8127 54.6954Z" fill="#E4E5F7"/>
<path fill-rule="evenodd" clip-rule="evenodd" d="M58.446 61.1082C57.5217 62.5498 55.9055 63.5052 54.0633 63.5052C52.2249 63.5052 50.6088 62.5498 49.6844 61.1082C50.6088 59.6669 52.2249 58.7115 54.0633 58.7115C55.9055 58.7115 57.5217 59.6669 58.446 61.1082Z" fill="#6468A1"/>
<path fill-rule="evenodd" clip-rule="evenodd" d="M59.2678 58.3007C59.2678 59.3349 58.9663 60.3004 58.4461 61.1081C57.5218 59.6669 55.9056 58.7117 54.0634 58.7117C52.2247 58.7117 50.6086 59.6669 49.6842 61.1081C49.164 60.3004 48.8625 59.3349 48.8625 58.3007C48.8625 56.9006 49.4138 55.6303 50.3177 54.6953C51.3211 55.5652 52.6322 56.0922 54.0634 56.0922C55.4982 56.0922 56.8092 55.5652 57.8126 54.6953C58.7166 55.6303 59.2678 56.9006 59.2678 58.3007Z" fill="#131856"/>
<path d="M38.2678 30.5624C39.1573 30.6213 41.1098 30.629 43.2308 29.57C45.7169 28.3282 46.9407 26.3655 47.3665 25.5998" stroke="#262C7C" stroke-width="1.4" stroke-linecap="round"/>
<path d="M59.1118 24.9379C59.8225 25.8954 61.0907 27.3539 63.082 28.5774C65.3388 29.9639 67.4728 30.403 68.7066 30.5625" stroke="#262C7C" stroke-width="1.4" stroke-linecap="round"/>
<path d="M58.6156 34.6981C58.9772 35.0505 59.9273 35.8823 61.4278 36.187C63.0152 36.5093 64.2766 36.0497 64.7364 35.8562" stroke="#262C7C" stroke-width="1.4" stroke-linecap="round"/>
<path d="M41.0801 36.5178C41.4405 36.6158 42.5293 36.8605 43.7268 36.3524C45.4433 35.6242 45.9709 33.948 46.0428 33.7057" stroke="#262C7C" stroke-width="1.4" stroke-linecap="round"/>
<path d="M51.3366 35.1944C48.9437 41.3634 48.6218 46.6243 50.5095 48.2633C51.6887 49.2871 52.9909 49.4214 52.9909 49.4214C54.4449 49.5711 55.5708 48.8702 55.9684 48.5941" stroke="#262C7C" stroke-width="1.4" stroke-linecap="round"/>
<path fill-rule="evenodd" clip-rule="evenodd" d="M99.8031 108.746C71.605 108.702 43.5617 108.746 15.3737 108.746C16.6818 97.9164 21.3826 91.2316 23.7518 88.8589C26.6143 85.9932 29.7025 84.2708 35.3519 81.124C39.1867 78.988 42.6826 77.3239 45.6101 76.0501C47.7497 78.5702 50.9444 80.1656 54.5123 80.1656C58.3056 80.1656 61.6782 78.3613 63.8181 75.5607C66.7799 76.0877 71.4739 77.1493 76.9213 79.3508C83.6832 82.0863 88.2749 83.9421 92.3901 88.376C97.4851 93.8577 99.2107 104.213 99.8031 108.746Z" fill="#262C7C"/>
<path d="M45.6649 83.0578C47.2799 83.9023 51.0117 85.5744 55.977 85.3134C61.4948 85.0237 65.3177 82.5149 66.772 81.4467" stroke="#1B1464" stroke-width="8" stroke-linecap="round"/>
<path fill-rule="evenodd" clip-rule="evenodd" d="M56.1118 73.1655C56.1118 73.8987 55.5174 74.4928 54.7842 74.4928C54.051 74.4928 53.4565 73.8987 53.4565 73.1655C53.4565 72.4323 54.051 71.8381 54.7842 71.8381C55.5174 71.8381 56.1118 72.4323 56.1118 73.1655Z" fill="#EB0065"/>
<path fill-rule="evenodd" clip-rule="evenodd" d="M57.899 73.1655C57.899 74.8855 56.5045 76.28 54.7842 76.28C53.0639 76.28 51.6694 74.8855 51.6694 73.1655C51.6694 71.4455 53.0639 70.0509 54.7842 70.0509C56.5045 70.0509 57.899 71.4455 57.899 73.1655Z" stroke="#EB0065" stroke-width="1.4"/>
<path fill-rule="evenodd" clip-rule="evenodd" d="M60.2245 73.1655C60.2245 76.1699 57.7888 78.6057 54.784 78.6057C51.7798 78.6057 49.3441 76.1699 49.3441 73.1655C49.3441 70.161 51.7798 67.7252 54.784 67.7252C57.7888 67.7252 60.2245 70.161 60.2245 73.1655Z" stroke="#EB0065" stroke-width="1.4"/>
<path fill-rule="evenodd" clip-rule="evenodd" d="M62.4374 73.1655C62.4374 77.3923 59.011 80.8187 54.7842 80.8187C50.5577 80.8187 47.131 77.3923 47.131 73.1655C47.131 68.9387 50.5577 65.5123 54.7842 65.5123C59.011 65.5123 62.4374 68.9387 62.4374 73.1655Z" stroke="#EB0065" stroke-width="1.4"/>
<path fill-rule="evenodd" clip-rule="evenodd" d="M64.6129 73.1655C64.6129 78.5939 60.2124 82.9944 54.784 82.9944C49.3559 82.9944 44.9554 78.5939 44.9554 73.1655C44.9554 67.7371 49.3559 63.3366 54.784 63.3366C60.2124 63.3366 64.6129 67.7371 64.6129 73.1655Z" stroke="#EB0065" stroke-width="1.4"/>
<path fill-rule="evenodd" clip-rule="evenodd" d="M7.95727 72.5147L14.2083 85.341L0.938751 86.0038L31.5173 104.647L16.8402 90.0616H27.3686L7.95727 72.5147Z" fill="#EB0065"/>
<path fill-rule="evenodd" clip-rule="evenodd" d="M27.8071 69.0054L41.0801 91.6354L36.9095 77.1208L43.5618 80.8188L37.4578 62.3159L37.019 73.1656L27.8071 69.0054Z" fill="#EB0065"/>
<path fill-rule="evenodd" clip-rule="evenodd" d="M82.1051 78.6056L101.065 61.1082L95.1426 74.4931L108.193 75.1446L77.9177 92.9131L93.0551 78.6056H82.1051Z" fill="#EB0065"/>
</g>
</svg>
