<svg width="133" height="133" viewBox="0 0 133 133" fill="none" xmlns="http://www.w3.org/2000/svg">
<path fill-rule="evenodd" clip-rule="evenodd" d="M67.2187 132.208C101.888 132.208 129.993 104.487 129.993 70.2918C129.993 36.0964 101.888 8.37543 67.2187 8.37543C32.5497 8.37543 4.44488 36.0964 4.44488 70.2918C4.44488 104.487 32.5497 132.208 67.2187 132.208Z" fill="#E4E5F7"/>
<mask id="mask0" mask-type="alpha" maskUnits="userSpaceOnUse" x="0" y="0" width="133" height="132">
<path fill-rule="evenodd" clip-rule="evenodd" d="M0.0701656 65.8541C0.0701656 102.109 29.6194 131.499 66.0705 131.499V131.499C102.521 131.499 132.07 102.109 132.07 65.8541V65.8541C132.07 29.5992 102.521 0.208252 66.0705 0.208252V0.208252C29.6194 0.208252 0.0701656 29.5992 0.0701656 65.8541" fill="white"/>
</mask>
<g mask="url(#mask0)">
<path fill-rule="evenodd" clip-rule="evenodd" d="M153.242 72.0596C153.242 120.584 113.692 159.921 64.9054 159.921C16.1186 159.921 -23.4307 120.584 -23.4307 72.0596C-23.4307 23.5348 16.1186 -15.8022 64.9054 -15.8022C113.692 -15.8022 153.242 23.5348 153.242 72.0596" fill="#E4E5F7"/>
</g>
<mask id="mask1" mask-type="alpha" maskUnits="userSpaceOnUse" x="0" y="0" width="133" height="132">
<path fill-rule="evenodd" clip-rule="evenodd" d="M0.0701656 65.8541C0.0701656 102.109 29.6194 131.499 66.0705 131.499V131.499C102.521 131.499 132.07 102.109 132.07 65.8541V65.8541C132.07 29.5992 102.521 0.208252 66.0705 0.208252V0.208252C29.6194 0.208252 0.0701656 29.5992 0.0701656 65.8541" fill="white"/>
</mask>
<g mask="url(#mask1)">
<path fill-rule="evenodd" clip-rule="evenodd" d="M47.1101 80.273C44.9702 76.8261 34.5041 67.6114 35.6702 54.2261C35.9985 50.4594 37.0041 38.9177 45.9742 30.2895C47.9142 28.4235 52.8279 23.8242 60.6495 22.5264C70.4114 20.9066 81.5696 28.0251 81.5696 28.0251C81.5696 28.0251 84.145 30.438 84.692 30.9366C87.7264 33.7013 90.8914 34.5434 92.4982 35.4651C98.8852 39.1294 97.8025 53.8986 97.4938 58.1078C96.7443 68.3351 89.156 75.0255 86.1171 80.1041C87.5059 76.6751 93.5609 71.3146 92.8102 62.96C92.3926 58.3118 91.4336 47.6385 83.7554 42.5814C78.1907 38.9161 71.9113 40.0546 66.8943 40.9641C54.7533 43.1649 46.4236 50.6634 42.2276 55.1966C41.0496 58.4475 44.3864 63.2623 44.9243 70.2455C45.2411 74.3574 46.1896 77.764 47.1101 80.273" fill="#262C7C"/>
<path fill-rule="evenodd" clip-rule="evenodd" d="M48.3293 39.1996C48.1383 38.8858 51.6766 35.6011 56.7162 33.0666C61.2312 30.7958 64.7041 30.2579 64.61 29.6593C64.5247 29.1153 61.5557 28.9155 58.6898 29.4888C54.6742 30.292 52.2951 32.3259 52.1119 32.044C51.9238 31.7558 54.1552 29.221 57.5385 27.6149C60.9805 25.9806 64.1145 26.0196 66.7477 26.0815C69.2856 26.1412 73.2749 26.5562 77.9305 28.4666C75.4941 28.6913 71.9188 29.1747 67.7347 30.3406C56.0912 33.5854 48.6008 39.6456 48.3293 39.1996" fill="#5C6CFF"/>
<path fill-rule="evenodd" clip-rule="evenodd" d="M76.424 92.3321C74.581 93.5669 72.194 94.9387 69.2745 96.1199C65.8722 97.4959 62.7765 98.1893 60.3435 98.5551L60.9489 87.0732H75.991L76.424 92.3321Z" fill="#9195CB"/>
<path fill-rule="evenodd" clip-rule="evenodd" d="M77.3435 103.509H60.0828L60.3434 98.5551C62.7764 98.1892 65.8721 97.4958 69.2744 96.1202C72.1942 94.9387 74.5812 93.5669 76.4239 92.332L77.3435 103.509Z" fill="#E4E5F7"/>
<path fill-rule="evenodd" clip-rule="evenodd" d="M41.5809 69.2002C38.3738 68.3197 36.0176 65.3967 36.0176 61.9252C36.0176 58.183 38.7571 55.0771 42.3471 54.4824" fill="#9195CB"/>
<path fill-rule="evenodd" clip-rule="evenodd" d="M94.1904 65.252C96.9834 64.1394 98.9568 61.4182 98.9568 58.2439C98.9568 54.0749 95.5583 50.6945 91.3668 50.6945C91.294 50.6945 91.225 50.6945 91.1521 50.7021" fill="#9195CB"/>
<path fill-rule="evenodd" clip-rule="evenodd" d="M94.2708 63.1591C94.2708 77.8214 82.3205 89.7075 67.5791 89.7075C52.8377 89.7075 40.8874 77.8214 40.8874 63.1591C40.8874 48.4969 52.8377 36.6108 67.5791 36.6108C82.3205 36.6108 94.2708 48.4969 94.2708 63.1591" fill="#BEC1E0"/>
<path d="M64.5258 53.4553C61.848 60.3212 61.4878 66.1771 63.6001 68.001C64.9199 69.1407 66.3771 69.2901 66.3771 69.2901C68.0041 69.4571 69.2639 68.6768 69.7091 68.3694" stroke="#262C7C" stroke-width="1.4" stroke-linecap="round"/>
<path fill-rule="evenodd" clip-rule="evenodd" d="M118.762 134.168C87.2069 134.118 55.8252 134.168 24.2821 134.168C25.7457 122.114 31.006 115.826 33.6575 113.185C36.8608 109.995 40.3167 108.078 46.6384 104.577C50.9298 102.199 54.8417 100.346 58.1175 98.9288C60.5123 101.733 64.0869 103.509 68.0791 103.509C72.3245 103.509 76.0985 101.501 78.4932 98.3839C81.8072 98.9706 87.0602 100.152 93.156 102.602C100.723 105.647 105.861 107.713 110.466 112.648C116.167 118.749 118.099 129.122 118.762 134.168" fill="#262C7C"/>
<path d="M58.179 106.729C59.9863 107.668 64.1621 109.529 69.7184 109.239C75.8932 108.917 80.1711 106.124 81.7987 104.935" stroke="#1B1464" stroke-width="8" stroke-linecap="round"/>
<path fill-rule="evenodd" clip-rule="evenodd" d="M78.2613 81.8246C77.5179 82.6288 76.675 83.3452 75.7516 83.9473C73.4679 82.263 70.6405 81.2644 67.5791 81.2644C64.8702 81.2644 62.3493 82.0456 60.2229 83.3909C59.606 82.9145 59.0311 82.3923 58.5063 81.8246C57.6978 80.9518 57.6978 79.5989 58.5025 78.7264C59.0083 78.1814 59.5562 77.6783 60.1462 77.2211C62.1041 78.2919 64.3531 78.9016 66.7478 78.9016C69.8474 78.9016 72.7095 77.8765 75.0083 76.1504C76.2266 76.8361 77.3224 77.7089 78.2651 78.7264C79.0698 79.5989 79.0698 80.9518 78.2613 81.8246" fill="#262C7C"/>
<path fill-rule="evenodd" clip-rule="evenodd" d="M75.7517 83.9473C73.6403 85.3344 71.1079 86.1386 68.3839 86.1386C65.3109 86.1386 62.4835 85.1135 60.2229 83.3908C62.3493 82.0455 64.8702 81.2643 67.5792 81.2643C70.6406 81.2643 73.468 82.2629 75.7517 83.9473" fill="white"/>
<path fill-rule="evenodd" clip-rule="evenodd" d="M66.7478 78.9017C64.353 78.9017 62.104 78.292 60.1461 77.2209C62.4183 75.4606 65.2765 74.4087 68.3838 74.4087C70.7936 74.4087 73.0542 75.0414 75.0082 76.1502C72.7094 77.8766 69.8474 78.9017 66.7478 78.9017" fill="white"/>
<path d="M47.3635 51.7519C47.7907 51.1051 49.6074 48.5138 53.1914 47.5363C56.7599 46.5632 59.6409 47.8555 60.3435 48.1949" stroke="#262C7C" stroke-width="1.4" stroke-linecap="round"/>
<path d="M72.1392 49.0994C72.7083 48.5717 75.0908 46.4826 78.8054 46.3778C82.5042 46.2735 84.9949 48.2084 85.5968 48.7039" stroke="#262C7C" stroke-width="1.4" stroke-linecap="round"/>
<path fill-rule="evenodd" clip-rule="evenodd" d="M61.0461 51.3909C59.083 54.3752 55.4773 56.0931 51.7098 55.4843C50.5142 55.2911 49.4107 54.8815 48.4295 54.3005C50.3932 51.313 53.9989 49.5955 57.7664 50.204C58.9617 50.3971 60.0652 50.8067 61.0461 51.3909" fill="#E4E5F7"/>
<path fill-rule="evenodd" clip-rule="evenodd" d="M85.4006 51.166C83.0142 53.8888 79.1562 55.1138 75.4612 53.9824C74.2887 53.6232 73.2388 53.0594 72.3356 52.3408C74.723 49.6151 78.581 48.3902 82.276 49.5216C83.4485 49.8807 84.4984 50.4445 85.4006 51.166" fill="#E4E5F7"/>
<path fill-rule="evenodd" clip-rule="evenodd" d="M57.0161 53.4553C57.0161 54.4197 56.2301 55.2015 55.2604 55.2015C54.2908 55.2015 53.5047 54.4197 53.5047 53.4553C53.5047 52.4908 54.2908 51.709 55.2604 51.709C56.2301 51.709 57.0161 52.4908 57.0161 53.4553" fill="#262C7C"/>
<path fill-rule="evenodd" clip-rule="evenodd" d="M78.8681 52.4407C78.8681 53.4052 78.082 54.187 77.1124 54.187C76.1427 54.187 75.3567 53.4052 75.3567 52.4407C75.3567 51.4763 76.1427 50.6945 77.1124 50.6945C78.082 50.6945 78.8681 51.4763 78.8681 52.4407" fill="#262C7C"/>
<path fill-rule="evenodd" clip-rule="evenodd" d="M49.1035 80.8628C49.2145 81.4592 49.3105 82.3831 49.0723 83.4439C48.7382 84.9326 48.0995 85.1161 47.9323 86.4014C47.7798 87.5737 48.2542 87.8603 48.3431 89.6567C48.3961 90.7278 48.2667 91.4499 48.2138 91.9211C47.8296 95.3326 49.7525 97.9229 50.5944 103.452C50.5944 103.452 50.7523 104.489 50.923 106.886C51.5769 116.053 48.1117 132.81 47.8251 134.175C52.4287 135.512 57.0323 136.849 61.636 138.186C61.6594 134.244 61.7063 129.12 61.8077 122.552C61.8077 122.552 61.9001 116.582 62.8903 109.51C63.1063 107.966 63.2826 106.962 63.7226 105.713C64.6919 102.961 65.8044 102.252 68.5843 98.0002C70.7354 94.7097 71.5176 92.9188 71.1498 91.2597C71.0484 90.8015 70.8186 89.765 70.0206 89.4818C69.3671 89.2494 68.6877 89.6491 68.4784 89.7828C68.8613 89.3911 70.1063 88.0206 69.9545 86.229C69.9192 85.8137 69.856 85.0685 69.3148 84.6641C68.609 84.1364 67.3123 84.3563 66.1478 85.3109C66.3411 85.0753 67.7052 83.3609 67.1342 81.5435C67.0302 81.2118 66.774 80.3967 65.9934 80.0373C65.4292 79.7774 64.7423 79.825 64.1055 80.1378C63.7393 80.3176 63.4501 80.6228 63.2697 80.9873C62.4137 82.718 61.5577 84.4483 60.7016 86.1789C60.2863 86.7589 60.112 86.8407 60.0302 86.8062C59.688 86.6622 60.2539 84.2005 60.97 82.2681C61.2123 81.6146 61.4518 81.0751 61.6751 80.1378C61.905 79.1737 61.9592 78.4535 61.9871 78.1662C62.3193 74.7601 64.7494 72.8753 63.8725 71.1559C63.5663 70.5554 62.898 70.0558 62.2628 70.0615C61.5163 70.0676 60.607 70.7728 59.0743 74.4853C57.2561 78.8912 57.3434 80.7894 55.9398 84.2909C55.4394 85.5388 54.5792 87.4156 53.1159 89.5795C52.6935 88.9809 52.1783 88.0516 52.1241 86.8787C52.0856 86.0525 52.3138 85.9197 52.3536 84.9517C52.3799 84.3036 52.4698 82.1229 51.1172 81.2156C50.8858 81.0604 50.2439 80.6955 49.1035 80.8628" fill="#9195CB"/>
<path fill-rule="evenodd" clip-rule="evenodd" d="M58.3578 79.2373C58.6056 79.3318 58.9523 79.4349 59.3766 79.4745C59.7653 79.5106 60.0984 79.4822 60.3472 79.4426" fill="#DD9666"/>
<path fill-rule="evenodd" clip-rule="evenodd" d="M58.0724 80.3005C58.2162 80.4227 58.506 80.6363 58.9329 80.7458C59.3508 80.8528 59.7013 80.8087 59.8862 80.7723" fill="#DD9666"/>
<path fill-rule="evenodd" clip-rule="evenodd" d="M60.2924 74.582C60.4506 74.7004 60.7353 74.8817 61.1349 74.9775C61.4944 75.0637 61.7997 75.0452 61.9884 75.019" fill="#DD9666"/>
<path fill-rule="evenodd" clip-rule="evenodd" d="M51.0299 92.5673C51.1214 91.9292 51.3021 91.2974 51.5916 90.7096C51.8792 90.1267 52.2624 89.562 52.802 89.1463L52.9904 89.4049C52.4695 89.7407 52.0606 90.2394 51.7328 90.7853C51.4048 91.3318 51.174 91.9387 51.0299 92.5673" fill="#DD9666"/>
<path d="M63.3411 67.9365L51.1174 79.9933" stroke="#EB0065" stroke-width="2" stroke-linecap="round" stroke-linejoin="round"/>
<path d="M52.2286 67.9365L63.3411 78.8972" stroke="#EB0065" stroke-width="2" stroke-linecap="round" stroke-linejoin="round"/>
</g>
</svg>
