<svg xmlns="http://www.w3.org/2000/svg" version="1.1" xmlns:xlink="http://www.w3.org/1999/xlink" xmlns:svgjs="http://svgjs.com/svgjs" width="1440" height="560" preserveAspectRatio="none" viewBox="0 0 1440 560"><g mask="url(&quot;#SvgjsMask1032&quot;)" fill="none"><path d="M801.24 212.18L801.24 215.9L817.88 215.9L817.88 212.18zM811.28 214.04 a6.6 6.6 0 1 0 13.2 0 a6.6 6.6 0 1 0 -13.2 0zM796.54 239.55L795.11 243L824.36 255.11L825.79 251.67zM818.48 253.39 a6.6 6.6 0 1 0 13.2 0 a6.6 6.6 0 1 0 -13.2 0zM781.72 263.05L779.08 265.68L800.75 287.35L803.38 284.71zM795.46 286.03 a6.6 6.6 0 1 0 13.2 0 a6.6 6.6 0 1 0 -13.2 0zM759.03 279.08L755.59 280.51L767.13 308.38L770.58 306.95zM762.25 307.67 a6.6 6.6 0 1 0 13.2 0 a6.6 6.6 0 1 0 -13.2 0zM731.94 285.21L728.21 285.21L728.21 296.29L731.94 296.29zM723.47 296.29 a6.6 6.6 0 1 0 13.2 0 a6.6 6.6 0 1 0 -13.2 0zM704.56 280.51L701.12 279.08L697.66 287.42L701.1 288.85zM692.78 288.14 a6.6 6.6 0 1 0 13.2 0 a6.6 6.6 0 1 0 -13.2 0zM681.07 265.68L678.43 263.05L666.06 275.42L668.69 278.06zM660.78 276.74 a6.6 6.6 0 1 0 13.2 0 a6.6 6.6 0 1 0 -13.2 0zM665.04 243L663.61 239.55L635.12 251.36L636.54 254.8zM629.23 253.08 a6.6 6.6 0 1 0 13.2 0 a6.6 6.6 0 1 0 -13.2 0zM658.9 215.9L658.9 212.18L649.07 212.18L649.07 215.9zM642.47 214.04 a6.6 6.6 0 1 0 13.2 0 a6.6 6.6 0 1 0 -13.2 0zM663.61 188.53L665.04 185.08L639.85 174.65L638.42 178.1zM632.54 176.37 a6.6 6.6 0 1 0 13.2 0 a6.6 6.6 0 1 0 -13.2 0zM678.43 165.03L681.07 162.4L668.66 150L666.03 152.63zM660.75 151.31 a6.6 6.6 0 1 0 13.2 0 a6.6 6.6 0 1 0 -13.2 0zM701.12 149L704.56 147.58L691.9 117.02L688.46 118.45zM683.58 117.74 a6.6 6.6 0 1 0 13.2 0 a6.6 6.6 0 1 0 -13.2 0zM728.21 142.87L731.94 142.87L731.94 120.15L728.21 120.15zM723.47 120.15 a6.6 6.6 0 1 0 13.2 0 a6.6 6.6 0 1 0 -13.2 0zM755.59 147.58L759.03 149L771.18 119.67L767.74 118.24zM762.86 118.96 a6.6 6.6 0 1 0 13.2 0 a6.6 6.6 0 1 0 -13.2 0zM779.08 162.4L781.72 165.03L794.94 151.81L792.3 149.18zM787.02 150.49 a6.6 6.6 0 1 0 13.2 0 a6.6 6.6 0 1 0 -13.2 0zM795.11 185.08L796.54 188.53L813.68 181.43L812.25 177.98zM806.36 179.71 a6.6 6.6 0 1 0 13.2 0 a6.6 6.6 0 1 0 -13.2 0zM658.88 214.04 a71.19 71.19 0 1 0 142.38 0 a71.19 71.19 0 1 0 -142.38 0z" fill="#488fdb"></path><path d="M787.94 172.57 A70.1936 70.1936 0 0 1 737.21 284.88M737.21 284.88 A142.3872 142.3872 0 0 0 787.94 172.57" fill="#2672c3" fill-rule="nonzero"></path><path d="M710.1 203.89 a14.24 14.24 0 1 0 28.48 0 a14.24 14.24 0 1 0 -28.48 0zM674.71 171.17 a4.27 4.27 0 1 0 8.54 0 a4.27 4.27 0 1 0 -8.54 0zM730.23 265.07 a14.24 14.24 0 1 0 28.48 0 a14.24 14.24 0 1 0 -28.48 0zM679.8 230.74 a12.81 12.81 0 1 0 25.62 0 a12.81 12.81 0 1 0 -25.62 0zM686.99 195 a4.98 4.98 0 1 0 9.96 0 a4.98 4.98 0 1 0 -9.96 0zM696.63 163 a5.7 5.7 0 1 0 11.4 0 a5.7 5.7 0 1 0 -11.4 0zM658.94 213.55 a4.98 4.98 0 1 0 9.96 0 a4.98 4.98 0 1 0 -9.96 0zM703.88 277.17 a3.56 3.56 0 1 0 7.12 0 a3.56 3.56 0 1 0 -7.12 0zM730.15 149.72 a6.41 6.41 0 1 0 12.82 0 a6.41 6.41 0 1 0 -12.82 0zM783.75 220.86 a8.54 8.54 0 1 0 17.08 0 a8.54 8.54 0 1 0 -17.08 0z" fill="#2672c3" fill-rule="nonzero"></path><path d="M215.39 170.95L215.39 174.67L234.64 174.67L234.64 170.95zM228.04 172.81 a6.6 6.6 0 1 0 13.2 0 a6.6 6.6 0 1 0 -13.2 0zM210.69 198.32L209.26 201.77L230.08 210.39L231.5 206.95zM224.19 208.67 a6.6 6.6 0 1 0 13.2 0 a6.6 6.6 0 1 0 -13.2 0zM195.87 221.82L193.23 224.45L203.84 235.07L206.48 232.43zM198.56 233.75 a6.6 6.6 0 1 0 13.2 0 a6.6 6.6 0 1 0 -13.2 0zM173.18 237.85L169.74 239.27L176.6 255.83L180.04 254.4zM171.72 255.12 a6.6 6.6 0 1 0 13.2 0 a6.6 6.6 0 1 0 -13.2 0zM146.09 243.98L142.36 243.98L142.36 260.41L146.09 260.41zM137.62 260.41 a6.6 6.6 0 1 0 13.2 0 a6.6 6.6 0 1 0 -13.2 0zM118.71 239.27L115.27 237.85L107.61 256.34L111.05 257.77zM102.73 257.06 a6.6 6.6 0 1 0 13.2 0 a6.6 6.6 0 1 0 -13.2 0zM95.22 224.45L92.58 221.82L75.96 238.44L78.59 241.08zM70.68 239.76 a6.6 6.6 0 1 0 13.2 0 a6.6 6.6 0 1 0 -13.2 0zM79.19 201.77L77.76 198.32L66.33 203.06L67.76 206.5zM60.44 204.78 a6.6 6.6 0 1 0 13.2 0 a6.6 6.6 0 1 0 -13.2 0zM73.06 174.67L73.06 170.95L39.92 170.95L39.92 174.67zM33.32 172.81 a6.6 6.6 0 1 0 13.2 0 a6.6 6.6 0 1 0 -13.2 0zM77.76 147.3L79.19 143.85L53.19 133.08L51.76 136.53zM45.87 134.81 a6.6 6.6 0 1 0 13.2 0 a6.6 6.6 0 1 0 -13.2 0zM92.58 123.8L95.22 121.17L73.71 99.66L71.07 102.29zM65.79 100.98 a6.6 6.6 0 1 0 13.2 0 a6.6 6.6 0 1 0 -13.2 0zM115.27 107.77L118.71 106.34L105.25 73.85L101.81 75.28zM96.93 74.57 a6.6 6.6 0 1 0 13.2 0 a6.6 6.6 0 1 0 -13.2 0zM142.36 101.64L146.09 101.64L146.09 68.48L142.36 68.48zM137.62 68.48 a6.6 6.6 0 1 0 13.2 0 a6.6 6.6 0 1 0 -13.2 0zM169.74 106.34L173.18 107.77L185.92 77.01L182.48 75.58zM177.6 76.29 a6.6 6.6 0 1 0 13.2 0 a6.6 6.6 0 1 0 -13.2 0zM193.23 121.17L195.87 123.8L204.32 115.35L201.68 112.72zM196.4 114.04 a6.6 6.6 0 1 0 13.2 0 a6.6 6.6 0 1 0 -13.2 0zM209.26 143.85L210.69 147.3L220.11 143.39L218.69 139.95zM212.8 141.67 a6.6 6.6 0 1 0 13.2 0 a6.6 6.6 0 1 0 -13.2 0zM73.03 172.81 a71.19 71.19 0 1 0 142.38 0 a71.19 71.19 0 1 0 -142.38 0z" fill="#488fdb"></path><path d="M210.57 198.64 A70.1936 70.1936 0 0 1 88.78 217.47M88.78 217.47 A142.3872 142.3872 0 0 0 210.57 198.64" fill="#2672c3" fill-rule="nonzero"></path><path d="M73.81 164.69 a8.54 8.54 0 1 0 17.08 0 a8.54 8.54 0 1 0 -17.08 0zM147.77 220.19 a14.24 14.24 0 1 0 28.48 0 a14.24 14.24 0 1 0 -28.48 0zM103.53 127.46 a14.24 14.24 0 1 0 28.48 0 a14.24 14.24 0 1 0 -28.48 0zM201.07 143.56 a3.56 3.56 0 1 0 7.12 0 a3.56 3.56 0 1 0 -7.12 0zM175.66 167.1 a11.39 11.39 0 1 0 22.78 0 a11.39 11.39 0 1 0 -22.78 0zM95.31 189.76 a13.53 13.53 0 1 0 27.06 0 a13.53 13.53 0 1 0 -27.06 0zM123.26 159.8 a4.98 4.98 0 1 0 9.96 0 a4.98 4.98 0 1 0 -9.96 0zM182.67 198.74 a2.85 2.85 0 1 0 5.7 0 a2.85 2.85 0 1 0 -5.7 0zM201.75 191.17 a4.98 4.98 0 1 0 9.96 0 a4.98 4.98 0 1 0 -9.96 0zM146.3 128.69 a9.26 9.26 0 1 0 18.52 0 a9.26 9.26 0 1 0 -18.52 0z" fill="#2672c3" fill-rule="nonzero"></path><path d="M698.6 454.26L698.6 456.12L712.99 456.12L712.99 454.26zM709.69 455.19 a3.3 3.3 0 1 0 6.6 0 a3.3 3.3 0 1 0 -6.6 0zM696.24 467.95L695.53 469.67L700.95 471.91L701.66 470.19zM698 471.05 a3.3 3.3 0 1 0 6.6 0 a3.3 3.3 0 1 0 -6.6 0zM688.83 479.69L687.52 481.01L697.87 491.37L699.19 490.05zM695.23 490.71 a3.3 3.3 0 1 0 6.6 0 a3.3 3.3 0 1 0 -6.6 0zM677.49 487.71L675.77 488.42L681.52 502.3L683.24 501.58zM679.08 501.94 a3.3 3.3 0 1 0 6.6 0 a3.3 3.3 0 1 0 -6.6 0zM663.94 490.77L662.08 490.77L662.08 495.94L663.94 495.94zM659.71 495.94 a3.3 3.3 0 1 0 6.6 0 a3.3 3.3 0 1 0 -6.6 0zM650.26 488.42L648.53 487.71L642.62 501.97L644.35 502.69zM640.19 502.33 a3.3 3.3 0 1 0 6.6 0 a3.3 3.3 0 1 0 -6.6 0zM638.51 481.01L637.19 479.69L630.69 486.2L632 487.52zM628.04 486.86 a3.3 3.3 0 1 0 6.6 0 a3.3 3.3 0 1 0 -6.6 0zM630.49 469.67L629.78 467.95L622.17 471.1L622.88 472.82zM619.22 471.96 a3.3 3.3 0 1 0 6.6 0 a3.3 3.3 0 1 0 -6.6 0zM627.43 456.12L627.43 454.26L617.54 454.26L617.54 456.12zM614.24 455.19 a3.3 3.3 0 1 0 6.6 0 a3.3 3.3 0 1 0 -6.6 0zM629.78 442.43L630.49 440.71L619.19 436.03L618.48 437.75zM615.54 436.89 a3.3 3.3 0 1 0 6.6 0 a3.3 3.3 0 1 0 -6.6 0zM637.19 430.69L638.51 429.37L629.32 420.18L628.01 421.5zM625.36 420.84 a3.3 3.3 0 1 0 6.6 0 a3.3 3.3 0 1 0 -6.6 0zM648.53 422.67L650.26 421.96L646.91 413.89L645.19 414.6zM642.75 414.25 a3.3 3.3 0 1 0 6.6 0 a3.3 3.3 0 1 0 -6.6 0zM662.08 419.6L663.94 419.6L663.94 406.01L662.08 406.01zM659.71 406.01 a3.3 3.3 0 1 0 6.6 0 a3.3 3.3 0 1 0 -6.6 0zM675.77 421.96L677.49 422.67L683.25 408.76L681.53 408.04zM679.09 408.4 a3.3 3.3 0 1 0 6.6 0 a3.3 3.3 0 1 0 -6.6 0zM687.52 429.37L688.83 430.69L696.14 423.38L694.82 422.06zM692.18 422.72 a3.3 3.3 0 1 0 6.6 0 a3.3 3.3 0 1 0 -6.6 0zM695.53 440.71L696.24 442.43L707.4 437.81L706.69 436.09zM703.75 436.95 a3.3 3.3 0 1 0 6.6 0 a3.3 3.3 0 1 0 -6.6 0zM627.41 455.19 a35.6 35.6 0 1 0 71.2 0 a35.6 35.6 0 1 0 -71.2 0z" fill="#488fdb"></path><path d="M655.3 489.94 A34.5968 34.5968 0 0 1 636.72 431.19M636.72 431.19 A71.1936 71.1936 0 0 0 655.3 489.94" fill="#2672c3" fill-rule="nonzero"></path><path d="M647.75 458.51 a7.12 7.12 0 1 0 14.24 0 a7.12 7.12 0 1 0 -14.24 0zM633.64 473.86 a3.2 3.2 0 1 0 6.4 0 a3.2 3.2 0 1 0 -6.4 0zM648.54 436.79 a7.12 7.12 0 1 0 14.24 0 a7.12 7.12 0 1 0 -14.24 0zM662.01 475.84 a7.12 7.12 0 1 0 14.24 0 a7.12 7.12 0 1 0 -14.24 0zM678.67 460.55 a7.12 7.12 0 1 0 14.24 0 a7.12 7.12 0 1 0 -14.24 0zM652.65 480.56 a1.42 1.42 0 1 0 2.84 0 a1.42 1.42 0 1 0 -2.84 0zM676.45 436.03 a7.12 7.12 0 1 0 14.24 0 a7.12 7.12 0 1 0 -14.24 0zM637.25 446.7 a3.56 3.56 0 1 0 7.12 0 a3.56 3.56 0 1 0 -7.12 0zM669.98 448.03 a2.14 2.14 0 1 0 4.28 0 a2.14 2.14 0 1 0 -4.28 0zM627.45 454.46 a2.49 2.49 0 1 0 4.98 0 a2.49 2.49 0 1 0 -4.98 0z" fill="#2672c3" fill-rule="nonzero"></path><path d="M452.96 333.14L452.96 336.4L479.39 336.4L479.39 333.14zM473.61 334.77 a5.78 5.78 0 1 0 11.56 0 a5.78 5.78 0 1 0 -11.56 0zM448.84 357.09L447.59 360.11L464.82 367.24L466.07 364.23zM459.67 365.74 a5.78 5.78 0 1 0 11.56 0 a5.78 5.78 0 1 0 -11.56 0zM435.87 377.65L433.56 379.96L439.71 386.1L442.01 383.79zM435.08 384.95 a5.78 5.78 0 1 0 11.56 0 a5.78 5.78 0 1 0 -11.56 0zM416.02 391.68L413.01 392.93L416.96 402.46L419.97 401.21zM412.68 401.84 a5.78 5.78 0 1 0 11.56 0 a5.78 5.78 0 1 0 -11.56 0zM392.31 397.04L389.05 397.04L389.05 417.43L392.31 417.43zM384.9 417.43 a5.78 5.78 0 1 0 11.56 0 a5.78 5.78 0 1 0 -11.56 0zM368.36 392.93L365.35 391.68L362.11 399.48L365.13 400.73zM357.84 400.11 a5.78 5.78 0 1 0 11.56 0 a5.78 5.78 0 1 0 -11.56 0zM347.8 379.96L345.5 377.65L333.67 389.48L335.97 391.79zM329.04 390.63 a5.78 5.78 0 1 0 11.56 0 a5.78 5.78 0 1 0 -11.56 0zM333.77 360.11L332.53 357.09L316.59 363.69L317.84 366.71zM311.43 365.2 a5.78 5.78 0 1 0 11.56 0 a5.78 5.78 0 1 0 -11.56 0zM328.41 336.4L328.41 333.14L303.86 333.14L303.86 336.4zM298.08 334.77 a5.78 5.78 0 1 0 11.56 0 a5.78 5.78 0 1 0 -11.56 0zM332.53 312.44L333.77 309.43L310.78 299.91L309.53 302.92zM304.38 301.41 a5.78 5.78 0 1 0 11.56 0 a5.78 5.78 0 1 0 -11.56 0zM345.5 291.89L347.8 289.58L328.48 270.26L326.17 272.56zM321.54 271.41 a5.78 5.78 0 1 0 11.56 0 a5.78 5.78 0 1 0 -11.56 0zM365.35 277.86L368.36 276.61L357.3 249.92L354.29 251.17zM350.02 250.55 a5.78 5.78 0 1 0 11.56 0 a5.78 5.78 0 1 0 -11.56 0zM389.05 272.5L392.31 272.5L392.31 256.35L389.05 256.35zM384.9 256.35 a5.78 5.78 0 1 0 11.56 0 a5.78 5.78 0 1 0 -11.56 0zM413.01 276.61L416.02 277.86L420.91 266.06L417.89 264.81zM413.62 265.44 a5.78 5.78 0 1 0 11.56 0 a5.78 5.78 0 1 0 -11.56 0zM433.56 289.58L435.87 291.89L451.89 275.87L449.59 273.56zM444.96 274.71 a5.78 5.78 0 1 0 11.56 0 a5.78 5.78 0 1 0 -11.56 0zM447.59 309.43L448.84 312.44L469.53 303.88L468.28 300.86zM463.12 302.37 a5.78 5.78 0 1 0 11.56 0 a5.78 5.78 0 1 0 -11.56 0zM328.39 334.77 a62.29 62.29 0 1 0 124.58 0 a62.29 62.29 0 1 0 -124.58 0z" fill="#488fdb"></path><path d="M351.9 286.02 A61.294399999999996 61.294399999999996 0 0 1 452.27 325.43M452.27 325.43 A124.58879999999999 124.58879999999999 0 0 0 351.9 286.02" fill="#2672c3" fill-rule="nonzero"></path><path d="M342.19 310.7 a12.46 12.46 0 1 0 24.92 0 a12.46 12.46 0 1 0 -24.92 0zM401.86 325.42 a12.46 12.46 0 1 0 24.92 0 a12.46 12.46 0 1 0 -24.92 0zM399.84 364.8 a12.46 12.46 0 1 0 24.92 0 a12.46 12.46 0 1 0 -24.92 0zM334.32 359.39 a5.61 5.61 0 1 0 11.22 0 a5.61 5.61 0 1 0 -11.22 0zM367.52 337.65 a10.59 10.59 0 1 0 21.18 0 a10.59 10.59 0 1 0 -21.18 0zM387.48 284.37 a11.21 11.21 0 1 0 22.42 0 a11.21 11.21 0 1 0 -22.42 0zM424.96 299.23 a4.98 4.98 0 1 0 9.96 0 a4.98 4.98 0 1 0 -9.96 0zM372.91 363.36 a2.49 2.49 0 1 0 4.98 0 a2.49 2.49 0 1 0 -4.98 0zM435.74 339.8 a4.36 4.36 0 1 0 8.72 0 a4.36 4.36 0 1 0 -8.72 0zM338.37 334.59 a2.49 2.49 0 1 0 4.98 0 a2.49 2.49 0 1 0 -4.98 0z" fill="#2672c3" fill-rule="nonzero"></path><path d="M1398.18 186.29L1398.18 189.55L1423.5 189.55L1423.5 186.29zM1417.72 187.92 a5.78 5.78 0 1 0 11.56 0 a5.78 5.78 0 1 0 -11.56 0zM1394.06 210.24L1392.81 213.26L1407.2 219.22L1408.45 216.2zM1402.04 217.71 a5.78 5.78 0 1 0 11.56 0 a5.78 5.78 0 1 0 -11.56 0zM1381.09 230.8L1378.78 233.11L1388.69 243.01L1391 240.71zM1384.06 241.86 a5.78 5.78 0 1 0 11.56 0 a5.78 5.78 0 1 0 -11.56 0zM1361.24 244.83L1358.23 246.08L1362.6 256.64L1365.62 255.39zM1358.33 256.01 a5.78 5.78 0 1 0 11.56 0 a5.78 5.78 0 1 0 -11.56 0zM1337.53 250.19L1334.27 250.19L1334.27 275.67L1337.53 275.67zM1330.12 275.67 a5.78 5.78 0 1 0 11.56 0 a5.78 5.78 0 1 0 -11.56 0zM1313.58 246.08L1310.57 244.83L1300.76 268.5L1303.78 269.75zM1296.49 269.12 a5.78 5.78 0 1 0 11.56 0 a5.78 5.78 0 1 0 -11.56 0zM1293.02 233.11L1290.72 230.8L1280.24 241.28L1282.54 243.59zM1275.61 242.43 a5.78 5.78 0 1 0 11.56 0 a5.78 5.78 0 1 0 -11.56 0zM1279 213.26L1277.75 210.24L1253.34 220.35L1254.59 223.37zM1248.18 221.86 a5.78 5.78 0 1 0 11.56 0 a5.78 5.78 0 1 0 -11.56 0zM1273.63 189.55L1273.63 186.29L1248.24 186.29L1248.24 189.55zM1242.46 187.92 a5.78 5.78 0 1 0 11.56 0 a5.78 5.78 0 1 0 -11.56 0zM1277.75 165.6L1279 162.58L1265.28 156.9L1264.04 159.92zM1258.88 158.41 a5.78 5.78 0 1 0 11.56 0 a5.78 5.78 0 1 0 -11.56 0zM1290.72 145.04L1293.02 142.73L1280.14 129.85L1277.83 132.16zM1273.21 131 a5.78 5.78 0 1 0 11.56 0 a5.78 5.78 0 1 0 -11.56 0zM1310.57 131.01L1313.58 129.76L1305.21 109.55L1302.19 110.8zM1297.92 110.17 a5.78 5.78 0 1 0 11.56 0 a5.78 5.78 0 1 0 -11.56 0zM1334.27 125.65L1337.53 125.65L1337.53 102.67L1334.27 102.67zM1330.12 102.67 a5.78 5.78 0 1 0 11.56 0 a5.78 5.78 0 1 0 -11.56 0zM1358.23 129.76L1361.24 131.01L1367.33 116.32L1364.31 115.07zM1360.04 115.7 a5.78 5.78 0 1 0 11.56 0 a5.78 5.78 0 1 0 -11.56 0zM1378.78 142.73L1381.09 145.04L1398.56 127.57L1396.26 125.26zM1391.63 126.41 a5.78 5.78 0 1 0 11.56 0 a5.78 5.78 0 1 0 -11.56 0zM1392.81 162.58L1394.06 165.6L1417.07 156.07L1415.82 153.05zM1410.66 154.56 a5.78 5.78 0 1 0 11.56 0 a5.78 5.78 0 1 0 -11.56 0zM1273.61 187.92 a62.29 62.29 0 1 0 124.58 0 a62.29 62.29 0 1 0 -124.58 0z" fill="#488fdb"></path><path d="M1367.82 134.42 A61.294399999999996 61.294399999999996 0 0 1 1366.39 242.25M1366.39 242.25 A124.58879999999999 124.58879999999999 0 0 0 1367.82 134.42" fill="#2672c3" fill-rule="nonzero"></path><path d="M1336.14 211.15 a12.46 12.46 0 1 0 24.92 0 a12.46 12.46 0 1 0 -24.92 0zM1313.22 138.93 a11.84 11.84 0 1 0 23.68 0 a11.84 11.84 0 1 0 -23.68 0zM1293.32 173.81 a12.46 12.46 0 1 0 24.92 0 a12.46 12.46 0 1 0 -24.92 0zM1373.64 211.58 a3.11 3.11 0 1 0 6.22 0 a3.11 3.11 0 1 0 -6.22 0zM1369.75 180.26 a12.46 12.46 0 1 0 24.92 0 a12.46 12.46 0 1 0 -24.92 0zM1326.22 232.15 a3.11 3.11 0 1 0 6.22 0 a3.11 3.11 0 1 0 -6.22 0zM1355.86 160.1 a4.36 4.36 0 1 0 8.72 0 a4.36 4.36 0 1 0 -8.72 0zM1284.34 220.05 a5.61 5.61 0 1 0 11.22 0 a5.61 5.61 0 1 0 -11.22 0zM1351.13 240.56 a4.98 4.98 0 1 0 9.96 0 a4.98 4.98 0 1 0 -9.96 0zM1314.98 199.83 a4.36 4.36 0 1 0 8.72 0 a4.36 4.36 0 1 0 -8.72 0z" fill="#2672c3" fill-rule="nonzero"></path><path d="M548.83 84.17L548.83 86.03L565 86.03L565 84.17zM561.7 85.1 a3.3 3.3 0 1 0 6.6 0 a3.3 3.3 0 1 0 -6.6 0zM546.48 97.86L545.76 99.58L552 102.16L552.71 100.44zM549.06 101.3 a3.3 3.3 0 1 0 6.6 0 a3.3 3.3 0 1 0 -6.6 0zM539.06 109.6L537.75 110.92L541.9 115.07L543.22 113.75zM539.26 114.41 a3.3 3.3 0 1 0 6.6 0 a3.3 3.3 0 1 0 -6.6 0zM527.72 117.62L526 118.33L530.58 129.4L532.31 128.69zM528.15 129.04 a3.3 3.3 0 1 0 6.6 0 a3.3 3.3 0 1 0 -6.6 0zM514.18 120.69L512.31 120.69L512.31 125.24L514.18 125.24zM509.94 125.24 a3.3 3.3 0 1 0 6.6 0 a3.3 3.3 0 1 0 -6.6 0zM500.49 118.33L498.77 117.62L493.9 129.36L495.62 130.08zM491.46 129.72 a3.3 3.3 0 1 0 6.6 0 a3.3 3.3 0 1 0 -6.6 0zM488.74 110.92L487.42 109.6L480.72 116.31L482.04 117.62zM478.08 116.97 a3.3 3.3 0 1 0 6.6 0 a3.3 3.3 0 1 0 -6.6 0zM480.72 99.58L480.01 97.86L470.58 101.76L471.29 103.49zM467.64 102.63 a3.3 3.3 0 1 0 6.6 0 a3.3 3.3 0 1 0 -6.6 0zM477.66 86.03L477.66 84.17L471.23 84.17L471.23 86.03zM467.93 85.1 a3.3 3.3 0 1 0 6.6 0 a3.3 3.3 0 1 0 -6.6 0zM480.01 72.34L480.72 70.62L471.12 66.64L470.4 68.36zM467.46 67.5 a3.3 3.3 0 1 0 6.6 0 a3.3 3.3 0 1 0 -6.6 0zM487.42 60.6L488.74 59.28L476.91 47.45L475.59 48.77zM472.95 48.11 a3.3 3.3 0 1 0 6.6 0 a3.3 3.3 0 1 0 -6.6 0zM498.77 52.58L500.49 51.87L497.55 44.78L495.83 45.5zM493.39 45.14 a3.3 3.3 0 1 0 6.6 0 a3.3 3.3 0 1 0 -6.6 0zM512.31 49.52L514.18 49.52L514.18 34.73L512.31 34.73zM509.94 34.73 a3.3 3.3 0 1 0 6.6 0 a3.3 3.3 0 1 0 -6.6 0zM526 51.87L527.72 52.58L530.46 45.98L528.74 45.26zM526.3 45.62 a3.3 3.3 0 1 0 6.6 0 a3.3 3.3 0 1 0 -6.6 0zM537.75 59.28L539.06 60.6L551.28 48.38L549.97 47.06zM547.32 47.72 a3.3 3.3 0 1 0 6.6 0 a3.3 3.3 0 1 0 -6.6 0zM545.76 70.62L546.48 72.34L562.24 65.82L561.52 64.09zM558.58 64.95 a3.3 3.3 0 1 0 6.6 0 a3.3 3.3 0 1 0 -6.6 0zM477.64 85.1 a35.6 35.6 0 1 0 71.2 0 a35.6 35.6 0 1 0 -71.2 0z" fill="#488fdb"></path><path d="M492.05 113.7 A34.5968 34.5968 0 0 1 499 52.48M499 52.48 A71.1936 71.1936 0 0 0 492.05 113.7" fill="#2672c3" fill-rule="nonzero"></path><path d="M478.58 78.14 a6.76 6.76 0 1 0 13.52 0 a6.76 6.76 0 1 0 -13.52 0zM522.69 109.44 a6.41 6.41 0 1 0 12.82 0 a6.41 6.41 0 1 0 -12.82 0zM502.26 56.87 a6.76 6.76 0 1 0 13.52 0 a6.76 6.76 0 1 0 -13.52 0zM500.47 100.56 a7.12 7.12 0 1 0 14.24 0 a7.12 7.12 0 1 0 -14.24 0zM543.09 96.8 a1.78 1.78 0 1 0 3.56 0 a1.78 1.78 0 1 0 -3.56 0zM497.9 114.04 a1.42 1.42 0 1 0 2.84 0 a1.42 1.42 0 1 0 -2.84 0zM490.71 58.76 a1.78 1.78 0 1 0 3.56 0 a1.78 1.78 0 1 0 -3.56 0zM482.19 101.09 a4.27 4.27 0 1 0 8.54 0 a4.27 4.27 0 1 0 -8.54 0zM502.76 73.27 a2.85 2.85 0 1 0 5.7 0 a2.85 2.85 0 1 0 -5.7 0zM512.79 83.47 a6.41 6.41 0 1 0 12.82 0 a6.41 6.41 0 1 0 -12.82 0z" fill="#2672c3" fill-rule="nonzero"></path><path d="M1377.54 494.24L1377.54 496.1L1393.66 496.1L1393.66 494.24zM1390.36 495.17 a3.3 3.3 0 1 0 6.6 0 a3.3 3.3 0 1 0 -6.6 0zM1375.19 507.93L1374.48 509.65L1385.61 514.26L1386.32 512.54zM1382.66 513.4 a3.3 3.3 0 1 0 6.6 0 a3.3 3.3 0 1 0 -6.6 0zM1367.78 519.67L1366.46 520.99L1372.02 526.55L1373.34 525.23zM1369.38 525.89 a3.3 3.3 0 1 0 6.6 0 a3.3 3.3 0 1 0 -6.6 0zM1356.43 527.69L1354.71 528.4L1360.61 542.63L1362.33 541.92zM1358.17 542.27 a3.3 3.3 0 1 0 6.6 0 a3.3 3.3 0 1 0 -6.6 0zM1342.89 530.75L1341.02 530.75L1341.02 542.25L1342.89 542.25zM1338.66 542.25 a3.3 3.3 0 1 0 6.6 0 a3.3 3.3 0 1 0 -6.6 0zM1329.2 528.4L1327.48 527.69L1323.74 536.71L1325.46 537.43zM1321.3 537.07 a3.3 3.3 0 1 0 6.6 0 a3.3 3.3 0 1 0 -6.6 0zM1317.45 520.99L1316.14 519.67L1307.2 528.61L1308.52 529.93zM1304.56 529.27 a3.3 3.3 0 1 0 6.6 0 a3.3 3.3 0 1 0 -6.6 0zM1309.44 509.65L1308.72 507.93L1297.92 512.4L1298.64 514.12zM1294.98 513.26 a3.3 3.3 0 1 0 6.6 0 a3.3 3.3 0 1 0 -6.6 0zM1306.37 496.1L1306.37 494.24L1300.84 494.24L1300.84 496.1zM1297.54 495.17 a3.3 3.3 0 1 0 6.6 0 a3.3 3.3 0 1 0 -6.6 0zM1308.72 482.41L1309.44 480.69L1298.17 476.02L1297.45 477.74zM1294.51 476.88 a3.3 3.3 0 1 0 6.6 0 a3.3 3.3 0 1 0 -6.6 0zM1316.14 470.67L1317.45 469.35L1305.77 457.67L1304.45 458.98zM1301.81 458.33 a3.3 3.3 0 1 0 6.6 0 a3.3 3.3 0 1 0 -6.6 0zM1327.48 462.65L1329.2 461.94L1327.38 457.54L1325.66 458.25zM1323.22 457.9 a3.3 3.3 0 1 0 6.6 0 a3.3 3.3 0 1 0 -6.6 0zM1341.02 459.58L1342.89 459.58L1342.89 451.22L1341.02 451.22zM1338.66 451.22 a3.3 3.3 0 1 0 6.6 0 a3.3 3.3 0 1 0 -6.6 0zM1354.71 461.94L1356.43 462.65L1360.94 451.78L1359.22 451.06zM1356.78 451.42 a3.3 3.3 0 1 0 6.6 0 a3.3 3.3 0 1 0 -6.6 0zM1366.46 469.35L1367.78 470.67L1374.72 463.72L1373.4 462.4zM1370.76 463.06 a3.3 3.3 0 1 0 6.6 0 a3.3 3.3 0 1 0 -6.6 0zM1374.48 480.69L1375.19 482.41L1380.75 480.11L1380.04 478.39zM1377.09 479.25 a3.3 3.3 0 1 0 6.6 0 a3.3 3.3 0 1 0 -6.6 0zM1306.36 495.17 a35.6 35.6 0 1 0 71.2 0 a35.6 35.6 0 1 0 -71.2 0z" fill="#488fdb"></path><path d="M1315.39 518.86 A34.5968 34.5968 0 0 1 1334.65 460.33M1334.65 460.33 A71.1936 71.1936 0 0 0 1315.39 518.86" fill="#2672c3" fill-rule="nonzero"></path><path d="M1325.77 522.55 a6.41 6.41 0 1 0 12.82 0 a6.41 6.41 0 1 0 -12.82 0zM1322.41 468.9 a5.7 5.7 0 1 0 11.4 0 a5.7 5.7 0 1 0 -11.4 0zM1351.54 519.96 a6.05 6.05 0 1 0 12.1 0 a6.05 6.05 0 1 0 -12.1 0zM1355.51 492.42 a7.12 7.12 0 1 0 14.24 0 a7.12 7.12 0 1 0 -14.24 0zM1340.94 466.79 a2.49 2.49 0 1 0 4.98 0 a2.49 2.49 0 1 0 -4.98 0zM1328.69 485.33 a3.92 3.92 0 1 0 7.84 0 a3.92 3.92 0 1 0 -7.84 0zM1312.06 513.06 a4.63 4.63 0 1 0 9.26 0 a4.63 4.63 0 1 0 -9.26 0zM1335.62 505.41 a6.05 6.05 0 1 0 12.1 0 a6.05 6.05 0 1 0 -12.1 0zM1313.63 499.92 a1.42 1.42 0 1 0 2.84 0 a1.42 1.42 0 1 0 -2.84 0zM1343.47 478.71 a2.49 2.49 0 1 0 4.98 0 a2.49 2.49 0 1 0 -4.98 0z" fill="#2672c3" fill-rule="nonzero"></path><path d="M1086.45 330.46L1086.45 334.18L1104.3 334.18L1104.3 330.46zM1097.7 332.32 a6.6 6.6 0 1 0 13.2 0 a6.6 6.6 0 1 0 -13.2 0zM1081.74 357.83L1080.31 361.28L1092.88 366.48L1094.31 363.04zM1086.99 364.76 a6.6 6.6 0 1 0 13.2 0 a6.6 6.6 0 1 0 -13.2 0zM1066.92 381.33L1064.28 383.96L1078.94 398.62L1081.58 395.98zM1073.66 397.3 a6.6 6.6 0 1 0 13.2 0 a6.6 6.6 0 1 0 -13.2 0zM1044.23 397.36L1040.79 398.79L1053.91 430.46L1057.36 429.04zM1049.03 429.75 a6.6 6.6 0 1 0 13.2 0 a6.6 6.6 0 1 0 -13.2 0zM1017.14 403.49L1013.41 403.49L1013.41 414.21L1017.14 414.21zM1008.68 414.21 a6.6 6.6 0 1 0 13.2 0 a6.6 6.6 0 1 0 -13.2 0zM989.76 398.79L986.32 397.36L978.53 416.16L981.98 417.59zM973.65 416.87 a6.6 6.6 0 1 0 13.2 0 a6.6 6.6 0 1 0 -13.2 0zM966.27 383.96L963.63 381.33L950.13 394.83L952.76 397.47zM944.85 396.15 a6.6 6.6 0 1 0 13.2 0 a6.6 6.6 0 1 0 -13.2 0zM950.24 361.28L948.81 357.83L931.56 364.98L932.99 368.42zM925.68 366.7 a6.6 6.6 0 1 0 13.2 0 a6.6 6.6 0 1 0 -13.2 0zM944.11 334.18L944.11 330.46L928.56 330.46L928.56 334.18zM921.96 332.32 a6.6 6.6 0 1 0 13.2 0 a6.6 6.6 0 1 0 -13.2 0zM948.81 306.81L950.24 303.36L935.26 297.16L933.84 300.6zM927.95 298.88 a6.6 6.6 0 1 0 13.2 0 a6.6 6.6 0 1 0 -13.2 0zM963.63 283.31L966.27 280.68L958.44 272.85L955.81 275.49zM950.52 274.17 a6.6 6.6 0 1 0 13.2 0 a6.6 6.6 0 1 0 -13.2 0zM986.32 267.28L989.76 265.86L985.48 255.51L982.03 256.93zM977.16 256.22 a6.6 6.6 0 1 0 13.2 0 a6.6 6.6 0 1 0 -13.2 0zM1013.41 261.15L1017.14 261.15L1017.14 234.02L1013.41 234.02zM1008.68 234.02 a6.6 6.6 0 1 0 13.2 0 a6.6 6.6 0 1 0 -13.2 0zM1040.79 265.86L1044.23 267.28L1056.85 236.83L1053.4 235.4zM1048.52 236.12 a6.6 6.6 0 1 0 13.2 0 a6.6 6.6 0 1 0 -13.2 0zM1064.28 280.68L1066.92 283.31L1074.35 275.88L1071.71 273.25zM1066.43 274.56 a6.6 6.6 0 1 0 13.2 0 a6.6 6.6 0 1 0 -13.2 0zM1080.31 303.36L1081.74 306.81L1106.21 296.67L1104.78 293.23zM1098.89 294.95 a6.6 6.6 0 1 0 13.2 0 a6.6 6.6 0 1 0 -13.2 0zM944.09 332.32 a71.19 71.19 0 1 0 142.38 0 a71.19 71.19 0 1 0 -142.38 0z" fill="#488fdb"></path><path d="M1086.2 326.1 A70.1936 70.1936 0 0 1 985.34 396.91M985.34 396.91 A142.3872 142.3872 0 0 0 1086.2 326.1" fill="#2672c3" fill-rule="nonzero"></path><path d="M1078.74 324.91 a3.56 3.56 0 1 0 7.12 0 a3.56 3.56 0 1 0 -7.12 0zM1037.47 275.88 a7.12 7.12 0 1 0 14.24 0 a7.12 7.12 0 1 0 -14.24 0zM1038.49 333.12 a13.53 13.53 0 1 0 27.06 0 a13.53 13.53 0 1 0 -27.06 0zM947.36 322.26 a14.24 14.24 0 1 0 28.48 0 a14.24 14.24 0 1 0 -28.48 0zM997.54 327.56 a13.53 13.53 0 1 0 27.06 0 a13.53 13.53 0 1 0 -27.06 0zM984.29 346.87 a2.85 2.85 0 1 0 5.7 0 a2.85 2.85 0 1 0 -5.7 0zM1001.23 284.29 a11.39 11.39 0 1 0 22.78 0 a11.39 11.39 0 1 0 -22.78 0zM975.43 285.97 a5.7 5.7 0 1 0 11.4 0 a5.7 5.7 0 1 0 -11.4 0zM1037.82 384 a9.97 9.97 0 1 0 19.94 0 a9.97 9.97 0 1 0 -19.94 0zM1059.42 302.79 a4.27 4.27 0 1 0 8.54 0 a4.27 4.27 0 1 0 -8.54 0z" fill="#2672c3" fill-rule="nonzero"></path><path d="M1127.9 96.71L1127.9 98.58L1137.5 98.58L1137.5 96.71zM1134.2 97.65 a3.3 3.3 0 1 0 6.6 0 a3.3 3.3 0 1 0 -6.6 0zM1125.55 110.4L1124.83 112.12L1135.67 116.61L1136.38 114.89zM1132.73 115.75 a3.3 3.3 0 1 0 6.6 0 a3.3 3.3 0 1 0 -6.6 0zM1118.14 122.15L1116.82 123.47L1123.8 130.45L1125.11 129.13zM1121.16 129.79 a3.3 3.3 0 1 0 6.6 0 a3.3 3.3 0 1 0 -6.6 0zM1106.79 130.17L1105.07 130.88L1106.98 135.48L1108.7 134.77zM1104.54 135.12 a3.3 3.3 0 1 0 6.6 0 a3.3 3.3 0 1 0 -6.6 0zM1093.25 133.23L1091.38 133.23L1091.38 148.31L1093.25 148.31zM1089.01 148.31 a3.3 3.3 0 1 0 6.6 0 a3.3 3.3 0 1 0 -6.6 0zM1079.56 130.88L1077.84 130.17L1075.56 135.65L1077.28 136.37zM1073.12 136.01 a3.3 3.3 0 1 0 6.6 0 a3.3 3.3 0 1 0 -6.6 0zM1067.81 123.47L1066.49 122.15L1056.81 131.83L1058.13 133.15zM1054.17 132.49 a3.3 3.3 0 1 0 6.6 0 a3.3 3.3 0 1 0 -6.6 0zM1059.8 112.12L1059.08 110.4L1050.2 114.08L1050.92 115.8zM1047.26 114.94 a3.3 3.3 0 1 0 6.6 0 a3.3 3.3 0 1 0 -6.6 0zM1056.73 98.58L1056.73 96.71L1039.14 96.71L1039.14 98.58zM1035.84 97.65 a3.3 3.3 0 1 0 6.6 0 a3.3 3.3 0 1 0 -6.6 0zM1059.08 84.89L1059.8 83.17L1051.01 79.53L1050.3 81.25zM1047.35 80.39 a3.3 3.3 0 1 0 6.6 0 a3.3 3.3 0 1 0 -6.6 0zM1066.49 73.14L1067.81 71.83L1056.02 60.04L1054.71 61.36zM1052.06 60.7 a3.3 3.3 0 1 0 6.6 0 a3.3 3.3 0 1 0 -6.6 0zM1077.84 65.13L1079.56 64.41L1074.16 51.38L1072.44 52.09zM1070 51.73 a3.3 3.3 0 1 0 6.6 0 a3.3 3.3 0 1 0 -6.6 0zM1091.38 62.06L1093.25 62.06L1093.25 45.64L1091.38 45.64zM1089.01 45.64 a3.3 3.3 0 1 0 6.6 0 a3.3 3.3 0 1 0 -6.6 0zM1105.07 64.41L1106.79 65.13L1109.76 57.96L1108.04 57.24zM1105.6 57.6 a3.3 3.3 0 1 0 6.6 0 a3.3 3.3 0 1 0 -6.6 0zM1116.82 71.83L1118.14 73.14L1122.54 68.74L1121.22 67.42zM1118.58 68.08 a3.3 3.3 0 1 0 6.6 0 a3.3 3.3 0 1 0 -6.6 0zM1124.83 83.17L1125.55 84.89L1139.14 79.26L1138.42 77.54zM1135.48 78.4 a3.3 3.3 0 1 0 6.6 0 a3.3 3.3 0 1 0 -6.6 0zM1056.71 97.65 a35.6 35.6 0 1 0 71.2 0 a35.6 35.6 0 1 0 -71.2 0z" fill="#488fdb"></path><path d="M1087.77 62.34 A34.5968 34.5968 0 0 1 1125.19 111.3M1125.19 111.3 A71.1936 71.1936 0 0 0 1087.77 62.34" fill="#2672c3" fill-rule="nonzero"></path><path d="M1108.75 106.62 a7.12 7.12 0 1 0 14.24 0 a7.12 7.12 0 1 0 -14.24 0zM1062.16 114.79 a4.98 4.98 0 1 0 9.96 0 a4.98 4.98 0 1 0 -9.96 0zM1091.78 124.83 a7.12 7.12 0 1 0 14.24 0 a7.12 7.12 0 1 0 -14.24 0zM1075.04 125.46 a2.49 2.49 0 1 0 4.98 0 a2.49 2.49 0 1 0 -4.98 0zM1079.46 71.07 a7.12 7.12 0 1 0 14.24 0 a7.12 7.12 0 1 0 -14.24 0zM1071.39 100.24 a4.98 4.98 0 1 0 9.96 0 a4.98 4.98 0 1 0 -9.96 0zM1093.26 100.27 a4.63 4.63 0 1 0 9.26 0 a4.63 4.63 0 1 0 -9.26 0zM1100.54 74.95 a2.14 2.14 0 1 0 4.28 0 a2.14 2.14 0 1 0 -4.28 0zM1111.23 79.58 a2.14 2.14 0 1 0 4.28 0 a2.14 2.14 0 1 0 -4.28 0zM1058.61 86.72 a2.14 2.14 0 1 0 4.28 0 a2.14 2.14 0 1 0 -4.28 0z" fill="#2672c3" fill-rule="nonzero"></path><path d="M191.9 436.01L191.9 438.34L205.91 438.34L205.91 436.01zM201.78 437.17 a4.13 4.13 0 1 0 8.26 0 a4.13 4.13 0 1 0 -8.26 0zM188.96 453.12L188.07 455.27L194.49 457.93L195.38 455.78zM190.81 456.85 a4.13 4.13 0 1 0 8.26 0 a4.13 4.13 0 1 0 -8.26 0zM179.7 467.8L178.05 469.45L192.68 484.08L194.33 482.43zM189.37 483.25 a4.13 4.13 0 1 0 8.26 0 a4.13 4.13 0 1 0 -8.26 0zM165.52 477.82L163.37 478.71L169.13 492.63L171.29 491.74zM166.08 492.19 a4.13 4.13 0 1 0 8.26 0 a4.13 4.13 0 1 0 -8.26 0zM148.58 481.65L146.26 481.65L146.26 500.3L148.58 500.3zM143.29 500.3 a4.13 4.13 0 1 0 8.26 0 a4.13 4.13 0 1 0 -8.26 0zM131.47 478.71L129.32 477.82L127.09 483.2L129.25 484.09zM124.04 483.64 a4.13 4.13 0 1 0 8.26 0 a4.13 4.13 0 1 0 -8.26 0zM116.79 469.45L115.14 467.8L104.2 478.74L105.85 480.39zM100.9 479.56 a4.13 4.13 0 1 0 8.26 0 a4.13 4.13 0 1 0 -8.26 0zM106.77 455.27L105.88 453.12L98.19 456.3L99.08 458.45zM94.51 457.38 a4.13 4.13 0 1 0 8.26 0 a4.13 4.13 0 1 0 -8.26 0zM102.94 438.34L102.94 436.01L86.73 436.01L86.73 438.34zM82.6 437.17 a4.13 4.13 0 1 0 8.26 0 a4.13 4.13 0 1 0 -8.26 0zM105.88 421.23L106.77 419.07L97.19 415.1L96.3 417.26zM92.61 416.18 a4.13 4.13 0 1 0 8.26 0 a4.13 4.13 0 1 0 -8.26 0zM115.14 406.54L116.79 404.89L108.43 396.54L106.79 398.18zM103.48 397.36 a4.13 4.13 0 1 0 8.26 0 a4.13 4.13 0 1 0 -8.26 0zM129.32 396.52L131.47 395.63L125.44 381.07L123.29 381.96zM120.24 381.52 a4.13 4.13 0 1 0 8.26 0 a4.13 4.13 0 1 0 -8.26 0zM146.26 392.69L148.58 392.69L148.58 385.46L146.26 385.46zM143.29 385.46 a4.13 4.13 0 1 0 8.26 0 a4.13 4.13 0 1 0 -8.26 0zM163.37 395.63L165.52 396.52L170.83 383.71L168.67 382.82zM165.62 383.26 a4.13 4.13 0 1 0 8.26 0 a4.13 4.13 0 1 0 -8.26 0zM178.05 404.89L179.7 406.54L193.09 393.15L191.44 391.5zM188.14 392.33 a4.13 4.13 0 1 0 8.26 0 a4.13 4.13 0 1 0 -8.26 0zM188.07 419.07L188.96 421.23L206.09 414.13L205.2 411.98zM201.51 413.05 a4.13 4.13 0 1 0 8.26 0 a4.13 4.13 0 1 0 -8.26 0zM102.92 437.17 a44.5 44.5 0 1 0 89 0 a44.5 44.5 0 1 0 -89 0z" fill="#488fdb"></path><path d="M124.62 475.38 A43.496 43.496 0 0 1 125.65 398.36M125.65 398.36 A88.992 88.992 0 0 0 124.62 475.38" fill="#2672c3" fill-rule="nonzero"></path><path d="M162.9 422.47 a8.9 8.9 0 1 0 17.8 0 a8.9 8.9 0 1 0 -17.8 0zM147.18 432.41 a4.45 4.45 0 1 0 8.9 0 a4.45 4.45 0 1 0 -8.9 0zM108.66 429.1 a8.9 8.9 0 1 0 17.8 0 a8.9 8.9 0 1 0 -17.8 0zM161.05 459.07 a8.9 8.9 0 1 0 17.8 0 a8.9 8.9 0 1 0 -17.8 0zM151.72 407.72 a4 4 0 1 0 8 0 a4 4 0 1 0 -8 0zM124.01 470.46 a7.56 7.56 0 1 0 15.12 0 a7.56 7.56 0 1 0 -15.12 0zM130.69 403.25 a6.23 6.23 0 1 0 12.46 0 a6.23 6.23 0 1 0 -12.46 0zM155.47 478.42 a1.78 1.78 0 1 0 3.56 0 a1.78 1.78 0 1 0 -3.56 0zM138.06 444.25 a2.67 2.67 0 1 0 5.34 0 a2.67 2.67 0 1 0 -5.34 0zM179.31 440.85 a3.11 3.11 0 1 0 6.22 0 a3.11 3.11 0 1 0 -6.22 0z" fill="#2672c3" fill-rule="nonzero"></path></g><defs><mask id="SvgjsMask1032"><rect width="1440" height="560" fill="#ffffff"></rect></mask></defs></svg>